<?xml version="1.0" encoding="UTF-8" standalone="no"?>
<!-- Created with Inkscape (http://www.inkscape.org/) -->

<svg
   width="512"
   height="512"
   viewBox="0 0 512 512"
   version="1.1"
   id="svg1"
   inkscape:version="1.3 (0e150ed6c4, 2023-07-21)"
   sodipodi:docname="frankenstein.svg"
   inkscape:export-filename="frankenstein.png"
   inkscape:export-xdpi="96"
   inkscape:export-ydpi="96"
   xmlns:inkscape="http://www.inkscape.org/namespaces/inkscape"
   xmlns:sodipodi="http://sodipodi.sourceforge.net/DTD/sodipodi-0.dtd"
   xmlns="http://www.w3.org/2000/svg"
   xmlns:svg="http://www.w3.org/2000/svg">
  <sodipodi:namedview
     id="namedview1"
     pagecolor="#ffffff"
     bordercolor="#000000"
     borderopacity="0.25"
     inkscape:showpageshadow="2"
     inkscape:pageopacity="0.0"
     inkscape:pagecheckerboard="0"
     inkscape:deskcolor="#d1d1d1"
     inkscape:document-units="mm"
     inkscape:zoom="0.73228114"
     inkscape:cx="441.08742"
     inkscape:cy="467.03374"
     inkscape:window-width="1920"
     inkscape:window-height="1028"
     inkscape:window-x="0"
     inkscape:window-y="30"
     inkscape:window-maximized="1"
     inkscape:current-layer="layer1" />
  <defs
     id="defs1" />
  <g
     inkscape:label="Layer 1"
     inkscape:groupmode="layer"
     id="layer1">
    <g
       id="g1"
       transform="matrix(2.3328897,0,0,2.3846524,6.6853352,10.095721)">
      <circle
         style="fill:#71c837;stroke-width:0.264583"
         id="path1"
         cx="105"
         cy="105"
         r="105" />
      <g
         id="g38">
        <path
           style="fill:#aade87;fill-opacity:1;stroke:none;stroke-width:1.765;stroke-dasharray:none;stroke-opacity:1"
           d="m 105.81977,0.10329003 c -0.22581,0.59939641 -0.48865,1.18612407 -0.67746,1.79818927 -0.48782,1.5814139 -0.47196,3.4720547 -0.76214,5.1087627 -1.33129,7.508735 -1.92379,15.112365 -3.49318,22.578583 -1.637208,7.788896 -3.821778,15.48644 -5.250337,23.316916 -0.742167,4.068104 -1.200576,8.180507 -1.99005,12.241977 -1.494393,7.687958 -3.440496,15.420068 -5.525561,22.97157 -1.263894,4.57746 -3.310022,8.869431 -4.594051,13.432832 -1.391827,4.94653 -2.591556,10.03212 -3.81073,15.02856 -1.168934,4.79055 -2.522476,9.53076 -4.085952,14.20689 -0.650169,1.94456 -1.143693,3.98716 -1.990048,5.859 -0.5042,1.11511 -1.104175,3.03867 -2.561661,3.17958 -2.555145,0.24703 -6.336459,-0.81778 -8.891707,-1.16704 -2.345205,-0.32054 -2.57353,-0.33927 -5.292685,-0.88123 -1.417063,-0.28244 -3.469952,-0.82204 -4.805757,-1.14322 -2.772264,-0.66657 -2.168818,-0.5406 -4.678719,-0.98841 -0.910577,-0.16246 -3.639556,-0.59883 -4.721074,-0.91695 -5.401199,-1.58877 -10.599301,-3.49877 -16.08976,-4.79914 -5.145189,-1.2186 -9.983223,-2.53921 -14.861854,-4.54907 -2.8737027,-1.18388 -7.3637681,-2.41457 -7.8543424,-6.0019 -0.4862128,-3.55543 0.5735479,-7.02827 0.2540487,-10.58669 -0.6710651,-7.47399 -1.9513872,-14.909487 -0.084683,-22.340408 1.2252706,-4.877517 3.054895,-9.83534 5.2715128,-14.349788 1.3572559,-2.764237 2.9555509,-5.413435 4.2553179,-8.204983 1.890274,-4.05979 4.551769,-7.785899 6.92283,-11.587006 1.772738,-2.841921 2.917085,-5.911493 4.975123,-8.586057 1.098708,-1.427848 2.341374,-2.531406 3.810732,-3.560651 0.459291,-0.32172 0.887032,-0.67396 1.333757,-1.012227 0.203631,-0.154192 0.885584,-0.478798 0.635122,-0.428707 -1.04031,0.208063 -1.112997,0.253984 -2.180588,0.559702"
           id="path12" />
        <path
           style="fill:#000000;fill-opacity:1;stroke:#181818;stroke-width:1.765;stroke-dasharray:none;stroke-opacity:1"
           d="m 11.864068,120.6534 c 1.794486,0.1538 4.265396,1.75506 6.097172,1.27422"
           id="path19" />
        <path
           style="fill:#000000;fill-opacity:1;stroke:#181818;stroke-width:1.765;stroke-dasharray:none;stroke-opacity:1"
           d="m 22.258899,124.36887 c 1.453244,-0.41055 6.5055,2.31305 5.716097,0.71451"
           id="path20" />
        <path
           style="fill:#000000;fill-opacity:1;stroke:#181818;stroke-width:1.765;stroke-dasharray:none;stroke-opacity:1"
           d="m 34.474412,127.95334 c 1.282946,3.16416 7.555983,0.0793 8.912881,1.71483"
           id="path21" />
        <path
           style="fill:#000000;fill-opacity:1;stroke:#181818;stroke-width:1.765;stroke-dasharray:none;stroke-opacity:1"
           d="m 51.855573,131.91888 c 2.431764,0.13958 5.187651,2.31789 7.684979,1.38139"
           id="path22" />
        <path
           style="fill:#000000;fill-opacity:1;stroke:#181818;stroke-width:1.765;stroke-dasharray:none;stroke-opacity:1"
           d="m 67.246698,134.47922 c 1.064133,-1.48195 1.699672,-3.89531 3.175611,-5.16831"
           id="path23" />
        <path
           style="fill:#000000;fill-opacity:1;stroke:#181818;stroke-width:1.765;stroke-dasharray:none;stroke-opacity:1"
           d="m 73.005137,121.11784 c 0.517371,-2.00969 1.818992,-4.01321 1.968878,-6.12099"
           id="path24" />
        <path
           style="fill:#000000;fill-opacity:1;stroke:#181818;stroke-width:1.765;stroke-dasharray:none;stroke-opacity:1"
           d="m 77.34514,109.36411 c 0.04421,-2.75976 3.732818,-4.70063 2.709851,-7.34756"
           id="path25" />
        <path
           style="fill:#000000;fill-opacity:1;stroke:#181818;stroke-width:1.765;stroke-dasharray:none;stroke-opacity:1"
           d="m 82.172065,95.300137 c -3.678626,-2.547231 5.816489,-5.461587 3.006244,-7.776276"
           id="path26" />
        <path
           style="fill:#000000;fill-opacity:1;stroke:#181818;stroke-width:1.765;stroke-dasharray:none;stroke-opacity:1"
           d="m 85.622896,79.938122 c -2.212554,-2.126908 3.925308,-4.374536 3.366146,-6.859317 -0.07455,-0.331282 -0.677463,-0.04763 -1.016196,-0.07145"
           id="path27" />
      </g>
      <g
         id="g37">
        <path
           style="fill:#409e42;fill-opacity:1;stroke:none;stroke-width:1.765;stroke-dasharray:none;stroke-opacity:1"
           d="m 120.91451,206.0138 c 0.64215,-3.84025 0.23983,-7.71536 0.40224,-11.5751 0.30489,-7.24575 0.34373,-14.39219 0.0212,-21.64972 -0.17976,-4.04462 -0.70023,-8.06672 -1.03736,-12.09907 -0.55238,-6.60666 -0.64714,-13.31946 -0.57161,-19.9468 0.0784,-6.88212 0.26041,-13.71617 0.67746,-20.57796 0.28473,-4.68477 -0.23383,-9.28434 1.92654,-13.65909 1.32645,-2.68606 7.25505,-2.11319 9.20926,-4.07271 1.4889,-1.49294 1.39926,-4.6455 1.60898,-6.585419 0.4641,-4.29292 -0.45572,-15.505327 1.69366,-18.779765 1.27995,-1.949926 3.50324,-3.122311 5.39854,-4.370433 4.13489,-2.722978 8.47923,-5.167638 12.82946,-7.526197 3.09857,-1.679945 6.23048,-3.086621 9.23044,-4.965861 2.1174,-1.32638 3.97264,-3.11204 6.05483,-4.513334 2.33068,-1.568524 4.67425,-2.820781 7.17688,-4.096538 1.78843,-0.911678 3.46622,-2.085433 5.31385,-2.893775 0.86213,-0.377182 -0.99224,-0.275016 1.07971,-1.107493 2.02114,-0.812064 4.2048,-0.968647 6.33005,-1.321847 1.52093,-0.25277 4.04083,-1.452992 5.46205,-0.42871 1.12473,0.810593 1.6519,2.825274 2.43464,3.941728 0.77837,1.110223 1.94901,1.916488 2.604,3.120035 1.94604,3.57586 2.66187,7.629758 3.57785,11.551283 0.61933,2.65149 1.57076,5.230119 2.39229,7.823909 2.55536,8.067918 5.09474,16.268358 6.66879,24.591131 0.65053,3.439686 1.39662,6.910226 1.31258,10.431866 -0.12213,5.11782 -1.09325,11.5887 -2.94273,16.37424 -1.40558,3.63693 -3.17085,7.05042 -4.25532,10.82486 -2.16747,7.54381 -3.21873,15.76437 -7.36742,22.57859 -1.17268,1.92615 -2.84835,3.48655 -4.31882,5.18022 -4.12147,4.74703 -8.87359,8.97893 -12.63893,14.01635 -1.63056,2.18141 -2.94073,4.58265 -4.44586,6.8474 -1.35763,2.04282 -2.88653,3.91733 -4.38234,5.859 -1.26431,1.64117 -2.48496,3.40393 -4.04361,4.78724 -6.24687,5.54409 -14.36032,7.58042 -22.18693,9.84836 -3.11801,0.90351 -6.16035,1.774 -9.35746,2.35789 -3.32737,0.60768 -6.60426,0.68967 -9.97142,0.91696 -0.88402,0.0597 -3.39475,0.68515 -4.23414,0.26198 -0.59781,-0.30137 -1.10088,-0.76214 -1.65132,-1.14322 z"
           id="path28" />
        <path
           style="fill:none;fill-opacity:1;stroke:#181818;stroke-width:1.765;stroke-dasharray:none;stroke-opacity:1"
           d="m 138.14749,80.402556 c -1.6249,1.419148 -1.19388,2.751246 -1.33376,4.560969"
           id="path29" />
        <path
           style="fill:none;fill-opacity:1;stroke:#181818;stroke-width:1.765;stroke-dasharray:none;stroke-opacity:1"
           d="m 136.09393,92.108649 c -0.7769,1.466394 -0.11839,6.952681 -1.20674,8.264521"
           id="path30" />
        <path
           style="fill:none;fill-opacity:1;stroke:#181818;stroke-width:1.765;stroke-dasharray:none;stroke-opacity:1"
           d="m 134.06153,105.0294 c -1.9792,1.35967 -4.96868,1.78454 -6.58409,3.71547"
           id="path31" />
        <path
           style="fill:none;fill-opacity:1;stroke:#181818;stroke-width:1.765;stroke-dasharray:none;stroke-opacity:1"
           d="m 124.87344,111.66246 c -0.73248,3.13593 -0.90746,6.58519 -2.03239,9.63401"
           id="path32" />
        <path
           style="fill:none;fill-opacity:1;stroke:#181818;stroke-width:1.765;stroke-dasharray:none;stroke-opacity:1"
           d="m 123.75139,130.91856 c -0.60618,2.54232 0.3821,6.14746 -1.10088,8.57415"
           id="path33" />
        <path
           style="fill:none;fill-opacity:1;stroke:#181818;stroke-width:1.765;stroke-dasharray:none;stroke-opacity:1"
           d="m 123.22212,157.52224 c -0.40485,1.85001 0.69392,4.25535 0.14819,6.09717"
           id="path34" />
        <path
           style="fill:none;fill-opacity:1;stroke:#181818;stroke-width:1.765;stroke-dasharray:none;stroke-opacity:1"
           d="m 125.16983,177.44522 c -0.47172,2.50747 -0.25248,5.12985 -0.40225,7.65719"
           id="path35" />
        <path
           style="fill:none;fill-opacity:1;stroke:#181818;stroke-width:1.765;stroke-dasharray:none;stroke-opacity:1"
           d="m 125.23334,194.67688 c -0.57237,1.88257 1.00854,4.82137 -0.25405,6.52588"
           id="path36" />
        <path
           style="fill:none;fill-opacity:1;stroke:#181818;stroke-width:1.765;stroke-dasharray:none;stroke-opacity:1"
           d="m 146.82749,74.841268 c 1.59022,-0.730639 2.94558,-1.862111 4.50936,-2.631786"
           id="path37" />
      </g>
      <g
         id="g39">
        <path
           style="fill:#e3e2db;stroke-width:0.264583"
           d="m 138.40859,90.423282 c 4.82974,-0.434962 9.64674,-1.171567 14.48078,-1.560018 3.44053,-0.276471 6.75822,-0.333843 10.16196,-0.988409 0.8018,-0.154194 5.55448,-1.594639 6.26653,-1.274212 0.96245,0.433101 -0.5289,7.02066 -0.67746,7.538103 -0.62686,2.183461 -1.52554,4.52496 -2.41346,6.609234 -2.39982,5.63323 -4.39673,10.54081 -10.5642,12.61114 -0.6987,0.23454 -2.8831,0.87772 -3.72605,0.75023 -3.48681,-0.52734 -8.61032,-5.32506 -10.14078,-8.47886 -0.0758,-0.15613 -1.85008,-5.4777 -2.18059,-5.787555"
           id="path5" />
        <path
           style="fill:#000000;fill-opacity:1;stroke:none;stroke-width:1.765;stroke-dasharray:none;stroke-opacity:1"
           d="m 151.29451,90.024655 c -0.22297,0.88573 -0.12123,8.262414 1.5243,8.133533 3.52752,-0.276286 5.26181,-6.59134 4.84809,-9.38393"
           id="path39" />
      </g>
      <g
         id="g40">
        <path
           style="fill:#e3e2db;stroke-width:0.264583"
           d="m 41.107899,83.123348 c -0.115715,-0.0515 -2.381665,-0.445182 -2.667513,0.23817 -0.439894,1.051624 1.339882,-0.344151 2.667513,-0.23817 1.499082,0.119666 2.889549,0.845453 4.36117,1.155129 2.115952,0.445262 4.588742,0.253939 6.753465,0.357256 4.039293,0.192784 8.086738,0.501248 12.130831,0.166719 2.358382,-0.195087 4.803259,-0.776348 7.176878,-0.65497 0.372592,0.01905 0.419963,1.566211 0.423416,1.667195 0.07255,2.122 -0.178454,4.438245 -0.486929,6.537788 -0.905364,6.162148 -4.926129,16.004665 -11.559219,18.005715 -4.44041,1.33956 -7.30554,-0.75258 -10.691223,-3.46539 -1.543994,-1.23714 -3.267707,-2.55724 -4.445852,-4.16799 -1.445802,-1.97668 -2.42353,-4.817763 -3.323807,-7.085578 -0.584499,-1.472366 -0.04371,-2.500035 -0.423415,-3.941725"
           id="path4" />
        <path
           style="fill:#000000;fill-opacity:1;stroke:none;stroke-width:1.765;stroke-dasharray:none;stroke-opacity:1"
           d="m 52.956451,85.547045 c -0.52238,2.022653 -0.410125,11.982223 2.138246,12.384879 4.115155,0.650219 5.909265,-9.225515 5.991318,-12.456329"
           id="path38" />
      </g>
      <path
         style="fill:#002b00;stroke-width:0.298121"
         d="m 30.667511,44.388707 c 0.204452,-0.725709 0.326848,-1.491558 0.613357,-2.177125 0.935663,-2.238864 3.282741,-4.251076 4.797326,-5.961522 4.50055,-5.082545 9.029701,-9.543596 14.216762,-13.55954 1.733524,-1.342134 3.342019,-2.915942 5.147826,-4.120457 4.127342,-2.753032 8.625627,-4.658995 12.902422,-7.042778 3.083437,-1.7186321 6.037021,-3.7908846 9.178467,-5.3624469 4.576135,-2.2892913 9.660774,-4.045273 14.479628,-5.4793397 3.355506,-0.99858193 6.802219,-0.59230658 10.186121,-1.30043007 3.85486,-0.80667493 7.66472,-1.90001743 11.52238,-2.65930623 4.22861,-0.8323043 9.22239,-1.5780092 13.42815,-0.1753389 1.61777,0.5395444 2.93041,1.8190786 4.42494,2.65930623 2.38565,1.34122127 5.39468,2.53173437 7.64507,4.03279427 4.34592,2.8988261 8.30864,6.5006049 12.70527,9.3075713 2.93419,1.873296 6.29611,3.414469 9.46324,4.63187 2.00821,0.771925 4.10513,1.432948 5.98024,2.615471 3.51082,2.214062 6.71108,4.982164 10.01088,7.583399 1.74263,1.373719 3.83154,2.506377 5.25736,4.368862 1.24025,1.620089 1.89994,3.597368 3.06678,5.245553 1.88711,2.665583 4.01049,5.087229 5.93643,7.714911 2.17009,2.960781 5.45177,4.733542 7.57935,7.729521 1.15952,1.632773 1.26808,3.898629 2.08104,5.742347 0.58055,1.316599 1.55387,2.429998 2.322,3.594449 0.53726,0.814477 1.8644,2.603317 1.07337,3.711341 -0.85234,1.193917 -2.55851,1.52743 -3.32966,2.703141 -0.68355,1.042163 -0.8647,1.978901 -1.66482,3.141486 -1.3953,2.027377 -5.15159,7.585924 -7.25076,8.986117 -1.11905,0.746431 -1.52316,-10.107702 -3.98684,-7.437291 -2.83714,3.075221 -4.08934,9.99536 -7.51363,11.966877 -2.97115,1.710639 -1.34541,-7.248907 -1.44578,-8.226312 -0.0723,-0.704376 -0.60666,-2.864212 -1.46767,-1.504995 -1.28686,2.03147 -1.93194,4.535884 -2.91345,6.794384 -1.35647,3.121261 -2.92311,6.04697 -4.644,8.898446 -0.55854,0.925495 -1.94812,3.714267 -2.38771,3.652892 -2.07686,-0.289944 -0.59904,-12.719485 -3.1325,-13.062745 -1.72102,-0.233176 -6.39372,10.167126 -7.36031,12.039938 -0.75548,1.463788 -1.99611,4.361553 -2.38771,3.72595 -1.20792,-1.960542 -0.28565,-12.198744 -0.98576,-15.955838 -0.10462,-0.561463 -0.008,-1.845151 -0.46001,-1.636495 -2.78359,1.285421 -6.86255,15.109569 -9.81373,16.379573 -1.21577,0.523196 -0.92243,-3.871718 -0.92004,-4.164299 0.0119,-1.460838 0.2574,-12.44822 -1.62101,-12.653622 -1.35808,-0.148504 -3.66548,6.021742 -3.68015,6.049191 -2.22651,4.166621 -4.64653,8.196468 -7.44793,11.849987 -0.44934,0.586033 -0.97134,1.7025 -1.5991,1.431933 -1.07978,-0.46538 -0.97165,-2.733155 -1.00767,-3.492165 -0.21865,-4.608916 0.95795,-14.822264 -3.17631,-17.606945 -2.37335,-1.598597 -9.00792,17.203541 -10.09851,19.360335 -0.28904,0.571628 -2.47697,5.372728 -4.05254,3.769788 -4.83271,-4.916705 2.00443,-18.401658 0.3724,-22.384933 -0.55798,-1.361877 -2.71804,0.05142 -3.74586,0.949753 -4.408,3.852716 -6.78762,10.213951 -9.025132,15.89739 -0.314376,0.798545 -0.607616,1.609228 -0.941943,2.396299 -0.162673,0.382968 -0.22438,0.918294 -0.54764,1.110478 -0.357588,0.212595 -0.691023,-1.049774 -0.985753,-2.922315 -0.80441,-5.110721 -0.968578,-10.433636 -1.577208,-15.575934 -0.202072,-1.70732 -0.700631,-4.017921 -1.314338,-3.229161 -1.885891,2.423824 -5.104961,10.446907 -6.352636,12.887408 -0.593392,1.160696 -1.24715,2.276562 -1.883885,3.404498 -1.583794,2.805591 -2.374797,2.780594 -3.176319,-1.636496 -0.41412,-2.282168 -0.548202,-4.623564 -0.788604,-6.940498 -0.08727,-0.841065 -0.110189,-10.418465 -3.022978,-8.869225 -2.197971,1.169045 -7.080542,12.079822 -8.674635,14.816135 -0.275309,0.472581 -1.66316,3.765392 -2.519148,2.04562 -1.134773,-2.27988 -3.109225,-15.939637 -5.892618,-16.321127 -2.337116,-0.320325 -7.007761,16.083767 -9.134652,16.861756 -1.02895,0.376376 -1.593139,-1.800422 -2.059133,-2.951541 -1.69945,-4.198061 -3.888731,-13.655999 -7.18505,-16.306513 -1.095709,-0.881038 -2.487748,1.098448 -2.913449,1.943339 -1.243268,2.467518 -4.098665,11.519592 -5.804997,13.311143 -0.680034,0.713998 -1.198942,-1.677233 -1.511478,-2.688529 -0.6926,-2.241108 -2.159693,-11.84318 -3.614429,-13.121194 -0.962062,-0.845185 -4.469512,12.343287 -5.147827,12.259112 -1.208014,-0.149912 0.0441,-9.095356 0.131434,-10.315773 0.06968,-0.973735 0.06084,-7.95621 -0.832415,-8.10942 -1.238337,-0.212401 -2.321446,2.880298 -2.760111,-0.496795 -0.152234,-1.17199 0.435979,-5.1818 0.547642,-5.990744 1.150924,-8.338 2.175197,-11.52737 6.79075,-18.542086 0.624793,-0.949561 2.542727,-4.284241 3.833487,-4.222746 0.617968,0.02944 1.473638,4.599079 1.445771,4.64648 -0.413846,0.703916 -0.920038,1.324785 -1.380055,1.987176 z"
         id="path3" />
      <path
         style="fill:#000000;stroke-width:0.263296"
         id="path2"
         d="m 120.0318,-2.8821453 c -4.00487,-0.4256115 -8.02825,-0.1439456 -12.03459,0.083112 C 99.279794,-2.2058265 90.620983,-0.75555314 82.164219,1.871704 79.985879,2.5484469 77.834668,3.344321 75.669891,4.0806295 68.626821,6.473871 61.759,9.5963822 55.082485,13.182298 c -4.069137,2.185508 -9.866775,5.538292 -13.583876,8.507628 -2.379964,1.90119 -4.549384,4.154361 -6.824075,6.231542 -4.561508,4.681875 -8.812401,8.729605 -12.833169,14.111744 -2.028832,2.715764 -3.869095,5.630024 -5.662365,8.573125 -3.46007,5.678644 -6.8342481,12.15743 -9.5147354,18.416803 -1.3103657,3.059917 -2.3972176,6.249396 -3.5958263,9.374094 -1.5720929,5.324856 -3.95958223,12.551662 -4.6745642,18.239198 -0.689455,5.484478 -0.5017345,14.416168 0.023308,19.891448 0.77160512,8.04649 1.78106092,11.36885 3.5336382,19.09512 0.9540052,2.93525 1.7747347,5.93747 2.8620156,8.80572 3.2391601,8.54493 7.6787221,16.45857 12.8051011,23.54257 1.671996,2.31048 3.380773,4.59906 5.268721,6.65816 2.209643,2.40995 4.663767,4.47868 6.99565,6.71803 9.887057,7.97917 10.38093,8.85411 23.865176,16.33542 3.229205,1.79162 6.643726,3.07634 10.03702,4.36366 6.412543,2.43273 14.745569,4.79212 21.386568,6.11222 3.573544,0.71035 7.186477,1.10077 10.779713,1.65114 9.332095,0.53934 12.330365,1.04505 21.683185,0.25121 3.60655,-0.30612 7.1994,-0.8431 10.77754,-1.46379 3.51991,-0.61059 7.03381,-1.30777 10.50623,-2.22826 8.28673,-2.19669 11.75602,-3.90768 19.71621,-7.16557 3.06386,-1.67963 6.19195,-3.20105 9.19158,-5.03889 10.9617,-6.71604 21.87838,-15.8655 29.94757,-27.08952 1.88129,-2.61679 3.47309,-5.51209 5.20962,-8.26814 5.94715,-11.57775 10.68475,-24.13826 12.64296,-37.60336 1.26219,-8.67905 0.94262,-11.20669 0.94331,-20.01006 -0.33469,-3.417331 -0.49974,-6.864554 -1.00412,-10.251987 -0.51424,-3.45359 -1.22449,-6.867879 -2.0464,-10.23535 -1.68273,-6.894244 -3.7008,-12.933588 -6.7149,-19.16539 -3.8327,-7.924211 -5.8825,-10.215951 -10.7799,-17.167223 -7.04769,-8.409052 -15.17085,-15.231591 -23.81883,-21.067984 -5.755,-3.883977 -11.54374,-7.703434 -17.4289,-11.29795 -5.94398,-3.6304404 -11.97738,-6.2489411 -18.17564,-9.1533742 -6.40924,-2.28496695 -10.66615,-4.1490521 -17.24876,-5.2191263 -2.55727,-0.4157126 -5.15215,-0.3750511 -7.72682,-0.5877143 -3.00552,-0.2482505 -6.00905,-0.5300062 -9.01356,-0.7950094 0,0 0.29295,0.2583978 0.29295,0.2583978 v 0 c 3.00369,0.266332 6.0505,0.1369642 9.01108,0.7989961 3.77797,0.8448128 7.43359,2.349451 11.10734,3.6997904 6.67036,2.4517902 14.4041,5.9297481 20.96858,8.7879625 12.25511,5.8844864 6.18414,2.7747764 18.21253,9.3300874 0.23609,0.116492 0.53849,-0.235581 0.76262,-0.08916 8.42533,5.504196 16.25997,12.225442 23.1006,20.293639 5.04933,7.00146 6.80571,8.795551 10.73713,16.79976 4.36718,8.891322 7.35732,18.823036 8.8779,28.963606 0.49913,3.328705 0.66456,6.716696 0.99684,10.075045 0.003,3.322116 0.16195,6.649234 0.01,9.966344 -0.59275,12.89593 -3.72498,26.60789 -8.59235,38.12594 -1.30666,3.09201 -2.88692,6.00764 -4.33036,9.01147 -4.39659,7.15444 -5.56762,9.58395 -10.79824,15.97481 -6.58017,8.03977 -14.18018,14.81597 -22.49084,20.09657 -2.9372,1.86628 -6.0313,3.35593 -9.04694,5.03389 -8.61296,3.69038 -10.33807,4.76199 -19.36917,7.25983 -13.92068,3.85019 -28.2701,4.93387 -42.497854,3.47449 -3.533276,-0.52571 -7.085384,-0.89445 -10.599822,-1.57713 -6.963069,-1.35256 -14.510727,-3.47669 -21.204034,-6.12724 -3.473238,-1.37541 -6.805036,-3.2215 -10.252407,-4.68694 -0.632405,-0.26882 -1.385512,-0.10983 -1.96826,-0.50793 -2.590804,-1.76984 -4.968642,-3.95197 -7.45296,-5.92795 -2.18978,-2.11895 -4.486908,-4.08853 -6.569319,-6.35686 -1.88059,-2.04848 -3.609415,-4.29323 -5.297182,-6.56906 -7.086603,-9.55511 -12.377245,-19.99784 -15.984926,-32.0314 -2.0191193,-8.21863 -2.8444183,-10.37794 -3.7522195,-18.9667 -0.3469153,-3.2822 -0.5944778,-6.59126 -0.5926357,-9.89953 0.00538,-9.65526 1.939553,-19.029765 4.5801272,-28.086368 2.949474,-8.368458 3.568707,-10.939609 7.524139,-18.818432 6.108621,-12.167764 14.217072,-22.631753 23.416287,-31.54022 2.317606,-2.005164 4.580878,-4.103266 6.952818,-6.015491 2.078559,-1.675706 4.223321,-3.234374 6.390305,-4.741552 4.196255,-2.91857 8.704888,-5.684973 13.197174,-7.895436 4.896924,-2.409566 8.538141,-3.611146 13.571772,-5.4736718 2.243418,-0.65468 4.475088,-1.3698284 6.730259,-1.9640396 8.785898,-2.3149847 17.770958,-3.546082 26.766378,-3.6528504 1.22172,0.012798 2.44367,0.00731 3.66516,0.038399 2.85501,0.072655 5.72126,0.3918642 8.57459,0.093194 z" />
      <path
         style="fill:#000000;stroke-width:0.264583"
         d="m 77.309853,145.01201 c 3.76982,-4.30312 9.533781,-5.86188 14.883027,-7.19276 3.546387,-0.88233 7.267632,-1.90597 10.94527,-1.97681 2.46784,-0.0475 4.96262,0.46079 7.36741,0.95268 8.46509,1.73149 16.75182,5.04991 22.69503,11.53937 2.95955,3.23158 4.80576,8.18333 4.80576,12.57542 0,0.23439 0.27964,3.78486 0.10585,3.79882 -1.83727,0.14764 -3.76665,-1.63368 -5.22917,-2.5127 -2.03725,-1.22444 -4.22892,-2.18157 -6.28771,-3.37011 -1.50201,-0.86712 -2.81401,-2.05011 -4.25532,-3.01286 -10.58723,-7.07194 -26.707799,-14.67966 -39.758634,-11.46793"
         id="path6" />
      <g
         id="g12"
         transform="translate(23.245466,-18.446325)">
        <path
           style="fill:#aca793;stroke:#363636;stroke-width:1.765;stroke-dasharray:none;stroke-opacity:1"
           d="m 150.55482,174.24055 c 0.59791,0.14752 1.18999,0.32105 1.79372,0.44256 1.81929,0.36612 11.21998,-1.51846 13.85847,-1.81737 0.34408,-0.039 1.88246,0.0683 2.08038,-0.27691 0.41583,-0.72531 1.37423,-7.3635 1.58464,-8.87219 0.0774,-0.55522 -0.166,-2.74628 0.33687,-3.14793 1.14714,-0.91622 4.12612,-0.0401 5.50786,0.0493 1.90344,0.12309 3.76026,0.24902 5.65085,0.50478 1.38909,0.18791 2.63054,-0.14449 3.9655,0.48505 0.48047,0.22657 0.9451,1.34421 1.14248,1.80786 1.76874,4.15489 -0.53137,11.32156 -1.06708,15.62388 -0.72596,5.8303 0.59533,21.36776 -7.21026,23.13017 -1.78433,0.40289 -11.22307,0.56582 -12.78659,-0.46121 -0.77206,-0.50714 -0.22966,-6.09107 -0.003,-7.13968 0.1849,-0.85708 1.15493,-2.56211 0.90847,-3.42336 -0.0854,-0.29849 -0.32315,-0.61456 -0.5702,-0.801 -0.74034,-0.5587 -2.03131,-0.0188 -2.8185,0.19107 -2.14073,0.57078 -4.30212,0.57065 -6.43606,1.05432 -1.84737,0.41873 -4.63377,1.11592 -6.52711,0.64787 -0.83882,-0.20735 -1.68629,-0.51299 -1.69055,0.55792"
           id="path8" />
        <path
           style="fill:#002b00;fill-opacity:1;stroke:none;stroke-width:1.765;stroke-dasharray:none;stroke-opacity:1"
           d="m 149.60085,171.90775 c 0.53633,0.22229 1.07327,0.44311 1.60898,0.66688 3.00569,1.25547 -0.96215,0.82912 -0.48693,2.72706 0.13151,0.52522 0.55282,0.99719 0.69864,1.5362 0.157,0.58035 -0.34085,0.95698 -0.23288,1.57192 0.0698,0.39776 0.57077,1.1932 0.42341,1.60766 -0.10587,0.29778 -0.50117,0.48948 -0.65629,0.76214 -0.34703,0.61001 0.0544,1.31394 0,1.94109 -0.0408,0.4703 -0.66879,0.5638 -0.80449,1.01223 -0.13674,0.4519 0.45975,0.83843 0.40225,1.22658 -0.0725,0.48918 -0.94172,0.39258 -1.07971,0.80978 -0.19882,0.60111 0.48509,0.65347 0.55044,1.13131 0.0144,0.10512 -0.63542,0.40606 -0.69863,0.65497 -0.11993,0.47221 0.0885,0.93406 -0.0212,1.38139 -0.0858,0.34995 -0.44045,0.6226 -0.3599,1.01223 0.0499,0.24142 0.37094,0.52036 0.33873,0.77405 -0.0372,0.29293 -0.46042,0.26743 -0.48693,0.53588 -0.0331,0.33556 0.14185,0.47384 0.31756,0.72643 0.32181,0.46259 -0.7934,0.44027 -1.05853,0.61924 -0.62435,0.42143 -0.74002,1.19943 -1.71483,0.95268 -1.55517,-0.39365 -0.0935,-0.87736 -0.21171,-1.10749 -0.25675,-0.49992 -0.74964,-0.65097 -1.03737,-1.07177 -0.10738,-0.15705 0.53024,-0.60463 0.61395,-0.71451 0.20224,-0.26543 0.13535,-0.66961 0.10586,-0.9765 -0.0547,-0.56925 -1.08401,-1.31684 -1.0162,-1.58384 0.11244,-0.4427 0.47584,-0.65799 0.67747,-1.03604 0.25264,-0.47372 -0.5797,-0.74526 -0.5081,-1.00032 0.11178,-0.39823 0.60116,-0.44649 0.78332,-0.80978 0.19789,-0.39467 -0.45024,-0.77247 -0.52927,-1.08367 -0.0819,-0.32248 0.49834,-0.19062 0.55044,-0.38108 0.0656,-0.23982 -0.43265,-0.5788 -0.31756,-0.78596 0.16435,-0.29584 0.63154,-0.13729 0.78331,-0.48825 0.24173,-0.559 -0.62186,-1.2326 -0.44458,-1.63147 0.19762,-0.44466 0.88091,-0.72921 0.97385,-1.21467 0.0391,-0.20408 -0.0505,-1.02234 0.0847,-1.2504 0.14386,-0.24275 0.81694,0.13832 1.0162,-0.26199 0.18811,-0.37789 -0.9467,-0.81078 -0.63512,-1.09558 0.51961,-0.47496 -0.0441,-0.96947 -0.31756,-1.48857 -0.16383,-0.31102 0.3441,-0.54506 0.42341,-0.78596 0.11432,-0.34724 -0.19891,-0.74815 -0.10585,-1.03605 0.0572,-0.17685 0.46391,0.0331 0.57161,-0.0476 0.17868,-0.13402 -0.0919,-0.29346 -0.0635,-0.35726 0.31885,-0.71741 1.25498,-0.9443 1.86302,-1.44093 z"
           id="path10" />
      </g>
      <g
         id="g11"
         transform="translate(-21.763504,-20.828033)">
        <path
           style="fill:#aca793;stroke:#363636;stroke-width:1.765;stroke-dasharray:none;stroke-opacity:1"
           d="m 66.910521,190.37157 c -0.594522,-0.16063 -1.182643,-0.34714 -1.783555,-0.48189 -1.8108,-0.40604 -11.250657,1.27137 -13.895082,1.51219 -0.344854,0.0314 -1.880503,-0.10967 -2.085966,0.2311 -0.431678,0.71599 -1.535814,7.3315 -1.779348,8.8352 -0.08959,0.55339 0.105572,2.74927 -0.406008,3.13976 -1.16701,0.89078 -4.126005,-0.0506 -5.505445,-0.1704 -1.900273,-0.16491 -3.753875,-0.33164 -5.638384,-0.62891 -1.384622,-0.21841 -2.633081,0.0866 -3.953875,-0.57213 -0.475372,-0.23708 -0.915314,-1.36467 -1.102451,-1.83255 -1.67695,-4.19278 0.780193,-11.30714 1.410377,-15.59664 0.853988,-5.81292 -0.125328,-21.37568 7.717128,-22.96603 1.792758,-0.36355 11.232798,-0.31889 12.773357,0.74227 0.760722,0.52399 0.09567,6.09464 -0.153996,7.13802 -0.203701,0.8528 -1.210989,2.53609 -0.983527,3.40255 0.07882,0.3003 0.309559,0.62152 0.552449,0.81335 0.727876,0.57484 2.030406,0.0635 2.82202,-0.12905 2.152763,-0.52357 4.313628,-0.47591 6.457688,-0.91254 1.85613,-0.37801 4.657187,-1.01376 6.539777,-0.50419 0.834058,0.22574 1.674603,0.54995 1.70241,-0.52061"
           id="path8-6" />
        <path
           style="fill:#002b00;fill-opacity:1;stroke:none;stroke-width:1.765;stroke-dasharray:none;stroke-opacity:1"
           d="m 71.311478,170.8598 c -0.522211,0.28184 -1.045117,0.56239 -1.566632,0.8455 -2.149777,1.16707 0.322273,1.64995 0.211706,2.33408 -0.0802,0.49623 -1.682475,1.01475 -1.354926,1.78628 0.144748,0.34095 0.763633,0.80708 0.825659,1.19085 0.02905,0.17975 -2.592866,0.16459 -2.709855,1.2504 -0.107442,0.9972 1.376098,1.26992 1.376098,1.86964 0,0.15352 -0.296391,0.28271 -0.296391,0.47634 0,1.11329 1.171929,1.72373 1.354928,2.69133 0.02328,0.12307 -0.8979,0.30127 -1.037367,0.92887 -0.02832,0.12746 0.373766,1.42011 0.359902,1.42902 -0.342321,0.22006 -1.454671,-0.0559 -1.48195,0.61925 -0.01302,0.3222 0.829313,0.69163 0.529267,0.80978 -0.553431,0.21791 -1.295823,-0.027 -1.545463,0.69069 -0.141898,0.40796 0.734404,0.99005 0.381074,1.23849 -0.219564,0.15438 -0.02421,-0.5699 -0.402246,-0.0595 -0.238376,0.32181 0.865119,1.07754 0.465757,1.10749 -1.149183,0.0862 -0.484857,0.91922 0.190537,1.35758 0.700146,0.45442 1.847718,0.19197 1.164391,0.53588"
           id="path9" />
        <path
           style="fill:#002b00;fill-opacity:1;stroke:none;stroke-width:1.765;stroke-dasharray:none;stroke-opacity:1"
           d="m 70.676356,170.65735 c -1.25862,1.55891 2.59093,0.31863 2.54049,1.22658 -0.02394,0.43109 -0.838404,0.63209 -1.100879,0.88123 -0.529619,0.50273 0.360887,0.8421 0.232879,1.28613 -0.100042,0.34701 -0.625425,0.53771 -0.613953,0.9765 0.01125,0.42979 0.534993,1.38235 0.402244,1.77437 -0.187047,0.55238 -0.622747,0.12971 -0.423413,1.03604 0.06275,0.2853 0.538956,1.28647 0.423413,1.61956 -0.131339,0.37864 -0.634527,0.45273 -0.656291,0.88123 -0.02252,0.44329 0.629838,0.82164 0.550439,1.23849 -0.05476,0.28747 -0.313293,0.38333 -0.381074,0.63116 -0.09118,0.33339 0.376989,0.54023 0.359902,0.85741 -0.02122,0.39388 -0.182523,1.3573 -0.359902,1.71483 -0.183798,0.37047 -0.722143,0.33659 -0.762146,0.79787 -0.03094,0.35681 0.232879,0.64565 0.232879,0.9765 0,0.0892 -0.793348,1.76899 -0.868,2.01255 -0.03764,0.12279 0.353017,1.05518 0.317561,1.08367 -0.244515,0.19649 -0.763789,-0.0766 -0.910344,0.23817 -0.301932,0.64848 0.803507,1.39589 0.486928,1.88155 -0.336457,0.51616 -1.747054,0.96363 -2.26527,0.86933 -0.213492,-0.0389 -0.431316,-0.0684 -0.635121,-0.14291 -0.0926,-0.0339 -0.169564,-0.3226 -0.190537,-0.22626 -0.05086,0.23364 -0.04234,0.47634 -0.06351,0.71451"
           id="path11" />
      </g>
    </g>
  </g>
</svg>
