<?xml version="1.0" encoding="UTF-8" standalone="no"?>
<!-- Created with Inkscape (http://www.inkscape.org/) -->

<svg
   width="512"
   height="512"
   viewBox="0 0 512 512"
   version="1.1"
   id="svg1"
   inkscape:version="1.3 (0e150ed6c4, 2023-07-21)"
   sodipodi:docname="pumpkin.svg"
   inkscape:export-filename="pumpkin.png"
   inkscape:export-xdpi="96"
   inkscape:export-ydpi="96"
   xmlns:inkscape="http://www.inkscape.org/namespaces/inkscape"
   xmlns:sodipodi="http://sodipodi.sourceforge.net/DTD/sodipodi-0.dtd"
   xmlns="http://www.w3.org/2000/svg"
   xmlns:svg="http://www.w3.org/2000/svg">
  <sodipodi:namedview
     id="namedview1"
     pagecolor="#ffffff"
     bordercolor="#000000"
     borderopacity="0.25"
     inkscape:showpageshadow="2"
     inkscape:pageopacity="0.0"
     inkscape:pagecheckerboard="0"
     inkscape:deskcolor="#d1d1d1"
     inkscape:document-units="mm"
     inkscape:zoom="0.73228114"
     inkscape:cx="357.78608"
     inkscape:cy="361.88287"
     inkscape:window-width="1920"
     inkscape:window-height="1028"
     inkscape:window-x="0"
     inkscape:window-y="30"
     inkscape:window-maximized="1"
     inkscape:current-layer="layer1" />
  <defs
     id="defs1" />
  <g
     inkscape:label="Layer 1"
     inkscape:groupmode="layer"
     id="layer1">
    <g
       id="g1"
       transform="matrix(2.4472942,0,0,2.3221519,-0.56618678,24.348098)">
      <ellipse
         style="fill:#ff6600;stroke-width:0.258187"
         id="path1"
         cx="105.81508"
         cy="106.24271"
         rx="102.70297"
         ry="102.2211" />
      <path
         style="fill:#803300;stroke:none;stroke-width:0.264583"
         d="m 88.267825,11.35403 c -10.471489,8.348655 -18.386293,20.141134 -23.732392,32.331681 -2.43155,5.54459 -4.050488,11.448031 -5.906635,17.195929 -4.333835,13.420503 -8.65972,26.889593 -11.453368,40.7391 -1.584817,7.85674 -2.223744,15.85717 -3.74722,23.72181 -1.338429,6.90936 -2.40275,13.79264 -2.879219,20.82803 -0.22406,3.3084 0.17757,6.6426 0.148196,9.95553 -0.033,3.72167 -0.04056,7.32607 0.423415,11.02731 0.614696,4.90362 0.889558,9.54875 2.201754,14.32597 0.262956,0.95732 0.652939,1.87836 0.868,2.84614 0.0209,0.0941 0.550717,2.02637 0.592783,1.98873 0.665464,-0.59552 0.9109,-3.18404 1.079706,-3.81073 1.16408,-4.32165 0.198689,-8.77589 0.402244,-13.21848 0.183083,-3.99581 0.760862,-7.95462 1.249074,-11.92045 0.818499,-6.64879 1.423119,-13.32806 2.286439,-19.97061 1.789385,-13.76788 3.098575,-27.52503 6.414733,-41.048735 1.798627,-7.335033 4.653783,-14.12907 7.515611,-21.078103 1.860066,-4.516577 3.504502,-9.107455 5.398537,-13.611457 2.704806,-6.432016 5.604952,-12.883999 8.616487,-19.172746 1.85307,-3.869615 4.221247,-7.47224 6.160685,-11.301203 2.250157,-4.44241 4.648555,-8.776803 6.859318,-13.242294 1.234329,-2.493205 2.408343,-4.849075 4.212976,-6.990312 0.244382,-0.289966 2.296054,-2.2701866 1.757169,-1.1789455"
         id="path10" />
      <path
         style="fill:#000000;stroke-width:0.250606"
         id="path3"
         d="m 138.91922,16.324241 c -0.2422,-0.124776 -0.47562,-0.273377 -0.72659,-0.374326 -2.21831,-0.892293 -4.57622,-1.443908 -6.85629,-2.087119 -1.6915,-0.477177 -6.27351,-1.754394 -7.84221,-2.192144 -6.83685,-1.9332652 -13.79285,-3.1512485 -20.82257,-3.7501143 -2.098,-0.1787297 -4.198139,-0.3474609 -6.301406,-0.4142242 -2.178062,-0.069138 -4.357889,0.00447 -6.536833,0.0067 -2.431475,0.2684804 -4.872263,0.447348 -7.294429,0.8054417 -8.101242,1.1976903 -16.123969,3.2075768 -23.856073,6.1705768 -2.556661,0.979732 -5.093645,2.037658 -7.565856,3.2573 -2.436961,1.202253 -4.762927,2.666576 -7.144392,3.999864 -2.245207,1.595317 -4.56009,3.07489 -6.735621,4.785951 -2.177265,1.712424 -4.262463,3.570136 -6.308375,5.473188 -4.177981,3.886247 -7.44107,7.348609 -10.949029,11.983511 -4.015065,5.304915 -5.177793,7.698447 -8.530723,13.469829 -3.6396364,7.113405 -6.5308547,14.667839 -8.4072059,22.594348 -0.6361589,2.68741 -1.1366439,5.4152 -1.5736681,8.151566 -0.4284108,2.682425 -0.81634862,5.379151 -1.02093884,8.094191 -0.20824212,2.763486 -0.14377165,5.54412 -0.21565801,8.31618 0.0862661,2.70909 0.0316922,5.42832 0.25881375,8.12727 0.7222448,8.58275 2.7968732,17.06492 5.8032113,24.99558 2.3528856,6.20686 4.4445888,9.98579 7.3863188,15.82925 1.491263,2.46596 2.887918,5.00639 4.47379,7.39789 6.740769,10.16509 15.116667,18.91677 24.461461,26.05681 2.380866,1.81914 4.891024,3.41855 7.336535,5.12782 4.925029,2.97102 9.712439,6.24488 14.775087,8.91307 2.844559,1.49919 5.875809,2.52783 8.884036,3.55613 5.479632,1.8731 14.283446,4.11363 19.946568,4.79687 8.738347,1.05425 13.705177,0.44153 22.483397,0.0231 10.18181,-1.46777 12.13187,-1.35269 21.99082,-4.32375 3.34531,-1.00814 6.69631,-2.06095 9.90509,-3.51973 3.28292,-1.49249 6.43599,-3.34048 9.5112,-5.30731 8.01391,-5.12552 10.63367,-7.9184 17.8541,-14.28077 7.40842,-7.58001 8.31022,-7.9386 14.60642,-16.5849 2.0614,-2.83083 4.06863,-5.72344 5.85425,-8.77822 1.78434,-3.05256 3.33204,-6.27361 4.83515,-9.50884 1.4464,-3.11314 2.85527,-6.25974 4.00683,-9.52215 1.14034,-3.23068 1.90319,-6.61146 2.8548,-9.91719 1.43695,-8.49325 2.36193,-12.01483 2.52476,-20.67666 0.13201,-7.022955 -0.55661,-14.509348 -1.91586,-21.361532 -1.96717,-9.916822 -3.36793,-12.584565 -6.81888,-22.031251 -4.41809,-9.318313 -5.34921,-12.316245 -11.32022,-20.673131 -2.36718,-3.313033 -4.79069,-6.629584 -7.64653,-9.423372 -3.59898,-3.520789 -7.60359,-6.507916 -11.61615,-9.42079 -10.1668,-7.380461 -19.91606,-12.16221 -30.92704,-18.2137104 -7.86672,-3.02628 -15.87429,-6.50147507 -24.11548,-8.1691641 -3.25438,-0.658557 -6.59087,-0.631113 -9.88548,-0.957302 -13.278223,-1.314638 -6.561539,-1.129008 -18.938094,-0.771039 0,0 0.290867,0.23428 0.290867,0.23428 v 0 c 7.359892,-0.209788 11.460637,-0.706068 18.933807,0.777515 4.36094,0.86574 8.62327,2.26974603 12.90228,3.54605003 13.61041,4.05958607 11.99643,3.83041037 25.60132,9.58444247 2.36815,1.027943 4.84131,1.795109 7.10447,3.083828 7.28237,4.146821 15.58077,9.951923 21.70593,16.123995 5.35122,5.392213 10.09635,12.340531 13.84383,19.182235 1.83948,3.358306 3.31788,6.94635 4.97682,10.419524 1.33311,3.623567 2.84301,7.17245 3.99931,10.870703 4.24578,13.579448 6.03603,28.157085 4.52858,42.476369 -0.36304,3.44859 -1.0925,6.8369 -1.63875,10.25534 -2.35047,8.43333 -2.87617,11.49125 -6.41871,19.4653 -4.30846,9.69809 -10.24489,19.04097 -16.8278,26.97629 -2.35932,2.84404 -4.94495,5.44402 -7.41743,8.16602 -7.43831,6.5977 -9.43133,8.93961 -17.81602,14.07126 -8.9299,5.46534 -19.4133,9.55739 -29.396,11.77223 -3.61026,0.801 -7.28464,1.18796 -10.92696,1.78195 -3.79332,0.15708 -7.5846,0.54331 -11.379989,0.47123 -7.291888,-0.13848 -14.380736,-1.10821 -21.485216,-2.90258 -11.497863,-2.90401 -8.16136,-2.77432 -19.057941,-7.00903 -0.276341,-0.10739 -0.584793,0.0274 -0.87719,0.0411 -2.501239,-1.7079 -5.066025,-3.30522 -7.503716,-5.1237 -9.591153,-7.15484 -18.20965,-15.92145 -25.254297,-26.12416 -1.66046,-2.40483 -3.135168,-4.96215 -4.702752,-7.44322 -1.387638,-2.59091 -2.871391,-5.12079 -4.162914,-7.77272 -3.851952,-7.90936 -6.7633568,-16.02492 -8.6878428,-24.7681 -0.6233195,-2.83181 -1.187257,-5.68641 -1.5658253,-8.57151 -0.3598853,-2.74273 -0.430619,-5.52299 -0.6459285,-8.28448 0.177624,-6.87818 0.037761,-9.597245 1.0494527,-16.399468 1.2005213,-8.071874 3.4719112,-16.007363 6.5092759,-23.448324 0.99913,-2.447679 2.184572,-4.795441 3.276858,-7.193161 3.34949,-6.063901 4.15853,-7.979643 8.251473,-13.543463 6.59316,-8.962536 14.623924,-16.462697 23.586795,-22.313294 6.369385,-3.634319 7.67283,-4.673395 14.45258,-7.352262 10.220865,-4.038546 20.9772,-6.078027 31.810644,-6.269308 5.482964,0.101597 7.560693,0.01845 12.971723,0.588054 7.31683,0.770222 14.52822,2.434707 21.62248,4.539237 5.38024,1.618988 10.74273,3.31297 16.01248,5.341674 z" />
      <path
         style="fill:#803300;stroke:none;stroke-width:0.264583"
         d="m 127.64539,18.249074 c 4.23055,18.34384 4.24879,37.273058 4.59405,55.982036 0.1652,8.951608 0.92317,17.779574 0.59278,26.74656 -0.42733,11.59817 -0.29455,23.19519 -0.7198,34.79675 -0.20272,5.53036 -0.14354,11.14179 -1.05854,16.61242 -0.75325,4.50356 -2.29363,8.81743 -3.23912,13.27801 -0.69008,3.25561 -0.87241,6.55928 -1.05854,9.87218 -0.45541,8.10601 -3.16824,15.645 -4.65756,23.57891 -0.28239,1.50432 -1.71352,7.04126 -1.20673,8.32407 0.1403,0.35513 0.41949,-1.4629 0.42341,-1.61957 0.0219,-0.87413 0.52658,-1.54301 0.82566,-2.35789 0.59422,-1.61901 0.98859,-3.31061 1.58781,-4.93013 0.71438,-1.9308 1.67649,-3.77384 2.4558,-5.68037 2.84697,-6.96492 4.14884,-14.23334 4.99629,-21.69736 0.30729,-2.70642 0.63087,-5.40832 1.27025,-8.06208 0.83178,-3.45237 2.00268,-6.78623 2.51932,-10.31279 0.81521,-5.56465 1.03627,-11.14102 1.48195,-16.7315 0.20575,-2.58088 0.73327,-5.12988 0.84683,-7.71673 0.4337,-9.88042 0.0731,-19.77157 -0.0212,-29.652261 -0.0208,-2.186625 0.0963,-4.427111 0,-6.621147 -0.15908,-3.623929 -0.86828,-7.205993 -1.07971,-10.824861 -0.41942,-7.178826 0.19108,-14.40357 -0.3599,-21.566351 -0.34861,-4.531961 -1.53439,-9.27998 -1.86303,-13.77818 -0.29036,-3.974369 -0.75743,-7.886427 -1.24907,-11.837087 -0.52753,-4.239096 -1.45922,-8.410312 -2.11707,-12.634958 -0.0399,-0.256053 -0.93864,-3.28972 -1.12205,-3.310574 -0.61186,-0.06957 -1.52792,0.672667 -1.84186,0.142903 -2.0305,-3.426474 1.94156,-1.932862 -0.0847,-2.584153"
         id="path11" />
      <path
         style="fill:#000000;stroke-width:0.264583"
         d="m 44.627887,46.345726 c -0.0141,0.520007 -0.179004,1.058092 -0.04234,1.560017 0.376645,1.38334 3.11929,3.834083 3.895413,4.56097 5.752439,5.38752 13.743551,7.46447 21.213077,9.252934 8.940678,2.140712 18.001432,1.853634 27.056199,0.785963 0.267277,-0.03151 2.866107,-0.367347 3.302634,-0.440616 0.59516,-0.09989 2.99763,-1.166 3.13327,0.130996 0.11376,1.087866 -4.580588,11.001353 -5.737269,12.599233 C 93.044308,80.87983 86.172055,88.353132 78.670427,90.621669 68.400329,93.727409 57.326659,91.268051 47.972863,86.37032 38.947791,81.644714 33.458068,74.067431 33.619104,63.756007 c 0.05745,-3.678581 1.140597,-7.200325 2.646341,-10.515237 0.29931,-0.658934 0.48428,-1.300213 0.995026,-1.79819 0.205476,-0.20034 1.069795,-0.374219 0.783315,-0.357257 -0.335076,0.01984 -0.663347,0.103209 -0.995024,0.154811"
         id="path4" />
      <path
         style="fill:#000000;stroke-width:0.264583"
         d="m 122.19322,63.98765 c 0.0353,0.73833 -0.16474,1.527127 0.10585,2.214989 0.70591,1.794467 11.65568,1.526121 12.78713,1.464751 10.28233,-0.557725 20.8972,-2.953234 30.54937,-6.466337 1.11326,-0.405193 1.69217,-1.318522 2.54049,-2.083993 1.11719,-1.008094 2.68934,-1.613265 4.17063,-1.869641 1.0458,-0.181004 -0.0708,2.15469 -0.42341,3.155762 -1.73107,4.914982 -3.28857,10.092788 -5.44088,14.849946 -4.25142,9.39674 -13.21036,18.587828 -23.79591,20.482686 -4.43662,0.794174 -8.96183,1.039551 -13.46458,1.238489 -7.51208,0.33189 -19.85287,0.08545 -22.14459,-9.288661 -0.99504,-4.070096 -0.46677,-7.108653 0.84683,-11.051122 0.41713,-1.251921 1.22902,-2.337025 1.77834,-3.536836 0.11614,-0.253677 0.48443,-0.750941 0.21171,-0.809781 -0.59322,-0.127987 -1.17145,0.317561 -1.75718,0.476342"
         id="path5" />
      <path
         style="fill:#000000;stroke-width:0.264583"
         d="m 32.429309,141.41695 c 2.47109,-6.08501 6.119953,-11.61834 10.437172,-16.55286 0.161968,-0.18513 5.118873,-5.7434 6.245366,-6.00191 0.692957,-0.15901 1.499676,0.31729 1.947709,0.86933 0.586412,0.72254 0.825849,9.64632 1.20673,11.45601 0.178178,0.84659 0.719603,4.8224 2.752196,3.53684 1.835901,-1.16117 5.055073,-4.73049 6.435904,-6.16863 5.311651,-5.5321 10.449883,-10.90931 17.63522,-14.00443 1.654292,-0.71259 6.507628,-2.74162 8.044879,-0.13099 3.564554,6.05348 0.21355,13.50817 -0.211707,19.93488 -0.06136,0.92724 -0.592211,4.66898 0.444585,5.46602 0.857483,0.65919 1.802961,-1.25003 2.476976,-2.0959 4.683903,-5.87821 9.314535,-12.14908 15.581661,-16.46951 0.68267,-0.47062 3.46154,-2.06224 4.50937,-1.73865 1.21221,0.37436 2.34107,1.18365 3.11209,2.19117 2.36416,3.08932 1.43961,14.65666 1.43961,18.88695 0,1.66391 -0.35215,4.9982 0.91035,6.50206 0.47521,0.56606 1.65467,-0.74924 3.00624,-2.15545 4.14056,-4.30796 7.9234,-9.05909 13.12586,-12.18243 0.74527,-0.44744 3.3024,-1.9547 4.29766,-0.94078 2.73266,2.78391 -0.14693,10.71574 -0.78332,14.01635 -0.22728,1.17879 -0.51289,2.91545 -0.46576,4.15608 0.0115,0.30189 -0.0737,0.98017 0.21171,0.88123 3.14548,-1.09029 4.55635,-3.23707 6.96517,-5.31121 3.3428,-2.87834 7.12119,-6.12042 11.30517,-7.80009 2.17172,-0.87184 3.85825,-0.22002 3.76839,2.35789 -0.29196,8.3756 -6.45621,19.75219 -10.18312,27.29437 -0.40327,0.81609 -2.7624,6.53024 -3.95893,7.18085 -0.78019,0.42423 -1.86646,0.0539 -2.68868,0.1429 -2.8656,0.31031 -3.2605,0.35809 -5.90663,1.53621 -1.97635,0.87991 -8.25006,5.4778 -10.01376,5.07303 -4.61743,-1.0597 -0.25947,-13.78487 -5.3562,-11.55128 -3.05469,1.33869 -5.91736,3.08578 -8.78585,4.78723 -3.27928,1.94511 -7.74664,6.39207 -12.152004,6.08527 -5.121868,-0.35671 0.595138,-17.33004 -4.572879,-17.73182 -4.166674,-0.32393 -11.826779,10.87407 -15.391124,7.88345 -4.202129,-3.52573 -3.038806,-14.81542 -9.039902,-15.69545 -4.873805,-0.71471 -9.380951,1.4813 -13.82449,3.03668 -0.339937,0.11899 -4.346361,1.78435 -5.631415,1.19085 -4.626949,-2.13692 -2.580643,-11.51434 -8.552979,-11.17021 -3.140491,0.18096 -5.717069,2.53553 -8.108389,4.25135 -1.594329,1.14396 -2.766648,2.27283 -2.963905,1.27422 -0.191852,-0.97126 0.02907,-1.9852 0.169368,-2.96523 0.164094,-1.14627 0.487328,-2.2641 0.740976,-3.39393 0.961527,-4.28303 0.38486,-2.5452 1.820682,-5.93046 z"
         id="path6" />
      <path
         style="fill:#803300;stroke:none;stroke-width:0.264583"
         d="m 105.52197,19.701915 c 1.63805,-4.80207 3.8342,-9.308841 4.36117,-14.3974222 0.27441,-2.6497624 0.16937,-5.27809433 0.16937,-7.9310863 0,-1.0105161 -0.16956,-2.0332492 -0.10585,-3.0366772 0.0103,-0.1629892 -0.27531,-1.7767586 -0.23288,-1.774372 3.90309,0.2195486 7.77627,-0.4394277 11.55922,-1.417116 1.09661,-0.2834148 2.31752,-0.9555975 3.42966,-1.05986 0.20205,-0.018942 0.0316,0.4046839 0.0423,0.6073354 0.024,0.4528302 0.12636,0.8791004 0.21171,1.3218478 0.44513,2.3091137 0.62536,4.8911848 0.69863,7.24039104 0.15604,5.00310936 -1.90725,18.42586146 -4.95395,22.36423446 -1.01035,1.306053 -2.31303,2.176933 -3.51434,3.262939"
         id="path7" />
      <path
         style="fill:#74360c;fill-opacity:1;stroke:none;stroke-width:0.264583"
         d="m 104.82334,19.451836 c -2.61862,-0.551113 -2.6036,-0.632738 -4.76341,-0.869323 -1.511016,-0.165516 -2.538793,-0.262763 -4.001275,-0.309622 -0.351917,-0.01128 -1.97939,-0.0322 -2.582828,-0.02382 -0.994074,0.01381 -1.1655,0.04446 -1.143219,0.07145 0.689602,0.835479 4.571894,1.445173 5.694926,1.833915 1.522888,0.527153 5.023636,3.00722 6.372396,1.774372"
         id="path12" />
      <path
         style="fill:#74360c;fill-opacity:1;stroke:none;stroke-width:0.264583"
         d="m 108.73993,23.107757 c -2.38822,3.298492 -4.99199,6.506375 -6.60527,10.277069 -0.32213,0.752914 -0.58853,1.528582 -0.868,2.298348 -0.0737,0.202999 -0.36293,0.749326 -0.19054,0.619244 0.71033,-0.535998 2.60806,-2.506538 2.85805,-2.738964 2.31978,-2.15682 4.66734,-4.02263 7.17688,-5.930453 0.4605,-0.350089 3.08765,-3.008066 2.9639,-1.476658"
         id="path13" />
      <path
         style="fill:#74360c;fill-opacity:1;stroke:none;stroke-width:0.264583"
         d="m 122.67027,22.548056 c 3.40186,0.328036 1.91071,-0.09385 5.88546,2.107811 0.47755,0.26452 4.87155,3.136596 4.67874,3.751188 -0.29317,0.934456 -4.07356,0.356267 -4.50937,0.250082 -1.73904,-0.423717 -4.99342,-1.984949 -5.88547,-3.620197 -0.39821,-0.729994 0.53628,-2.048958 -0.16936,-2.488884 -0.71791,-0.447568 -1.55711,0.674666 -2.37112,0.905049 -0.31951,0.09043 -0.66335,0.03176 -0.99503,0.04763"
         id="path14" />
      <path
         style="fill:#74360c;fill-opacity:1;stroke:none;stroke-width:0.264583"
         d="m 124.32159,17.71319 c 1.77834,-1.159098 3.47668,-2.451336 5.33502,-3.477294 1.20292,-0.664113 2.5255,-1.085864 3.81073,-1.571927 0.71438,-0.270169 1.47039,-0.377824 2.22293,-0.452524 0.0821,-0.0081 0.27693,0.01367 0.23288,0.08336 -0.53637,0.848551 -8.75901,6.214504 -9.35747,6.132897 -0.77783,-0.106069 -1.49606,-0.476342 -2.24409,-0.714512 z"
         id="path15" />
      <path
         style="fill:#74360c;fill-opacity:1;stroke:none;stroke-width:0.264583"
         d="m 106.96158,14.509793 c -0.61355,-1.089853 -5.95402,-8.13362 -2.54048,-9.3839283 1.14239,-0.4184346 3.99888,4.9943883 4.31883,5.5970133 0.35883,0.675865 0.63757,1.194096 0.99502,1.845823 0.0865,0.157778 0.3736,0.610839 0.25405,0.476341 -0.57296,-0.644573 0.76962,0.591226 -0.55044,-0.559701"
         id="path16" />
    </g>
  </g>
</svg>
