<?xml version="1.0" encoding="UTF-8" standalone="no"?>
<!-- Created with Inkscape (http://www.inkscape.org/) -->

<svg
   width="512"
   height="512"
   viewBox="0 0 512 512"
   version="1.1"
   id="svg1"
   inkscape:version="1.3 (0e150ed6c4, 2023-07-21)"
   sodipodi:docname="skull.svg"
   inkscape:export-filename="skull.png"
   inkscape:export-xdpi="96"
   inkscape:export-ydpi="96"
   xmlns:inkscape="http://www.inkscape.org/namespaces/inkscape"
   xmlns:sodipodi="http://sodipodi.sourceforge.net/DTD/sodipodi-0.dtd"
   xmlns="http://www.w3.org/2000/svg"
   xmlns:svg="http://www.w3.org/2000/svg">
  <sodipodi:namedview
     id="namedview1"
     pagecolor="#ffffff"
     bordercolor="#000000"
     borderopacity="0.25"
     inkscape:showpageshadow="2"
     inkscape:pageopacity="0.0"
     inkscape:pagecheckerboard="0"
     inkscape:deskcolor="#d1d1d1"
     inkscape:document-units="mm"
     inkscape:zoom="0.71"
     inkscape:cx="374.64789"
     inkscape:cy="366.19718"
     inkscape:window-width="1920"
     inkscape:window-height="1028"
     inkscape:window-x="0"
     inkscape:window-y="30"
     inkscape:window-maximized="1"
     inkscape:current-layer="layer1" />
  <defs
     id="defs1" />
  <g
     inkscape:label="Layer 1"
     inkscape:groupmode="layer"
     id="layer1">
    <g
       id="g1"
       transform="matrix(2.3601362,0,0,2.3287007,16.371441,14.506082)">
      <ellipse
         style="fill:#ffeeaa;stroke-width:0.253946"
         id="path1"
         cx="99.552742"
         cy="106.82207"
         rx="98.36718"
         ry="103.24939" />
      <path
         style="fill:#000000;stroke-width:0.273853"
         id="path2"
         d="m 113.80828,-5.647036 c -3.23612,-0.5161209 -6.42922,0.4982116 -9.5525,1.2032924 -8.361166,1.9377953 -16.5152,4.63117843 -24.652053,7.3044993 -7.359272,2.6181166 -14.728497,5.2551833 -21.870609,8.4040333 -4.729529,2.085179 -5.488649,2.554281 -10.040116,4.881 -7.431139,4.072009 -14.655785,8.684114 -20.539292,14.765181 -1.211736,1.252423 -2.30751,2.60662 -3.461266,3.909931 -6.014709,6.633705 -11.95865,13.365183 -16.9678294,20.769603 -0.9134559,1.350246 -1.7449667,2.751397 -2.6174504,4.127093 -2.4845217,4.075588 -4.38736546,8.426568 -6.0826716,12.857129 -1.2904902,3.372603 -1.8767698,4.9945 -2.8166135,8.465135 -0.3743809,1.382507 -0.6747703,2.783014 -1.0121556,4.174524 -1.0050576,7.789191 -1.3573189,15.640285 -0.99151,23.483185 0.066406,1.42375 0.1955698,2.84407 0.2933546,4.26611 0.6251768,5.50615 2.0231832,10.89826 3.8758435,16.12898 1.0847798,3.06273 1.72386283,4.37574 3.02230167,7.33626 3.55348133,7.22179 7.48153013,14.26397 11.57975773,21.20458 0.779926,1.18736 1.518819,2.40126 2.339779,3.5621 1.708538,2.41588 4.366184,5.74742 6.248984,8.01336 1.94311,2.33851 4.486016,5.25286 6.590034,7.46724 1.113926,1.17236 2.279031,2.29762 3.418545,3.44642 3.311389,3.18987 6.773868,6.27954 10.562155,8.93327 2.888832,2.02365 5.783661,3.70462 8.880405,5.40878 5.354496,2.94661 10.738826,5.84152 16.108239,8.76229 5.736025,2.6347 11.560656,5.21342 17.638869,7.02514 3.094793,0.92246 4.781361,1.19934 7.937315,1.84957 5.291928,0.83423 10.690464,1.08053 16.037504,0.66941 3.31418,-0.25482 4.77259,-0.54497 8.06336,-1.05288 5.30636,-0.9623 10.56456,-2.25271 15.65425,-4.0154 2.60239,-0.90128 5.159,-1.99486 7.70138,-3.0395 5.8507,-2.16673 11.14916,-5.4122 16.3913,-8.6908 1.54204,-0.96444 3.1084,-1.89651 4.59296,-2.94298 1.63642,-1.1535 3.17436,-2.434 4.76154,-3.65099 6.31353,-4.76606 12.30981,-9.9367 17.54871,-15.82287 2.92643,-3.28801 4.21301,-5.06006 6.88638,-8.50149 3.93643,-5.2689 7.51766,-10.79605 10.14237,-16.80773 0.92581,-2.12049 3.10143,-8.00607 3.90837,-10.15665 3.19687,-8.52398 5.21493,-17.43818 6.15474,-26.46325 0.18529,-1.77948 0.27099,-3.56748 0.40648,-5.35121 0.0439,-5.29363 0.18422,-5.54219 -0.33099,-10.845271 -0.17563,-1.807873 -0.33853,-3.62219 -0.67985,-5.407459 -1.16631,-6.100377 -3.46661,-11.897738 -5.69124,-17.681527 -0.85853,-1.85557 -1.63249,-3.750478 -2.57558,-5.566703 -0.9976,-1.921215 -2.10973,-3.785278 -3.24095,-5.634964 -3.32561,-5.43774 -7.11501,-10.639797 -11.41121,-15.395007 -1.46138,-1.617517 -3.0375,-3.133208 -4.55625,-4.699812 C 174.6971,34.422459 166.96707,28.850012 158.9115,23.814897 150.90308,18.80926 141.0448,13.618845 133.35323,9.3523223 128.77434,7.2306367 123.71995,4.7189192 118.88747,3.1730855 115.07411,1.9532545 107.6057,0.41951104 103.59922,0 c -2.18938,-0.22924579 -4.401389,-0.14786741 -6.602171,-0.21925208 -2.505935,-0.0812824 -5.011986,-0.15916633 -7.517983,-0.23874975 -2.897615,0.003187 -5.79523,0.006384 -8.692846,0.00957 0,0 0.33945,0.2401093 0.33945,0.2401093 v 0 c 2.896577,-0.001808 5.793155,-0.003636 8.689733,-0.005454 3.234813,0.61913603 6.512787,1.05345573 9.704437,1.85740773 3.61164,0.909743 7.12152,2.1669468 10.674,3.2757594 3.39407,1.0593695 6.80135,2.0821902 10.16543,3.2287072 8.3246,2.8371212 16.52699,6.0752782 24.32379,10.1066172 -1.92784,-1.135224 -7.67286,-4.600713 -5.78353,-3.405671 2.07488,1.312407 4.25184,2.466329 6.34044,3.757931 7.923,4.899611 15.51961,10.346565 22.23468,16.754554 3.89442,3.965205 5.16195,5.076253 8.67649,9.371686 5.34317,6.530374 9.79969,13.699586 13.23867,21.349755 2.03878,4.951382 2.80431,6.388382 4.23468,11.543282 1.96075,7.066322 2.66924,14.366985 2.47103,21.671436 -0.20624,4.164822 -0.23855,6.575732 -0.79553,10.723502 -0.23646,1.76087 -0.57149,3.50816 -0.89781,5.25537 -0.9994,5.35112 -2.29517,10.6406 -3.96084,15.83427 -0.61084,1.6998 -1.16642,3.4194 -1.83253,5.0994 -3.02451,7.62816 -7.05888,14.8762 -11.62607,21.72224 -1.03367,1.41771 -2.02956,2.86227 -3.10099,4.25313 -5.83105,7.56942 -12.67212,14.37901 -20.34399,20.18761 -3.4853,2.38395 -5.9638,4.16045 -9.55422,6.31755 -5.3223,3.19758 -11.01858,5.69686 -16.68136,8.25502 -7.49232,2.91847 -15.14875,5.53092 -23.14413,6.79 -1.34517,0.18431 -2.68574,0.40381 -4.0355,0.5529 -6.558568,0.72445 -13.203559,0.60444 -19.70607,-0.53051 -1.273677,-0.27048 -2.558033,-0.49705 -3.821031,-0.81144 -7.237978,-1.80174 -14.1568,-4.69147 -20.866219,-7.84244 2.247521,1.34024 4.570328,2.56754 6.742566,4.02073 1.418853,0.94919 -3.01039,-1.62888 -4.477636,-2.50553 -5.447002,-3.2545 -10.398237,-7.21634 -15.034311,-11.48524 -1.158921,-1.13848 -2.338701,-2.25719 -3.476763,-3.41546 -5.592861,-5.69216 -10.717357,-11.83882 -14.86754,-18.61601 -4.236998,-6.88432 -8.233878,-13.9164 -11.825254,-21.1426 -1.473614,-3.15696 -1.93947,-4.02508 -3.2158574,-7.29015 -2.0114053,-5.14528 -3.4626534,-10.49035 -4.204922,-15.95266 -0.1801429,-1.43915 -0.4010229,-2.87404 -0.5404291,-4.31747 -0.324511,-3.36006 -0.3844243,-5.74866 -0.369279,-9.13408 0.013191,-2.94864 0.1090707,-6.552949 0.4542268,-9.485911 0.1805415,-1.534148 0.4965573,-3.050291 0.7448363,-4.575434 0.2809371,-1.394874 0.519148,-2.798554 0.8428112,-4.184617 1.7347934,-7.429125 4.6008202,-14.549449 8.4011022,-21.206078 2.008257,-3.321804 2.993325,-5.091337 5.267389,-8.277631 4.188899,-5.869257 9.029009,-11.316579 14.33519,-16.248534 7.905747,-6.401643 16.069867,-12.577432 24.947268,-17.662221 1.562567,-0.853519 3.10929,-1.735153 4.687706,-2.560556 8.444299,-4.415787 17.281014,-8.087759 26.387509,-10.998711 8.135075,-2.7463114 16.313827,-5.4743441 24.808337,-6.9764285 3.08852,-0.4554195 6.18561,-0.7931049 9.30271,-0.9869967 z" />
      <path
         style="fill:#000000;stroke-width:0.264583"
         d="m 75.435815,38.042678 c -2.061975,0.256955 -9.077441,5.097587 -10.656363,6.328299 -3.546599,2.764449 -4.866756,7.895285 -7.200722,11.824609 -2.954023,4.973209 -6.66465,16.025273 -6.181854,21.864077 0.302365,3.656732 1.956749,7.279819 4.170635,10.169879 3.111145,4.061365 8.6616,9.167453 14.374928,8.752776 1.575012,-0.114315 3.141131,-0.342503 4.699902,-0.595428 2.723169,-0.44186 5.633517,-1.198402 8.002538,-2.667511 C 88.415536,90.140802 93.657953,81.964204 96.82927,76.20193 101.74118,67.277011 105.67232,54.727019 97.189172,46.728297 95.0797,44.739284 84.210567,35.478798 81.060099,35.786996"
         id="path3"
         sodipodi:nodetypes="csssssssssc" />
      <path
         style="fill:#000000;stroke-width:0.264583"
         d="m 127.8221,46.222235 c -5.09041,8.477475 -4.4044,5.250196 -7.57098,12.081538 -2.64788,5.712313 -3.35823,10.203617 -4.34702,16.671578 -0.26292,1.719869 -0.4877,3.46628 -0.40224,5.204032 0.28764,5.84913 7.73492,15.268249 13.44341,16.814844 6.74518,1.827462 14.2824,-0.198003 19.79464,-4.251348 8.49668,-6.247911 12.3258,-15.990874 13.69747,-26.210683 0.57892,-4.31337 -9.5915,-20.650728 -12.68908,-23.961267 -1.02134,-1.091557 -11.66337,-3.305371 -15.70715,-2.49488"
         id="path4"
         sodipodi:nodetypes="csssssssc" />
      <path
         style="fill:#000000;stroke-width:0.264583"
         d="m 101.38098,87.264951 c -2.087452,3.715779 -4.082858,7.450587 -6.35122,11.06303 -3.115961,4.962269 -5.359519,10.358429 -8.320101,15.385829 -0.922557,1.56661 -5.048009,6.57113 -4.826926,8.31216 0.30833,2.42809 2.981793,3.53508 4.932781,4.19181 9.387995,3.16013 19.326376,0.92476 29.003906,1.953 1.74962,0.1859 5.72516,0.95079 6.62644,-1.14322 1.63369,-3.79566 -5.85104,-14.22698 -7.74849,-17.54128 -1.71744,-2.99986 -2.64604,-6.34865 -3.45083,-9.693547 -1.08329,-4.502441 -2.34077,-9.00898 -4.00127,-13.349472 -0.37244,-0.973561 -0.59986,-3.268435 -1.84185,-1.941092"
         id="path6" />
      <path
         style="fill:#000000;stroke-width:0.264583"
         id="path11"
         d="m 60.101569,139.81256 c -0.193971,0.17043 -0.432604,0.30062 -0.581911,0.51128 -0.239011,0.33723 -0.389829,0.72951 -0.563383,1.10465 -1.321421,2.85627 -0.645086,1.55977 -1.918221,5.01411 -0.447413,1.21394 -0.943851,2.40929 -1.404099,3.61843 -0.523364,1.37494 -1.031126,2.75578 -1.546688,4.13367 -0.864015,3.10996 -2.398506,5.97673 -3.404309,9.03335 -0.455337,1.38376 -1.061376,2.76844 -1.121322,4.22396 -0.06249,1.51729 0.63568,2.97821 0.762367,4.4915 0.209201,2.49888 -0.03973,2.80513 -0.648515,4.8247 0,0 0.350936,0.19195 0.350936,0.19195 v 0 c 0.581128,-1.92921 0.474861,-2.33027 2.244307,-3.9379 0.972351,-0.88343 2.370627,-1.27261 3.216108,-2.27813 0.908203,-1.08012 1.321996,-2.49669 1.886328,-3.79013 1.279573,-2.93278 2.09545,-6.05767 3.625895,-8.88816 0.623107,-1.36406 2.711405,-5.97706 3.453001,-7.44957 2.538642,-5.04074 0.527375,-0.54845 2.406467,-4.71469 0.16878,-0.37422 0.37483,-0.73653 0.485309,-1.1319 0.06983,-0.2499 0.03205,-0.51796 0.04808,-0.77694 z" />
      <path
         style="fill:#000000;stroke-width:0.264583"
         id="path12"
         d="m 79.843192,147.3813 c -0.127492,0.29358 -0.28058,0.57733 -0.382476,0.88074 -0.568717,1.69345 -0.776314,2.98856 -1.231363,4.78786 -1.03406,4.08878 -2.189128,8.14586 -3.366156,12.19507 -0.18279,0.67116 -2.405861,8.67577 -2.450473,9.45783 -0.09675,1.6961 0.51204,3.36505 0.592704,5.06199 0.148952,3.1335 -0.09216,3.44907 -0.750348,6.07479 0,0 0.351835,0.1903 0.351835,0.1903 v 0 c 0.575035,-2.29393 0.62012,-3.18268 2.101694,-5.34131 0.80246,-1.16918 2.097228,-1.97919 2.774183,-3.22524 1.533988,-2.82356 1.357608,-6.37482 2.912133,-9.18968 1.273191,-3.96055 2.56894,-7.91442 4.077142,-11.79376 0.85715,-2.20472 1.093171,-2.46734 1.791092,-4.44862 0.106172,-0.3014 0.179774,-0.6133 0.26966,-0.91995 z" />
      <path
         style="fill:#000000;stroke-width:0.264583"
         id="path13"
         d="m 99.291472,147.09697 c -0.269965,1.29045 -0.325014,1.43788 -0.496509,2.98448 -0.235863,2.12709 -0.369954,4.26436 -0.581914,6.39397 -0.479002,4.81257 -0.388297,3.78799 -1.089771,8.78312 -0.211437,1.43787 -1.261944,7.88423 -1.09138,9.43317 0.188524,1.71202 1.117521,3.2701 1.443818,4.96128 0.55649,2.88426 0.254132,3.13068 -0.400436,5.53482 0,0 0.351449,0.19101 0.351449,0.19101 v 0 c 0.531672,-1.95129 0.607038,-2.97098 2.079677,-4.63825 0.875224,-0.9909 2.289214,-1.47489 3.009234,-2.5837 0.88612,-1.3646 2.08387,-7.38573 2.39447,-8.7686 0.75752,-3.96887 1.50496,-7.93893 2.23123,-11.91363 0.354,-1.93739 0.55588,-2.81031 0.76178,-4.64937 0.0432,-0.38622 0.0549,-0.77533 0.0824,-1.16299 z" />
      <path
         style="fill:#000000;stroke-width:0.264583"
         id="path14"
         d="m 122.94914,145.93561 c -0.0782,0.12859 -0.20092,0.23909 -0.23474,0.38577 -0.20582,0.89249 -0.004,2.10296 0.0772,2.92387 0.0875,0.88784 0.19864,1.77327 0.28378,2.66133 0.3298,3.43959 0.33638,3.95904 0.57957,7.58575 0.0322,0.5125 0.52845,8.7428 0.64368,9.22137 2.53008,6.54637 1.61228,3.3988 2.94388,9.38509 0,0 0.35757,0.17928 0.35757,0.17928 v 0 c 0.58312,-4.72709 -0.0412,-2.41284 1.94197,-6.92372 0.0328,-0.18109 -0.17231,-8.8095 -0.1763,-8.98519 -0.0472,-1.92771 -0.11481,-5.42664 -0.22744,-7.44369 -0.11047,-1.97819 -0.1688,-4.1425 -1.01131,-5.98239 -0.1204,-0.26292 -0.30904,-0.48886 -0.46356,-0.73329 z" />
      <path
         style="fill:#000000;stroke-width:0.264583"
         id="path15"
         d="m 137.30155,144.56319 c 0.024,0.30419 0.0106,0.61366 0.0719,0.91258 0.10919,0.53249 0.28973,1.04784 0.43739,1.57098 0.76244,2.70125 0.57281,2.04453 1.51069,5.03107 1.65254,5.26224 0.44299,1.32879 2.15892,6.97802 0.2687,0.85362 2.38893,7.73567 2.79217,8.40203 6.56609,10.8504 3.13172,1.16939 5.53952,9.0006 0,0 0.36166,0.17088 0.36166,0.17088 v 0 c -2.92251,-9.50432 -0.37864,2.12222 0.99002,-5.90231 0.0699,-0.40977 -1.85786,-7.62219 -1.9587,-8.00829 -0.90837,-3.23106 -1.78579,-6.47368 -2.75469,-9.68739 -0.22426,-0.74384 -0.46529,-1.48251 -0.69867,-2.22353 -0.16897,-0.53655 -0.30656,-1.0841 -0.50838,-1.60917 -0.15262,-0.39707 -0.36821,-0.76697 -0.55231,-1.15045 z" />
      <path
         style="fill:#000000;stroke-width:0.264583"
         id="path16"
         d="m 50.651692,154.36958 c 3.548036,1.84037 7.592941,2.47703 11.483645,3.17728 4.78728,0.69877 9.590082,1.28316 14.390912,1.87888 3.507367,0.43521 8.074625,1.03412 11.579889,1.33257 2.053069,0.1748 4.112442,0.26529 6.168662,0.39794 6.64338,0.20521 6.92953,0.33115 13.71397,0.0488 5.7572,-0.2396 9.19768,-0.49456 14.91188,-1.43661 5.93947,-0.97919 9.46584,-1.94779 15.30069,-3.36175 8.80006,-4.5094 2.8824,-1.9256 12.48503,-4.99959 1.84365,-0.59019 3.66116,-1.25914 5.49174,-1.88871 0,0 -0.33121,-0.22427 -0.33121,-0.22427 v 0 c -2.52918,0.86937 -9.71665,3.42073 -12.08054,3.8654 -2.93146,0.55144 -5.93306,0.62381 -8.89958,0.93571 -6.81833,1.42701 -8.9163,1.99857 -15.85834,2.9143 -9.70313,1.27996 -19.512236,1.55419 -29.270331,0.79478 -11.168732,-1.06555 -22.344422,-2.29103 -33.335571,-4.60627 -1.208884,-0.28634 -2.424337,-0.54623 -3.626649,-0.85902 -2.870843,-0.74686 -5.655238,-1.75093 -8.36749,-2.94492 z" />
      <path
         style="fill:#000000;stroke-width:0.264583"
         id="path21"
         d="m 26.891609,97.640771 c 0.214874,0.0994 0.426951,0.205079 0.644621,0.298199 1.023151,0.437697 0.753909,0.249981 1.913778,0.810884 0.472512,0.228505 1.850996,0.989539 1.398376,0.723797 -5.920148,-3.475839 -5.878894,-3.568853 -3.00215,-1.359461 0.57042,0.563483 1.18287,1.087377 1.711259,1.690447 2.713836,3.097383 4.465224,6.982323 5.703961,10.872903 0.363924,1.14299 0.632611,2.31415 0.948915,3.47123 1.264936,4.92359 1.094536,10.04662 1.973869,15.02901 0.361344,2.04743 1.125648,4.90288 1.646692,6.94748 0.02283,0.76268 0.04566,1.52537 0.06848,2.28806 0,0 0.356949,0.18052 0.356949,0.18052 v 0 c -0.02318,-0.76198 -0.04638,-1.52396 -0.06957,-2.28593 0.309224,-0.71964 1.925381,-4.43862 2.098334,-5.03083 1.354611,-4.6383 0.667155,-9.52004 0.02199,-14.20572 -0.558705,-2.53072 -0.848998,-4.25097 -1.733818,-6.68519 -0.359965,-0.9903 -0.803354,-1.94946 -1.258943,-2.89957 -1.179843,-2.46051 -2.598134,-4.75756 -4.6166,-6.62405 -3.914127,-3.235725 -1.55656,-1.446115 -9.538424,-5.938232 -0.989146,-0.556681 -2.157764,-1.068234 -3.260223,-1.376048 -0.11579,-0.03233 -0.238151,-0.03308 -0.357226,-0.04963 z" />
      <path
         style="fill:#000000;stroke-width:0.264583"
         id="path22"
         d="m 175.56692,99.289562 c -0.34366,0.02799 -0.69216,0.02003 -1.03097,0.08398 -0.42949,0.08107 -0.8424,0.233413 -1.26386,0.349181 -0.58626,0.161033 -1.1732,0.319547 -1.75929,0.481217 -2.4911,0.68716 -4.93756,1.4554 -7.38674,2.28012 -4.07924,1.56476 -8.07393,3.62602 -11.23987,6.69895 -0.77634,0.75354 -1.53784,1.53905 -2.15204,2.42972 -0.64715,0.93847 -1.07045,2.01302 -1.60568,3.01953 -1.32187,3.48247 -2.43321,6.6027 -1.52248,10.38497 0.31332,1.3012 1.08678,2.45588 1.45171,3.74356 0.19693,0.6949 0.5071,3.99457 0.59803,4.88545 0,0 0.35824,0.17795 0.35824,0.17795 v 0 c -0.11813,-1.14884 -0.50306,-3.44366 0.019,-4.55877 0.38191,-0.81568 1.31127,-1.25613 1.81006,-2.00605 1.80619,-2.71558 2.07137,-6.09976 3.79898,-8.85718 1.52336,-2.31585 1.90103,-3.14407 3.83903,-5.1099 3.05178,-3.0956 6.92581,-5.09283 11.00376,-6.48139 0.94358,-0.28375 1.8817,-0.58635 2.83076,-0.85124 1.51215,-0.42205 3.28004,-0.8333 4.82639,-1.17612 0.61701,-0.13678 1.23402,-0.27422 1.85443,-0.39463 0.45679,-0.0887 0.92225,-0.13132 1.37645,-0.23242 0.23227,-0.0517 0.4517,-0.14984 0.67755,-0.22476 z" />
    </g>
  </g>
</svg>
