<?xml version="1.0" encoding="UTF-8" standalone="no"?>
<!-- Created with Inkscape (http://www.inkscape.org/) -->

<svg
   width="512"
   height="512"
   viewBox="0 0 512 512"
   version="1.1"
   id="svg1"
   inkscape:version="1.3 (0e150ed6c4, 2023-07-21)"
   sodipodi:docname="spider.svg"
   inkscape:export-filename="spider.png"
   inkscape:export-xdpi="96"
   inkscape:export-ydpi="96"
   xmlns:inkscape="http://www.inkscape.org/namespaces/inkscape"
   xmlns:sodipodi="http://sodipodi.sourceforge.net/DTD/sodipodi-0.dtd"
   xmlns="http://www.w3.org/2000/svg"
   xmlns:svg="http://www.w3.org/2000/svg">
  <sodipodi:namedview
     id="namedview1"
     pagecolor="#ffffff"
     bordercolor="#000000"
     borderopacity="0.25"
     inkscape:showpageshadow="2"
     inkscape:pageopacity="0.0"
     inkscape:pagecheckerboard="0"
     inkscape:deskcolor="#d1d1d1"
     inkscape:document-units="mm"
     inkscape:zoom="0.60742188"
     inkscape:cx="-18.109325"
     inkscape:cy="246.94534"
     inkscape:window-width="1920"
     inkscape:window-height="1028"
     inkscape:window-x="0"
     inkscape:window-y="30"
     inkscape:window-maximized="1"
     inkscape:current-layer="layer1" />
  <defs
     id="defs1" />
  <g
     inkscape:label="Layer 1"
     inkscape:groupmode="layer"
     id="layer1">
    <g
       id="g30"
       transform="matrix(1,0,0,0.95495166,-0.56010765,4.9445546)">
      <g
         id="g1"
         transform="matrix(2.4830952,0,0,2.8796659,-2.8588099,-26.252275)">
        <ellipse
           style="fill:#333333;stroke-width:2.52987"
           id="path1"
           cx="104.24844"
           cy="98.015633"
           rx="93.917122"
           ry="85.46405" />
        <path
           style="fill:#000000;stroke-width:2.965"
           id="path6"
           d="m 107.08176,7.161182 c -3.14569,-1.0306828 -6.5601,-0.4922848 -9.759849,-0.046964 -4.169325,0.5802596 -5.631566,0.8873702 -9.900848,1.6505645 -1.950808,0.4484039 -3.937357,0.7627715 -5.852425,1.3452115 -2.315699,0.704288 -4.569584,1.602846 -6.814674,2.507309 -6.376088,2.568688 -9.156499,3.924718 -15.154555,7.558113 -6.190486,3.749961 -9.501016,6.313082 -15.358523,10.534996 -7.045283,5.556827 -13.629915,11.715014 -19.313811,18.675122 -1.813714,2.22095 -3.505247,4.541621 -5.148373,6.891584 -1.56392,2.236687 -3.107267,4.4953 -4.467778,6.861228 -1.351837,2.350846 -2.437825,4.84487 -3.656737,7.267305 -2.1439789,5.740923 -3.5716777,8.917389 -4.8698177,14.89076 -0.9909109,4.55966 -1.545568,9.947166 -1.4720067,14.622317 0.103878,6.601922 0.7566586,8.303472 2.053759,14.833742 3.5696494,11.25962 8.4657594,21.82727 15.4893884,31.36685 1.684215,2.28752 3.379129,4.58996 5.364369,6.62175 2.288222,2.34187 4.938691,4.30008 7.408036,6.45013 11.652266,7.99668 11.553839,8.31794 28.087876,16.56894 2.891229,1.44282 5.966965,2.50474 9.047406,3.48034 6.274829,1.98729 12.598796,3.08836 19.12599,3.81195 3.159795,0.3503 6.341621,0.46032 9.512433,0.69048 3.06648,-0.0428 6.13784,0.0497 9.19944,-0.12849 8.29811,-0.4829 17.03423,-1.9711 24.94394,-4.5606 6.59352,-2.1586 8.0455,-3.15507 14.21785,-6.21877 9.00526,-5.17787 17.31692,-11.50535 24.48593,-19.03921 5.01643,-5.27173 5.8841,-6.80557 10.25562,-12.66557 4.73088,-6.56433 8.66158,-13.63971 11.65557,-21.15811 0.92714,-2.3282 1.82625,-4.67694 2.49346,-7.0925 1.56868,-5.67917 1.58654,-8.48725 2.13389,-14.266326 -0.0674,-2.300615 0.002,-4.609298 -0.20225,-6.901844 -0.20548,-2.309574 -0.58256,-4.604017 -1.02396,-6.880312 -1.00091,-5.161629 -2.07551,-8.717322 -4.15853,-13.587825 -2.61069,-6.104289 -3.89129,-7.798136 -7.29557,-13.465818 -4.59765,-6.594644 -10.12524,-12.413995 -16.52687,-17.283816 -4.50791,-3.429235 -10.19289,-6.918245 -15.12307,-9.688914 -6.5671,-3.690586 -13.20724,-7.249671 -19.81086,-10.874507 -8.23437,-3.866374 -16.74395,-7.084666 -25.40615,-9.84711 C 107.39478,8.8568968 99.295451,6.2712279 95.058046,5.9629783 93.323123,5.8367718 91.605461,6.3909773 89.879166,6.6049768 85.220679,6.9936751 80.612812,6.000456 75.972624,5.9759749 c -2.383316,-0.012576 -4.757581,0.2947384 -7.136371,0.4421076 0,0 0.325049,0.2331167 0.325049,0.2331167 v 0 c 2.377765,-0.1459606 4.751096,-0.4516011 7.133299,-0.4378812 8.004021,0.046098 8.608692,0.7972594 16.905583,2.91236 3.812808,1.390412 7.590776,2.880342 11.438426,4.171236 2.31343,0.776163 14.73539,4.337644 17.41373,5.196255 8.62162,2.763891 17.0838,6.034331 25.24089,9.971314 -1.22308,-0.866568 -5.02591,-3.237114 -3.66923,-2.599702 2.67175,1.255285 5.14952,2.892884 7.64604,4.468145 9.29367,5.864145 17.01476,12.513966 23.41354,21.506058 3.50899,5.67699 4.59701,6.935263 7.17534,13.08785 2.64439,6.310188 4.42044,13.13938 5.15551,19.942354 0.2436,2.254573 0.2523,4.528368 0.37846,6.79255 -0.35094,6.362406 -0.14431,7.812395 -1.67225,14.102542 -2.47898,10.20537 -7.5152,19.51399 -13.45772,28.08897 -1.67231,2.15005 -3.26306,4.3661 -5.01694,6.45013 -6.6074,7.85117 -14.53599,14.89814 -23.11915,20.52684 -2.14255,1.40505 -4.39559,2.63391 -6.59339,3.95087 -6.00919,2.96262 -7.52366,3.95434 -13.89882,6.11221 -10.63473,3.59964 -21.82104,5.12708 -33.030596,4.8886 -3.079083,-0.20813 -6.17152,-0.2703 -9.23725,-0.62439 -6.63662,-0.76654 -12.698587,-2.01196 -19.047184,-4.11433 -3.005482,-0.99528 -5.75219,-2.76482 -8.8347,-3.48705 -1.042667,-0.2443 3.425127,2.56161 2.51011,2.0052 -2.752068,-1.67348 -5.357484,-3.57702 -8.036226,-5.36552 -2.343274,-2.01921 -4.837353,-3.87559 -7.029818,-6.05761 -2.068332,-2.05848 -3.928149,-4.32422 -5.717698,-6.62918 -5.325147,-6.85886 -9.637144,-14.60598 -12.714705,-22.72538 -0.980926,-2.58794 -1.675816,-5.27544 -2.513724,-7.91315 -1.288092,-6.40028 -1.887864,-8.06178 -2.165453,-14.53761 -0.317082,-7.397135 0.526979,-14.887764 2.591215,-22.003294 0.7343,-2.531173 1.752212,-4.971303 2.628318,-7.456958 3.072999,-6.491557 3.591305,-8.160308 7.544296,-14.201349 6.385581,-9.758576 14.400194,-18.375913 23.337142,-25.833667 2.407536,-1.843482 4.734414,-3.79738 7.222614,-5.530448 C 72.15081,23.638637 84.32747,18.208628 97.569146,15.90807 c 1.843624,-0.229107 3.680024,-0.526718 5.530874,-0.68732 4.03152,-0.349824 5.5885,-0.264026 9.49101,-0.07548 1.71663,0.08294 3.50619,0.144351 5.20539,0.478761 z" />
        <path
           style="fill:#000000;stroke-width:2.965"
           id="path15"
           d="m 85.87933,140.70022 c 1.137404,0.31593 1.609495,0.48067 2.915695,0.63861 1.160503,0.14031 4.661427,0.28118 5.601679,0.31096 3.621038,0.11468 4.366604,0.0795 8.168236,0.0744 8.82061,-0.0949 17.66338,-0.68519 26.38279,-2.06109 1.82349,-0.28774 3.63476,-0.64821 5.45215,-0.97232 5.76028,-1.44373 4.21204,-0.90457 9.55213,-2.79979 1.2865,-0.45658 2.59773,-0.8572 3.8407,-1.42162 0.93358,-0.42392 1.78619,-1.0077 2.66657,-1.53325 0.66038,-0.39422 1.53044,-0.58419 1.95486,-1.22557 0.31441,-0.47514 -0.009,-1.13947 -0.0128,-1.7092 -0.85,-1.61236 -1.33872,-1.3715 -0.40531,-1.5835 0,0 -0.32518,-0.23293 -0.32518,-0.23293 v 0 c -1.50768,-0.0621 -0.38515,0.0331 -3.2657,-0.87041 -1.07724,-0.16106 -2.1426,-0.49762 -3.23173,-0.48318 -0.98323,0.013 -1.92902,0.383 -2.89547,0.5644 -1.27891,0.24007 -2.57038,0.41691 -3.84046,0.7 -1.42549,0.31773 -2.81956,0.76485 -4.24076,1.10123 -1.00097,0.23693 -9.3291,2.01139 -10.22511,2.20294 -1.76966,0.33477 -3.53159,0.71331 -5.30896,1.00433 -8.78044,1.43767 -17.68911,1.76575 -26.572403,1.68729 -4.218419,-0.12179 -4.477965,-0.0664 -8.489434,-0.4071 -5.338024,-0.45336 -1.449983,-0.17609 -5.984798,-0.70336 -1.263293,-0.14688 -1.179539,-0.12648 -2.126173,-0.0979 z" />
        <path
           style="fill:#ffffff;stroke-width:2.965"
           d="m 66.937606,59.932839 c -0.865574,3.49526 -0.536533,7.169208 -0.338733,10.729592 0.218647,3.935606 0.250479,5.238819 0.889172,9.086215 0.696889,4.197967 4.600636,15.072783 9.717365,7.764365 3.924017,-5.604817 4.651349,-12.781513 5.504392,-19.363283 0.707332,-5.457494 1.485789,-11.62691 -1.249074,-16.68386 -0.460036,-0.85064 -1.523439,-1.791726 -2.265267,-2.322166 -4.976919,-3.558706 -10.440011,2.919939 -11.897953,7.26421 -0.375777,1.119709 -0.149849,2.362671 -0.359902,3.524927 -1.668087,9.229789 -2.257663,6.428645 -0.381074,13.289928"
           id="path16" />
        <path
           style="fill:#ffffff;stroke-width:2.965"
           d="m 120.96532,52.632903 c -2.66545,6.59075 -2.82707,14.141675 -2.68868,21.173382 0.0531,2.698003 1.22604,21.630393 7.98136,15.278655 1.64009,-1.542103 3.1007,-3.652261 4.17064,-5.632738 4.73583,-8.766104 5.82392,-19.293602 5.75844,-29.128286 -0.0289,-4.335664 -0.49026,-10.583947 -4.08595,-13.659093 -3.27168,-2.79803 -7.6574,3.14657 -8.93406,5.263575 -3.68006,6.102417 -2.28792,13.557488 -1.48194,20.244515"
           id="path17" />
        <path
           style="fill:#ffffff;stroke-width:2.965"
           d="m 89.420926,139.30323 c 0.809869,3.15351 1.802207,6.24398 2.815707,9.3363 0.836655,2.55275 1.586785,5.14101 2.498145,7.66909 0.209045,0.57988 1.255364,4.60829 2.244098,5.02541 2.246911,0.94791 1.041075,-19.60729 0.846831,-21.12575 -0.132683,-1.03722 -0.255884,-1.69232 -1.058537,-2.26262"
           id="path18" />
        <path
           style="fill:#ffffff;stroke-width:2.965"
           d="m 129.30659,134.76608 c -0.15895,6.55562 -0.73249,13.1539 0.5081,19.64909 0.007,0.0341 0.40955,2.99279 0.88917,2.94141 0.6918,-0.0741 1.16795,-2.53739 1.50312,-3.63211 1.4565,-4.75712 3.02401,-9.47982 4.38234,-14.26643 0.6846,-2.41245 1.17593,-4.89725 1.96888,-7.27611"
           id="path19" />
        <path
           style="fill:#000000;stroke-width:2.965"
           d="m 74.5379,62.255002 c -0.30039,0.564428 -1.177478,2.149309 -1.503122,2.929501 -0.230497,0.552231 -0.465124,1.105358 -0.635124,1.679104 -0.162616,0.548828 -0.298352,1.110009 -0.359902,1.679104 -0.06564,0.606891 -0.04186,1.66474 0.232878,2.298348 1.245335,2.872053 4.175477,-4.827717 3.831902,-6.180531"
           id="path20" />
        <path
           style="fill:#000000;stroke-width:2.965"
           d="m 126.10981,63.672119 c -0.26111,0.674817 -0.60054,1.324348 -0.78332,2.024451 -0.14109,0.540411 -0.19457,1.573054 0.0635,2.167356 1.71081,3.939542 5.90729,-3.02455 3.78956,-3.739283"
           id="path21" />
      </g>
      <path
         style="fill:#000000;fill-opacity:1;stroke:none;stroke-width:5.31;stroke-linejoin:round"
         d="m 46.760457,321.81435 c -7.028758,1.32107 -14.160008,2.18121 -21.086274,3.96321 -6.769279,1.7416 -20.3031819,30.52638 -21.3641048,37.76221 -0.3883423,2.64862 0.1725678,8.3189 3.9207534,8.37161 12.3046384,0.17303 29.3314914,-24.78988 35.8468884,-25.87993 2.97149,-0.49714 5.949702,-0.95325 8.924553,-1.42987"
         id="path23" />
      <path
         style="fill:#000000;fill-opacity:1;stroke:none;stroke-width:5.31;stroke-linejoin:round"
         d="m 63.761502,393.74057 c -13.799597,14.81663 -28.581763,30.34245 -37.847273,48.65435 -1.717354,3.3941 -4.062576,7.96287 -0.400076,10.84709 3.001449,2.36364 7.934815,-1.6531 10.161952,-3.37565 14.03821,-10.85768 25.59911,-23.60901 35.926904,-38.03231 1.377661,-1.92398 4.210052,-4.92242 5.200999,-7.2914 0.69082,-1.65149 -3.058153,1.86267 -4.560876,2.83554"
         id="path24" />
      <path
         style="fill:#000000;fill-opacity:1;stroke:none;stroke-width:5.31;stroke-linejoin:round"
         d="m 86.485868,425.78673 c -3.547348,5.25101 -7.030806,10.54575 -10.642045,15.75303 -7.919152,11.41913 -26.150638,31.36367 -27.125212,46.49393 -0.541081,8.40029 7.317656,17.18092 15.763029,11.79227 20.615977,-13.15423 25.916816,-38.69248 42.08809,-55.58568"
         id="path25" />
      <path
         style="fill:#000000;fill-opacity:1;stroke:none;stroke-width:5.31;stroke-linejoin:round"
         d="m 135.61531,462.82885 c -5.41438,9.49682 -11.44896,18.66596 -16.24312,28.49047 -4.10746,8.41726 -8.73506,23.47864 2.72052,28.26543 4.10806,1.71659 7.60647,1.04331 11.52221,-0.90017 12.47432,-6.1913 28.84519,-33.04033 36.96711,-44.91863"
         id="path26" />
      <path
         style="fill:#000000;fill-opacity:1;stroke:none;stroke-width:5.31;stroke-linejoin:round"
         d="m 339.97458,469.13006 c 4.05411,8.77669 7.89629,17.65441 12.16233,26.33006 4.67295,9.50316 9.72064,18.38313 16.00308,26.82515 6.98888,9.39131 19.1105,20.9405 23.36449,1.62032 4.04833,-18.38619 -7.28625,-38.39611 -16.80323,-53.15522 -2.77993,-4.31116 -5.33655,-10.2028 -10.402,-12.15233"
         id="path27" />
      <path
         style="fill:#000000;fill-opacity:1;stroke:none;stroke-width:5.31;stroke-linejoin:round"
         d="m 389.024,441.04466 c 10.26351,14.47614 6.93426,10.82082 28.0854,29.07559 4.55525,3.93147 9.57229,7.30525 14.5628,10.66705 14.19423,9.56179 25.58506,9.728 23.92459,-10.89209 -1.37081,-17.02312 -14.48114,-29.7563 -24.88478,-41.94806 -6.61552,-7.75257 -14.60087,-22.07383 -26.40507,-20.92902"
         id="path28" />
      <path
         style="fill:#000000;fill-opacity:1;stroke:none;stroke-width:5.31;stroke-linejoin:round"
         d="m 429.91186,387.07929 c 3.09393,2.98558 5.87232,6.33726 9.28178,8.95673 9.33818,7.17445 31.81731,27.4468 48.24927,28.04038 17.68368,0.63881 1.64317,-37.15617 -3.20061,-42.75821 -7.77931,-8.9971 -21.8672,-15.56943 -32.64628,-20.38892 -5.53412,-2.47439 -11.40349,-3.479 -16.88324,-6.16619"
         id="path29" />
      <path
         style="fill:#000000;fill-opacity:1;stroke:none;stroke-width:5.31;stroke-linejoin:round"
         d="m 457.67719,332.21379 c 12.06014,8.81898 10.59027,8.53426 30.88594,15.70802 11.09125,3.92035 24.42786,3.09738 23.04443,-11.34218 -0.58353,-6.09054 -6.84425,-10.63159 -10.8821,-14.49278 -9.03058,-8.6355 -24.25604,-25.92082 -38.64742,-20.65897"
         id="path30" />
    </g>
  </g>
</svg>
