<?xml version="1.0" encoding="UTF-8" standalone="no"?>
<!-- Created with Inkscape (http://www.inkscape.org/) -->

<svg
   width="512"
   height="512"
   viewBox="0 0 512 512"
   version="1.1"
   id="svg1"
   inkscape:version="1.3 (0e150ed6c4, 2023-07-21)"
   sodipodi:docname="vampire.svg"
   inkscape:export-filename="vampire.png"
   inkscape:export-xdpi="96"
   inkscape:export-ydpi="96"
   xmlns:inkscape="http://www.inkscape.org/namespaces/inkscape"
   xmlns:sodipodi="http://sodipodi.sourceforge.net/DTD/sodipodi-0.dtd"
   xmlns="http://www.w3.org/2000/svg"
   xmlns:svg="http://www.w3.org/2000/svg">
  <sodipodi:namedview
     id="namedview1"
     pagecolor="#ffffff"
     bordercolor="#000000"
     borderopacity="0.25"
     inkscape:showpageshadow="2"
     inkscape:pageopacity="0.0"
     inkscape:pagecheckerboard="0"
     inkscape:deskcolor="#d1d1d1"
     inkscape:document-units="mm"
     inkscape:zoom="0.73228114"
     inkscape:cx="520.29197"
     inkscape:cy="558.52865"
     inkscape:window-width="1920"
     inkscape:window-height="1028"
     inkscape:window-x="0"
     inkscape:window-y="30"
     inkscape:window-maximized="1"
     inkscape:current-layer="layer1" />
  <defs
     id="defs1" />
  <g
     inkscape:label="Layer 1"
     inkscape:groupmode="layer"
     id="layer1">
    <g
       id="g1"
       transform="matrix(2.2760868,0,0,2.2760868,16.254489,19.144701)">
      <circle
         style="fill:#ff8bff;fill-opacity:1;stroke-width:1.765"
         id="path1"
         cx="105"
         cy="105"
         r="105" />
      <path
         style="fill:#1a1a1a;stroke-width:1.79009"
         d="m 103.7648,43.160823 c 9.4816,10.701961 18.10622,22.649062 29.51201,31.346653 6.72177,5.125752 14.00288,8.583093 21.65766,11.931089 7.39435,3.234095 15.27492,6.891298 23.45717,7.423243 1.94621,0.126528 3.52451,-0.541922 5.33503,-1.065712 0.89182,-0.258011 1.84338,-0.22135 2.75219,-0.379737 1.63709,-0.285311 3.23008,-0.780622 4.86927,-1.053465 4.33257,-0.721152 11.26969,-2.207252 14.98886,-4.789585 0.0877,-0.06092 -0.17212,-0.127042 -0.25405,-0.195993 -0.30184,-0.25403 -0.57487,-0.603295 -0.76215,-0.955466 -0.37506,-0.705301 -0.54015,-1.547284 -0.82565,-2.290671 -0.37178,-0.968016 -0.44661,-2.240325 -0.63513,-3.258388 -0.29799,-1.609266 -0.90846,-3.110021 -1.56661,-4.59359 -1.63091,-3.676336 -2.9099,-7.422136 -4.34,-11.171615 -1.42754,-3.742762 -3.28719,-7.397244 -5.08098,-10.96336 -2.14864,-4.271592 -4.03915,-8.653354 -6.58409,-12.702808 -1.38194,-2.198908 -3.11418,-4.181957 -4.72108,-6.210537 -1.97078,-2.487948 -4.26444,-4.633011 -6.30888,-7.043506 -1.70954,-2.015645 -3.24452,-4.081761 -5.33502,-5.720553 -2.04739,-1.604993 -4.39225,-2.780214 -6.56293,-4.189355 -2.06765,-1.342262 -4.09756,-2.907078 -6.33005,-3.956614 -2.483,-1.167306 -5.08209,-2.056008 -7.55795,-3.233888 C 146.4085,8.6293219 143.83811,6.3973666 140.62305,5.2483825 138.18593,4.3774141 135.65469,4.1583306 133.14978,3.5946898 130.59371,3.0195354 128.07137,2.3063957 125.50715,1.7450036 119.8034,0.49626448 114.29004,-0.24621035 108.46471,-0.77840911 106.03626,-1.0002705 103.54656,-1.5849957 101.09729,-1.4521358 96.88355,-1.2235633 92.580541,0.18406704 88.394851,0.78953652 86.676366,1.0381193 84.88854,1.0070004 83.186848,1.3407677 76.370502,2.677717 69.244476,4.27923 62.841774,7.0490703 58.973068,8.7226914 56.91089,11.106758 53.526652,13.284105 48.274911,16.662961 42.777999,20.048451 37.96616,24.088231 c -2.389166,2.005829 -4.382598,4.512599 -6.478243,6.823016 -4.208304,4.639588 -8.065534,9.513582 -11.368685,14.883232 -1.809903,2.942208 -3.833774,5.774561 -5.589062,8.746189 -3.221285,5.453496 -6.0663525,11.137951 -8.5106357,16.990161 -0.8784587,2.103246 -2.1225121,4.075011 -2.7733662,6.271784 -1.0472028,3.53454 -1.2439177,7.118168 -1.6724879,10.755128 -0.1174138,0.996406 -0.5997012,2.079842 -0.5080976,3.086893 0.052879,0.581332 0.6843869,1.093987 0.9103416,1.616943 0.3962052,0.916993 0.6052503,1.935517 0.8044878,2.915401 0.1953723,0.960875 0.4105468,1.906146 0.4445855,2.890899 0.027567,0.797531 -0.5031663,2.898033 -0.042342,3.564623 1.46734,2.12255 17.0881215,-1.26816 19.4135525,-1.82518 9.472091,-2.268869 17.838141,-7.025287 26.399905,-11.588101 6.765525,-3.605548 13.506381,-7.154784 19.688783,-11.784093 3.811429,-2.853952 7.148645,-6.264324 10.60654,-9.542421 4.405484,-4.176415 8.900416,-8.645906 12.74478,-13.388787 2.278031,-2.81046 3.984144,-6.026861 6.160685,-8.917679 1.64183,-2.180629 3.087469,-4.447299 4.848099,-6.529025 0.0407,-0.04814 0.82566,-0.738825 0.82566,-0.845222 0,-0.554322 -3.77302,2.159499 -4.085954,2.400919"
         id="path3" />
      <path
         style="fill:#000000;stroke-width:1.88202"
         id="path2"
         d="m 106.84815,-8.411235 c -6.0149,0.3035938 -11.905703,1.6170634 -17.752318,2.9837143 -6.653783,1.6831771 -13.222589,3.752141 -19.571008,6.37835803 C 64.595867,2.9898495 63.111621,3.8042822 58.24044,6.1705398 c -2.020063,1.0664493 -4.059226,2.097109 -6.060189,3.1993478 -5.347082,2.9454654 -7.608119,4.2394874 -12.552367,8.1177104 -4.478392,3.512812 -9.471285,8.155115 -13.472623,12.176185 -2.142621,2.15319 -4.175794,4.4137 -6.263691,6.62055 -4.134772,5.122886 -6.83668,8.146885 -10.3204566,13.700399 -2.8163199,4.489517 -5.0997041,9.1304 -6.9200256,14.111722 -2.31037065,6.322349 -2.49634848,8.488749 -3.8442093,15.080622 -0.9468788,6.786328 -1.3949337,8.683696 -1.612381,15.58131 -0.086096,2.731056 -0.1629462,5.471904 0.033298,8.197204 0.2901074,4.0288 2.0661657,15.11681 2.90992981,19.05034 0.67684695,3.15536 1.59116829,6.2545 2.38675249,9.38174 3.5378305,11.79096 8.5356392,22.7398 15.5431382,32.86176 4.447226,6.42379 5.655405,7.39059 10.867089,13.16809 5.714638,5.77674 11.95052,11.06682 18.729161,15.54809 6.138136,4.05785 19.863708,11.42465 24.154569,13.58549 2.490829,1.25437 5.151364,2.13446 7.727044,3.2017 10.292467,3.67439 21.084351,5.84607 32.047001,5.20139 7.34663,-0.43204 10.0219,-1.32239 17.24246,-2.90514 11.73507,-2.86928 23.07481,-7.27391 33.38198,-13.64997 6.7492,-4.17508 8.77881,-6.11105 14.9503,-11.06052 4.46609,-4.20573 9.70733,-8.74554 13.3316,-13.76795 2.11402,-2.92954 3.75024,-6.1801 5.5418,-9.31935 3.8949,-6.82475 6.84972,-12.24577 9.80873,-19.53736 1.33015,-3.27778 2.36498,-6.66899 3.54747,-10.00349 2.31612,-8.54758 3.24264,-10.59044 4.16313,-19.37357 0.33577,-3.20397 0.61055,-6.43279 0.4934,-9.65231 -0.20566,-5.65181 -2.00541,-16.116873 -3.28738,-21.602908 -0.8153,-3.488928 -1.92123,-6.9027 -2.88183,-10.354046 -1.27177,-3.259181 -2.3678,-6.593311 -3.81529,-9.777541 C 199.88378,54.743731 194.13304,46.278677 187.39868,38.77118 181.60493,32.312291 179.52112,30.936179 172.91435,25.337579 161.43855,18.432811 157.1904,15.563613 143.31828,9.2584309 137.94419,6.8157882 127.21144,3.708907 121.34329,2.5206286 119.08171,2.0626698 105.57978,0.46865811 103.25497,0.18636936 90.452447,-1.383223 96.778747,-0.96712611 84.280417,-1.1269487 c 0,0 0.343834,0.25180831 0.343834,0.25180831 v 0 c 12.495046,0.16489288 6.170285,-0.25328441 18.969919,1.31960227 3.82591,0.99797422 7.68148,1.88731862 11.47772,2.99392272 4.26178,1.2423184 8.45723,2.7040485 12.68768,4.0503227 4.00169,1.2734742 8.03556,2.4480283 12.00867,3.8089197 3.81419,1.306464 7.50061,2.983533 11.34696,4.190991 0.64747,0.203252 1.4262,-0.291053 2.03487,0.0098 3.23258,1.598169 6.18161,3.720258 9.27242,5.580388 2.5272,2.103662 5.14939,4.097071 7.58162,6.310986 9.92729,9.036216 18.44953,19.866716 24.28398,32.018221 1.52707,3.180479 2.71023,6.516534 4.06535,9.774802 2.69797,8.973711 3.89032,11.648582 5.14341,20.979682 1.80344,13.429273 0.49601,26.595603 -2.93621,39.643943 -2.86977,8.66438 -3.50535,11.69129 -7.71072,19.88153 -1.66134,3.23555 -3.45009,6.41958 -5.50633,9.41712 -2.03783,2.9707 -4.41672,5.69256 -6.74353,8.4404 -5.71577,6.75002 -6.88693,7.5584 -13.21494,13.61772 -6.08173,4.9264 -8.05243,6.81777 -14.68439,11.00793 -10.07954,6.36837 -21.21552,10.81433 -32.76049,13.64628 -7.68402,1.39639 -9.86577,2.08764 -17.61463,2.35569 -10.937887,0.37835 -21.367349,-1.63502 -31.609196,-5.41752 -2.516775,-1.05414 -4.910924,-2.47519 -7.550322,-3.16241 -0.862127,-0.22447 2.844046,2.12333 2.044574,1.72889 -2.439334,-1.20352 -4.726414,-2.70206 -7.01185,-4.17964 -6.940529,-4.48717 -13.388474,-9.72676 -19.287321,-15.52137 -5.228702,-5.63809 -6.66668,-6.84723 -11.203973,-13.12109 C 20.485911,158.51447 15.047937,147.37361 11.326306,135.62006 9.3846259,128.01079 8.2853997,124.75224 7.356881,116.93393 6.4012332,108.88719 6.5870498,100.01816 7.3526603,91.946585 7.5952397,89.38915 8.0003439,86.849938 8.3241866,84.301616 9.6846206,77.799983 9.9101046,75.683393 12.085765,69.40727 15.655581,59.10943 21.256642,49.712271 28.204028,41.363779 33.548649,35.460814 34.901491,33.589801 41.012132,28.378511 48.822235,21.717883 57.680259,16.474954 66.800364,11.862328 68.757518,10.963338 70.695007,10.019757 72.671828,9.165357 80.875251,5.6197629 89.428494,2.8793896 98.126154,0.86781021 103.75109,-0.34453148 109.41451,-1.3593543 115.04142,-2.5571065 Z" />
      <path
         style="fill:#ff0000;stroke-width:1.765"
         d="m 75.448241,166.21406 c 7.729029,-0.56104 15.432527,-1.61483 23.012588,-3.23912 5.456551,-1.16927 11.051901,-2.70024 16.301461,-4.62052 4.0215,-1.47105 7.8999,-3.17509 12.02498,-4.37043 5.22504,-1.51407 10.32316,-3.37528 15.51815,-4.97777 0.1617,-0.0499 3.16241,-1.13228 3.19678,-0.57161 0.09,1.46846 -6.38815,7.19318 -7.70615,8.34789 -7.21441,6.32058 -14.9549,8.94402 -23.92293,11.93235 -7.48762,2.49503 -13.81987,4.07965 -21.551805,5.65656 -6.221028,1.26876 -12.227636,2.55346 -18.587905,2.95331 -1.941078,0.12204 -4.01294,0.86185 -5.927804,0.4049"
         id="path4" />
      <path
         style="fill:#f9f9f9;stroke-width:1.765"
         d="m 79.364826,166.72613 c 0.02117,0.53588 0.0084,1.07419 0.06351,1.60765 0.239535,2.3175 1.52871,4.76332 2.201757,6.99031 0.480875,1.59113 0.825756,3.22668 1.312584,4.81105 0.0302,0.0983 0.441095,1.95034 0.719805,1.84582 0.314507,-0.11794 0.535082,-1.27761 0.59278,-1.50047 0.839819,-3.2438 1.668566,-6.56185 2.307611,-9.84836 0.222589,-1.14474 0.43574,-2.35748 0.783318,-3.46539 0.143732,-0.45815 0.15952,-0.97807 0.296388,-1.45284 0.02125,-0.0737 0.100987,-0.27574 0.04234,-0.22626 -0.143875,0.1214 -0.254048,0.27786 -0.381072,0.4168"
         id="path6" />
      <path
         style="fill:#f9f9f9;stroke-width:1.765"
         d="m 119.41986,156.71104 c 0.0847,0.651 0.13867,1.30674 0.25405,1.95301 0.39875,2.23364 1.23404,4.43216 1.75716,6.64496 0.59494,2.51657 0.84978,5.107 1.50313,7.60955 0.27554,1.05545 0.52816,2.10919 0.78331,3.16768 0.0936,0.38821 0.0861,1.48056 0.31756,1.15512 0.6627,-0.93191 0.93739,-4.72126 1.18557,-6.06144 0.58882,-3.17964 1.62225,-6.26269 2.13824,-9.45538 0.31174,-1.92889 0.84264,-4.09728 1.46078,-5.96618 0.21741,-0.65731 0.33108,-1.26588 0.42342,-1.94109 0.039,-0.28494 0.26427,-1.03686 0.38107,-0.77405 0.0956,0.215 -0.22486,0.41335 -0.33873,0.61924"
         id="path7" />
      <path
         style="fill:#f9f9f9;stroke-width:1.765"
         d="m 56.187106,102.71969 c 7.013231,-0.0776 13.948656,-1.66871 20.874345,-2.786603 0.132178,-0.02133 3.73073,-0.692047 3.789561,-0.619244 0.564462,0.698527 -0.13793,4.528867 -0.190538,4.977767 -0.213603,1.82274 -0.709652,6.94511 -1.630145,9.18148 -1.756037,4.26633 -5.186161,7.83701 -9.696196,9.20529 -4.656878,1.41283 -8.873987,1.71344 -12.638929,-1.78628 -1.343734,-1.24907 -2.518415,-5.35697 -3.45083,-7.28802"
         id="path11" />
      <path
         style="fill:#f9f9f9;stroke-width:1.765"
         d="m 118.1115,96.932135 c 4.07854,0.641297 8.15773,-0.683525 12.15201,-1.38139 3.09789,-0.54125 6.19454,-0.831768 9.29395,-1.29803 0.96291,-0.144856 3.11136,-1.446966 4.12829,-0.905049 1.22864,0.654735 0.99503,5.332854 0.99503,5.37075 0,7.497864 -3.40788,19.479444 -13.12586,18.994104 -7.62577,-0.38084 -9.83894,-8.29664 -13.93034,-13.12319"
         id="path12" />
      <path
         style="fill:#000000;stroke-width:1.765"
         d="m 134.64585,100.79341 c -2.41393,-0.62911 -4.24539,0.40327 -5.56791,2.45316 -3.27942,5.08311 2.00142,9.14091 6.66879,6.85932 2.87521,-1.40551 6.30034,-7.54566 1.75717,-9.26484 -1.62864,-0.61629 -4.00895,0.15812 -5.58908,0.44061"
         id="path14" />
      <path
         style="fill:#000000;stroke-width:1.765"
         d="m 68.466133,107.93854 c -2.253385,-0.3788 -4.051107,0.53895 -5.821952,1.85773 -4.616347,3.43788 -2.181474,9.84261 3.641365,8.20498 3.380552,-0.95075 5.356328,-4.46752 5.250344,-7.83582 -0.01892,-0.60136 -0.270383,-1.92273 -1.037368,-2.06017 -0.669078,-0.11991 -1.354926,-0.11115 -2.032389,-0.16672 z"
         id="path15" />
      <path
         style="fill:none;fill-opacity:1;stroke:#000000;stroke-width:1.765;stroke-opacity:1"
         d="m 169.28399,120.20539 c -2.60123,1.79853 -4.11489,4.62189 -5.50439,7.4071 -3.81308,7.64319 0.37872,15.52823 3.45083,22.61431 0.70337,1.62238 1.25839,2.99817 2.05356,4.56097 0.46764,0.91908 1.47703,1.99093 1.65132,3.03668"
         id="path17" />
      <path
         style="fill:none;fill-opacity:1;stroke:#000000;stroke-width:1.765;stroke-opacity:1"
         d="m 42.788866,133.85256 c 1.211096,2.0965 2.682899,4.0145 3.958926,6.07336 2.076709,3.35074 4.63197,7.29344 4.826918,11.36074 0.284348,5.93256 -1.764713,11.82852 -3.429648,17.4341 -0.601877,2.02643 -1.200798,4.04628 -1.714831,6.09717 -0.149709,0.59732 -0.267549,1.20246 -0.423413,1.79819 -0.125751,0.48064 -0.640162,1.87606 -0.423415,1.42903 0.273897,-0.56492 0.571384,-1.06728 0.931511,-1.58384"
         id="path18" />
      <path
         style="fill:none;fill-opacity:1;stroke:#000000;stroke-width:1.765;stroke-opacity:1"
         d="m 94.119416,117.49844 c -1.043787,5.25166 -1.473923,10.58727 -1.990048,15.9098 -0.271928,2.80426 -1.347975,6.71799 1.884196,8.2288 2.732087,1.27706 11.442676,-2.23224 14.671316,-3.28676"
         id="path19" />
    </g>
  </g>
</svg>
