<?xml version="1.0" encoding="UTF-8" standalone="no"?>
<!-- Created with Inkscape (http://www.inkscape.org/) -->

<svg
   width="512"
   height="512"
   viewBox="0 0 512 512"
   version="1.1"
   id="svg1"
   inkscape:version="1.3 (0e150ed6c4, 2023-07-21)"
   sodipodi:docname="apple.svg"
   inkscape:export-filename="apple.png"
   inkscape:export-xdpi="96"
   inkscape:export-ydpi="96"
   xmlns:inkscape="http://www.inkscape.org/namespaces/inkscape"
   xmlns:sodipodi="http://sodipodi.sourceforge.net/DTD/sodipodi-0.dtd"
   xmlns="http://www.w3.org/2000/svg"
   xmlns:svg="http://www.w3.org/2000/svg">
  <sodipodi:namedview
     id="namedview1"
     pagecolor="#ffffff"
     bordercolor="#000000"
     borderopacity="0.25"
     inkscape:showpageshadow="2"
     inkscape:pageopacity="0.0"
     inkscape:pagecheckerboard="0"
     inkscape:deskcolor="#d1d1d1"
     inkscape:document-units="mm"
     inkscape:zoom="0.72776573"
     inkscape:cx="254.20268"
     inkscape:cy="285.80626"
     inkscape:window-width="1920"
     inkscape:window-height="1028"
     inkscape:window-x="0"
     inkscape:window-y="30"
     inkscape:window-maximized="1"
     inkscape:current-layer="layer1" />
  <defs
     id="defs1" />
  <g
     inkscape:label="Layer 1"
     inkscape:groupmode="layer"
     id="layer1">
    <g
       id="g2"
       transform="matrix(2.2720771,0,0,2.2720771,5.1248723,29.892474)">
      <path
         style="fill:#f70000;fill-opacity:1;stroke-width:1.765"
         d="M 20.143243,29.167695 C 18.491207,33.960633 16.017195,38.413092 14.434284,43.235062 12.80071,48.211361 12.962652,53.7568 12.112356,58.896091 11.025043,65.467938 9.9847706,72.019209 9.3430846,78.655107 8.9357627,82.867364 8.8532239,87.12434 8.5762094,91.344484 8.2319102,96.589669 7.9771207,101.8151 7.745428,107.06543 c -0.1310875,2.97053 -0.4908462,5.92478 -0.2769272,8.90294 0.3209412,4.4681 1.4792317,8.72987 2.3645318,13.09679 1.2198874,6.01732 2.1248404,12.14873 4.5373444,17.85381 2.09293,4.94935 4.80408,9.76089 7.370523,14.47477 0.935137,1.7176 2.139179,3.26149 3.0675,4.98468 1.060719,1.96896 2.216239,3.90803 3.173999,5.9313 1.172967,2.4779 2.194957,5.10848 3.813075,7.34523 1.825757,2.52377 7.425605,5.15093 10.225002,6.96179 1.807557,1.16926 3.711999,2.13839 5.538542,3.2712 1.9988,1.23964 3.74791,3.05712 5.879377,4.03808 2.495188,1.14835 5.267137,1.58526 7.796565,2.68406 2.716945,1.18026 5.566341,3.01372 8.414324,3.78645 1.439494,0.39057 2.940227,0.40448 4.409532,0.6111 3.61352,0.50815 7.287122,1.05446 10.949273,1.05446 5.582166,0 10.823475,-0.71983 16.402611,0.0839 5.38114,0.77518 10.39183,2.88846 15.59313,4.32566 1.90461,0.52627 3.85173,0.67493 5.79416,0.99454 8.66021,1.42496 17.44023,1.79425 25.92464,-0.79084 3.12591,-0.95243 5.49401,-2.56244 8.18,-4.44548 2.66172,-1.86601 5.41837,-3.75819 7.86048,-5.90734 3.6886,-3.24612 6.84955,-7.09499 10.37411,-10.52057 5.02962,-4.88835 10.62693,-9.48216 15.23099,-14.77432 4.48047,-5.15011 7.09684,-11.40613 10.50194,-17.23073 2.10199,-3.59557 4.74295,-6.92051 6.62494,-10.64039 1.81697,-3.59134 3.25382,-7.63637 4.38823,-11.49115 1.5144,-5.14598 1.8276,-10.3034 2.258,-15.60112 0.22087,-2.71867 0.60967,-5.37472 0.55386,-8.1121 -0.0778,-3.81708 -0.56567,-7.60783 -0.89469,-11.407264 -0.28969,-3.345254 -0.3867,-6.710632 -0.83078,-10.04127 -0.86691,-6.501847 -2.91563,-12.345099 -5.11248,-18.464906 -1.34894,-3.75776 -2.38953,-7.289313 -4.26042,-10.856076 -1.11802,-2.13147 -2.5816,-4.081031 -3.81307,-6.146985 -1.45495,-2.440874 -2.59979,-5.079061 -4.23912,-7.405137 -3.06311,-4.346311 -7.01498,-7.788722 -10.62974,-11.622953 -1.67375,-1.775367 -3.22647,-3.635364 -4.98469,-5.332179 -9.255,-8.931758 -21.2802,-14.963123 -34.38157,-14.450803 -4.30468,0.168331 -8.22242,1.744334 -12.20609,3.223272 -8.68337,3.223699 -20.64692,8.839092 -30.09986,6.806017 -3.05268,-0.656551 -6.302605,-1.612581 -9.223799,-2.708028 -3.253523,-1.220071 -6.266465,-3.08051 -9.628542,-4.026094 -4.477988,-1.259435 -9.17122,-1.74168 -13.761148,-2.336573 -14.234194,-1.84487 -29.101256,-3.114653 -42.029019,4.217813 -4.13981,2.348048 -8.499206,4.432818 -10.629732,8.986819"
         id="path3" />
      <path
         style="fill:#000000;stroke-width:1.90652"
         id="path2"
         d="m 38.379263,21.847169 c 2.082131,-1.304525 4.03608,-2.916112 6.272422,-3.902827 0.619102,-0.273158 1.265698,-0.462917 1.898547,-0.694376 2.497406,-0.825859 5.07193,-1.660945 7.697553,-1.781005 0.974149,-0.04455 4.249208,0.143498 5.07821,0.184408 6.570476,-0.178026 13.099141,0.712753 19.577059,1.823529 6.759744,1.15776 13.38946,2.987646 19.960681,5.057518 5.518585,1.800912 10.918475,4.005998 16.401525,5.927059 2.7077,0.966502 5.53738,1.455142 8.38303,1.431517 1.65267,-0.01374 2.13761,-0.121102 3.74679,-0.324669 1.6152,-0.352983 3.23552,-0.733472 4.78594,-1.360182 1.59995,-0.646727 3.14952,-1.496955 4.698,-2.276509 4.14253,-2.158606 8.55458,-3.472696 13.03406,-4.426946 2.87352,-0.510069 5.78222,-0.728999 8.68866,-0.498109 1.96868,0.156396 2.47899,0.308182 4.42424,0.678053 4.89583,1.221753 9.4427,3.613596 13.88098,6.135894 8.95456,5.61877 -6.74745,-4.394908 -10.21574,-6.400402 -1.06215,-0.614179 1.97387,1.505639 2.93029,2.304483 1.97476,1.649414 4.22039,3.764463 6.00831,5.618946 1.01197,1.049624 1.96898,2.162182 2.95346,3.243272 3.61032,4.155479 6.93675,8.610513 9.94572,13.315355 1.65137,2.582099 2.34212,3.865861 3.87972,6.551394 2.78697,5.126312 5.0525,10.572263 6.83805,16.21589 1.11381,3.520419 1.40501,4.924248 2.28664,8.475042 1.52956,6.374639 2.53588,12.914263 2.80818,19.508511 0.0554,1.341144 0.0508,2.684513 0.0763,4.026765 0.0199,8.25934 -1.50854,16.2993 -3.36878,24.25137 -1.76006,6.88053 -3.92651,13.64491 -6.84485,20.0367 -0.61426,1.34536 -1.28919,2.65577 -1.93377,3.98366 -3.46238,6.72929 -7.39219,13.18905 -11.73976,19.26112 -0.85546,1.1948 -1.75317,2.35185 -2.62975,3.52778 -4.274,5.4224 -8.68376,10.8508 -13.90955,15.19029 -1.12144,0.93124 -2.31079,1.75802 -3.46619,2.63703 -4.40272,3.04645 -9.04041,5.69141 -13.98779,7.47663 -2.8787,1.03875 -4.117,1.27649 -7.02971,2.01125 -4.01708,0.88314 -8.1122,1.27452 -12.20601,1.12211 -2.44152,-0.0909 -3.28239,-0.23928 -5.70815,-0.52541 -6.16803,-0.83635 -12.21693,-2.44699 -18.24756,-4.06151 -3.814323,-0.99165 -7.623046,-2.12721 -11.546426,-2.40194 -0.433845,0.008 -0.869331,-0.0199 -1.301531,0.0224 -0.898086,0.088 -1.917119,0.37927 -2.783371,0.6162 -1.743306,0.47677 -3.474152,0.9997 -5.219858,1.46681 -4.076603,1.05599 -8.218612,1.80255 -12.408285,1.96502 -0.929271,0.036 -1.859611,0.0186 -2.789414,0.0279 -3.650181,-0.10382 -7.307714,-0.68692 -10.777401,-1.98036 -2.116786,-0.78911 -3.490252,-1.55744 -5.533828,-2.59007 -0.944276,-0.54021 -1.89905,-1.05857 -2.832833,-1.62066 -0.909143,-0.54723 -3.594047,-2.27321 -2.694687,-1.70654 4.439034,2.79691 8.83796,5.67291 13.313718,8.39734 0.794415,0.48357 -1.520709,-1.09367 -2.262539,-1.6704 -1.778496,-1.38267 -2.30263,-1.91454 -3.985502,-3.43849 -3.873626,-3.80174 -7.427469,-7.98184 -10.938559,-12.18573 -2.774387,-3.30122 -5.403337,-6.7544 -7.536961,-10.60644 -1.398925,-2.52561 -2.086124,-4.17737 -3.289501,-6.8251 -2.895521,-6.76458 -4.958782,-13.89747 -6.818294,-21.07666 -1.900979,-7.64663 -3.22578,-15.44315 -4.583659,-23.22336 -1.348112,-8.74081 -2.314772,-17.55066 -3.031803,-26.38045 -0.537201,-6.432767 -0.533812,-12.924603 -0.02651,-19.360518 0.281177,-3.567184 0.54101,-5.108487 1.018817,-8.604116 0.867248,-5.069267 1.794117,-10.165081 3.344898,-15.043242 0.986346,-3.102667 1.359556,-3.839879 2.568005,-6.769117 2.118351,-5.086128 5.10312,-9.600489 8.299297,-13.907337 2.647952,-3.517248 5.767657,-6.534146 8.869152,-9.543624 1.851597,-1.911942 3.790227,-3.70839 5.909222,-5.246369 C 48.577972,12.369657 47.11317,13.68767 42.675256,9.6288502 42.000884,9.0120534 41.358725,8.3531358 40.714054,7.6986441 39.792313,6.7628647 39.548316,7.0398499 39.965231,6.6752714 c 0,0 -0.347774,-0.2419691 -0.347774,-0.2419691 v 0 C 39.148346,6.8396262 39.521909,6.5709044 38.221059,5.9387994 37.311862,5.4970051 36.400933,5.0582151 35.50719,4.5794179 29.812929,1.5288815 31.652582,0.14519869 29.512936,2.16647 27.576891,4.0128983 25.633993,5.8551995 23.833674,7.8663089 20.947577,11.166319 18.165116,14.574974 15.365228,17.963931 14.002183,19.743845 13.53066,20.276202 12.326001,22.175338 10.255461,25.439536 8.7096302,29.061579 7.2765383,32.706701 5.9997837,36.312669 4.7722163,39.917904 3.7245286,43.615341 3.3627243,44.892203 2.9696271,46.160983 2.685975,47.46177 2.3300023,49.094204 1.7332758,53.640419 1.5139092,55.220934 1.3663609,56.656308 1.1958056,58.089017 1.0712634,59.527058 0.37843037,67.52691 0.25136263,75.56703 0.41834821,83.597295 c 0.23324979,3.543007 0.29983204,5.170839 0.69155369,8.687179 0.6652451,5.971663 1.6390777,11.898886 2.3337923,17.866186 0.9374765,7.82101 2.190926,15.59016 4.089976,23.20375 1.8003047,7.31186 3.8445688,14.56861 6.7601078,21.44582 2.750138,6.45434 5.538064,12.55264 10.093189,17.71915 3.484369,4.22573 6.95011,8.4868 10.747291,12.37621 0.647923,0.63075 1.277861,1.28483 1.943768,1.89225 0.868393,0.79213 3.496435,2.99574 4.428105,3.6099 7.813639,5.15071 15.60055,10.56536 23.845641,14.89876 2.21518,1.04037 3.690564,1.81929 6.002501,2.56635 3.560315,1.15048 7.320537,1.44236 11.007806,1.46656 5.325017,-0.22547 10.658116,-0.7589 15.881929,-1.96123 3.069782,-0.70517 6.172402,-1.56009 9.332042,-1.2993 3.57219,0.36396 7.08922,1.15121 10.59046,1.99904 6.07569,1.43372 12.15771,2.88778 18.32156,3.7841 2.45836,0.21437 3.33649,0.34799 5.80522,0.33514 4.09857,-0.0213 8.15973,-0.61676 12.12365,-1.77371 3.64068,-1.14381 7.11143,-2.35288 10.61273,-3.97182 1.24555,-0.57593 2.49252,-1.15633 3.69164,-1.84223 2.04377,-1.16904 4.7246,-3.19824 6.62534,-4.57843 1.9919,-1.53317 5.14057,-3.89143 7.01538,-5.59707 4.04916,-3.68378 7.32087,-8.26419 10.69163,-12.66404 2.62353,-3.69976 5.28644,-7.38043 7.72405,-11.23541 2.42642,-3.83728 4.67613,-7.81948 6.82349,-11.85285 1.53062,-3.13375 2.45989,-4.93236 3.83165,-8.15603 2.21006,-5.19371 3.98475,-10.60719 5.35168,-16.1429 0.87981,-3.5773 1.16393,-4.52876 1.85533,-8.14823 1.03948,-5.44154 1.64143,-10.96676 1.81327,-16.52585 0.0214,-3.4165 0.0946,-4.67058 -0.1408,-8.06323 -0.37784,-5.445178 -1.44164,-10.806804 -2.72312,-16.069223 -1.22584,-4.419395 -2.48698,-8.819793 -3.92756,-13.161006 -0.68956,-2.077953 -2.15283,-6.293405 -3.0305,-8.331197 -0.52388,-1.216377 -1.15134,-2.374825 -1.72702,-3.562236 -0.62,-1.142864 -1.20944,-2.306686 -1.85999,-3.428598 -3.53311,-6.093059 -7.76848,-11.665287 -12.15807,-17.01482 -2.76951,-3.169976 -5.36666,-6.189893 -8.47236,-8.973093 -0.91213,-0.817409 -1.78975,-1.697396 -2.79,-2.377212 -6.09214,-4.140562 -12.29262,-8.083369 -18.46778,-12.070761 -0.85394,-0.551401 -1.74492,-1.029486 -2.61737,-1.544229 -4.60488,-2.521726 -9.31652,-4.887592 -14.43599,-5.7898448 -0.77705,-0.1131536 -1.55085,-0.2582316 -2.33115,-0.3394588 -3.71735,-0.3869552 -7.48284,-0.05345 -11.12541,0.8163647 -4.52834,1.2419859 -8.97065,2.8166379 -13.33562,4.6404319 -3.0072,1.253257 -6.01823,2.669016 -9.23728,3.079617 -1.43028,0.126528 -2.00739,0.222973 -3.46612,0.160127 -2.70394,-0.116584 -5.34649,-0.821417 -7.92433,-1.689635 C 95.458295,14.18842 90.268499,12.26073 84.97146,10.741892 78.659332,8.9586786 72.263748,7.5272275 65.794669,6.6401328 63.643015,6.3553413 61.190263,6.0024566 59.02632,5.8277676 55.018623,5.5042386 50.990082,5.5454882 46.984119,5.8678952 42.653716,6.8359061 46.881016,5.819951 43.183272,6.8899705 42.58339,7.0635577 41.971276,7.182036 41.370697,7.3526468 39.511989,7.880664 37.696953,8.5754883 35.944364,9.4414007 33.340809,11.025659 30.736419,12.683481 28.632236,15.043001 Z" />
      <path
         style="fill:#552200;fill-opacity:1;stroke-width:1.765"
         d="m 97.022466,25.560985 c 2.66201,-12.875197 7.548424,-26.16125779 17.574224,-35.0845381 0.17192,-0.1530165 3.81365,-3.8913179 4.60125,-3.6186869 0.2434,0.08425 2.27932,1.072154 2.27932,1.377979 0,0.125986 -2.41744,3.2996344 -2.47104,3.3790382 -0.83636,1.2390848 -1.55135,2.5550066 -2.32193,3.8343758 -3.64409,6.0502263 -7.35931,12.4763398 -8.32911,19.603246 -0.42474,3.121342 -0.20485,6.284921 -0.0426,9.418186 0.0644,1.243118 0.11293,2.526323 0.25563,3.76248 0.0581,0.503513 0.0815,1.013709 0.19172,1.509787 0.0271,0.121997 0.10651,0.484447 0.10651,0.359471 0,-0.281025 -0.0561,-0.26052 -0.23432,-0.551191"
         id="path4" />
      <path
         style="fill:#800000;fill-opacity:1;stroke-width:1.765"
         d="m 94.700539,23.476043 c -0.702969,0.551192 -1.413484,1.092891 -2.108907,1.653575 -1.300636,1.048638 -0.322156,1.004796 0.766876,1.198242 0.519684,0.09231 1.200889,0.578923 1.725467,0.503263 0.127233,-0.01836 1.053037,-0.405793 1.086409,-0.419386"
         id="path5" />
      <path
         style="fill:#800000;fill-opacity:1;stroke-width:1.765"
         d="m 100.60122,29.071837 c -0.26983,1.110369 -0.5887,2.209959 -0.809482,3.331112 -0.532331,2.703237 2.339152,-0.57844 2.811872,-0.814806"
         id="path6" />
      <path
         style="fill:#800000;fill-opacity:1;stroke-width:1.765"
         d="m 109.84632,30.126289 c 0.54725,3.657452 3.27767,5.861759 1.85328,1.054454"
         id="path7" />
      <path
         style="fill:#f9f9f9;fill-opacity:1;stroke-width:1.765"
         d="m 56.14376,28.137207 c -2.267612,2.09972 -2.77282,2.360506 -4.494739,4.601249 -3.538292,4.604399 -6.825242,9.504347 -8.946878,14.930102 -0.72813,1.862082 -1.203163,3.847899 -1.768072,5.763545 -0.137359,0.465791 -0.686962,1.613803 -0.234323,1.437892 3.420295,-1.329251 15.557584,-14.942082 17.361201,-16.739447 2.344883,-2.33676 5.072936,-4.261318 7.136199,-6.877912 1.0248,-1.299633 1.837285,-2.72977 2.811875,-4.062042 0.440227,-0.601792 1.544193,-1.661406 0.702969,-1.030487"
         id="path8" />
      <path
         style="fill:#f9f9f9;fill-opacity:1;stroke-width:1.765"
         d="m 82.558349,36.405079 c -9.912201,6.852472 -5.643758,3.495431 -18.809745,16.260151 -6.546458,6.346939 -11.939711,13.541467 -17.25469,20.90933 -1.479585,2.051068 -3.056898,4.136252 -4.196512,6.410597 -0.88561,1.76743 -1.134237,2.831375 -0.72427,2.588191 3.153383,-1.870514 6.272919,-5.174435 8.968179,-7.465038 3.430937,-2.91583 5.562555,-4.61668 9.095991,-8.028223 1.383543,-1.335815 2.64146,-2.7959 3.962188,-4.19385 2.897085,-2.923712 5.697366,-5.946629 8.691253,-8.771136 4.650558,-4.387445 9.798336,-8.21034 14.762345,-12.222072 1.551258,-1.253667 2.704375,-2.864556 4.132607,-4.241779"
         id="path9" />
      <path
         style="fill:#f9f9f9;fill-opacity:1;stroke-width:1.765"
         d="m 169.25785,157.97875 c -2.33112,2.51005 -3.92285,5.54466 -5.96459,8.27985 -0.86121,1.15372 -7.63881,8.78614 -7.37052,10.24497 0.0321,0.17468 3.28479,-0.98431 3.34443,-1.00652 6.79374,-2.53044 12.38755,-9.25262 14.86885,-15.93663 0.55669,-1.49957 2.33112,-7.36507 0.21303,-8.48355 -0.21639,-0.11427 -1.21357,0.28037 -1.23553,0.28758"
         id="path10" />
      <path
         style="fill:#f9f9f9;fill-opacity:1;stroke-width:1.765"
         d="m 161.12045,139.64564 c -0.54676,0.679 -1.15939,1.30986 -1.64026,2.03701 -1.25233,1.89368 -2.22164,3.96459 -3.47224,5.8594 -4.64926,7.04419 -10.09665,13.55665 -16.04047,19.54334 -1.79894,1.81191 -3.71953,3.50284 -5.55985,5.27226 -0.4794,0.46094 -0.94196,0.92887 -1.34203,1.46186 -0.15939,0.21234 -0.71285,0.65903 -0.44734,0.65903 2.15427,0 9.62659,-4.798 10.92796,-5.70363 10.06863,-7.0068 17.95096,-17.21889 24.90215,-27.23605 0.90373,-1.30234 6.41975,-8.27502 2.68406,-8.67528"
         id="path11" />
      <path
         style="fill:#008000;fill-opacity:1;stroke-width:1.765"
         d="m 116.27529,-5.186182 c 3.45838,-0.869111 6.91081,-0.2314247 10.35282,0.3355081 2.28238,0.3759303 4.62318,0.5940229 6.79536,1.4378908 1.31542,0.5110236 2.43125,1.2820354 3.57875,2.0849419 1.10613,0.77395259 2.25139,1.52765005 3.32313,2.3485551 0.24871,0.1905033 0.9785,0.5468681 0.68167,0.647051 -1.76964,0.5972528 -5.35314,-0.3421874 -7.17881,-0.563174 -2.79646,-0.33849577 -5.62098,-0.36398874 -8.41432,-0.73092788 -2.16611,-0.28454525 -4.29559,-0.71356592 -6.47584,-0.91066423 -0.67268,-0.0608117 -6.24612,-0.33711462 -5.77286,-1.40194369 0.38237,-0.8603414 1.5356,-0.9139447 2.0663,-1.58168 0.40767,-0.5129324 0.44134,-1.4080059 1.0438,-1.6655571 0.82297,-0.3518159 1.78907,0.075229 2.68407,0.071895 1.19293,-0.00444 4.62462,-0.073969 5.58114,-0.7069629"
         id="path12" />
      <g
         id="g1"
         transform="rotate(-2.7387985,213.7833,99.842484)">
        <path
           style="fill:#4d4d4d;fill-opacity:1;stroke-width:3.45413"
           d="m 149.27562,71.953945 c -1.75377,2.807881 -3.40864,5.668051 -4.79417,8.676413 -2.79242,6.063019 -4.80196,12.474352 -7.67069,18.501862 -3.27189,6.87455 -7.15085,13.48521 -10.71394,20.21369 -4.63329,8.74949 -9.11649,17.53454 -14.21575,26.02923 -3.02377,5.03718 -5.10305,10.54116 -8.04588,15.61753 -0.20494,0.35354 -1.79913,3.83221 -2.33455,3.68163 -1.503302,-0.42281 -2.861622,-1.89955 -4.377291,-2.48568 -1.234672,-0.47747 -9.395862,-2.00715 -9.630033,-3.58781 -0.05718,-0.386 1.090151,-1.78726 1.292343,-2.20428 2.816189,-5.80839 6.317252,-11.61252 -2.918194,-12.96772 -4.175864,-0.61276 -6.903956,5.69691 -8.879641,8.51227 -0.125053,0.17828 -1.117041,2.06517 -1.250656,2.04012 -1.47978,-0.27746 -3.582741,-2.37238 -4.919236,-3.21261 -0.910269,-0.57227 -4.135339,-0.74546 -4.66911,-1.57115 -0.218939,-0.33866 2.953563,-5.27998 3.251702,-5.83898 5.53383,-10.37593 9.596667,-21.49871 14.966155,-31.96201 3.700968,-7.21193 8.903705,-13.095898 13.048488,-19.979205 3.063683,-5.087897 5.193333,-10.904954 7.420553,-16.391381 2.19862,-5.416006 4.24331,-10.857766 6.58677,-16.203782 1.14803,-2.618935 2.22477,-5.030858 4.21054,-7.10528 0.7687,-0.803019 1.26759,-1.482441 1.83428,-2.438753 0.10073,-0.169966 0.21923,-0.699642 0.29183,-0.515894 1.33532,3.380033 7.13981,3.92032 10.50548,4.314734 1.58781,0.186073 3.14684,0.765701 4.71081,1.125588 0.49747,0.114485 1.74099,-0.145563 1.50077,0.304846 -1.3173,2.469971 -10.68697,9.619067 -6.50339,13.507064 0.93166,0.865828 2.29552,1.467437 3.58521,1.406985 3.43624,-0.161082 6.05471,-4.238587 7.25379,-7.011476 0.0939,-0.217149 1.16043,-3.260803 1.4174,-3.212617 1.09542,0.205388 2.00162,1.059742 2.95989,1.571129 2.29553,1.225022 4.76945,2.664164 7.2121,3.564368 0.32265,0.118908 4.32386,0.853121 4.29392,1.055237 -0.25056,1.691159 -5.12285,6.076631 -5.4195,6.565932 -3.44146,5.676206 0.2723,5.268392 -5.16937,6.659734"
           id="path13" />
        <path
           style="fill:#ff0000;fill-opacity:1;stroke-width:3.45413"
           d="m 102.49838,123.33272 c -2.933403,-0.43559 -3.87076,-0.15637 -6.086515,1.36008 -1.309737,0.89635 -2.926856,2.20595 -3.460142,3.75197 -0.527873,1.53032 -0.400953,2.60572 -0.208441,4.1037 0.872076,6.78584 10.015638,-0.61129 11.756148,-3.70506 0.33835,-0.60141 2.03409,-3.98048 1.04221,-4.47892 -0.9571,-0.48093 -2.02884,-0.68785 -3.04326,-1.03177 z"
           id="path14" />
        <path
           style="fill:#ff0000;fill-opacity:1;stroke-width:3.45413"
           d="m 125.38535,78.871995 c -4.56973,-3.276476 -13.25393,6.567882 -8.25432,9.848879 2.39233,1.569963 10.86096,-4.743741 10.4638,-5.838971 -0.52027,-1.434696 -1.47298,-2.673272 -2.20948,-4.009908 z"
           id="path15" />
        <path
           style="fill:#ffffff;fill-opacity:1;stroke-width:3.45413"
           d="m 127.13627,37.788015 c -3.53883,2.903109 -7.69769,4.789222 -11.38096,7.480473 -2.53194,1.850017 -4.81252,3.922452 -7.04535,6.120389 -1.82576,1.797229 -3.57782,3.657562 -5.4195,5.440344 -3.06077,2.9629 -0.0145,-0.02196 -1.58416,1.547682 -0.12507,0.125073 -0.55034,0.399826 -0.37519,0.375198 4.84186,-0.680887 19.56241,-11.785413 23.55397,-14.914049 0.3114,-0.244071 3.93101,-2.715937 3.91872,-3.025019 -0.0458,-1.150489 -1.1117,-2.016679 -1.66753,-3.025018 z"
           id="path17" />
        <path
           style="fill:#ffffff;fill-opacity:1;stroke-width:3.45413"
           d="m 108.5849,35.654086 c 1.08113,3.995115 2.65177,7.814899 4.3356,11.584184 1.17346,2.626816 2.5172,5.164841 3.75196,7.761868 0.77572,1.63155 1.48723,3.288208 2.25117,4.924449 0.31242,0.669138 0.91715,2.755161 0.91715,2.01668 0,-5.382505 -3.24149,-11.694598 -4.91924,-16.672779 -0.62701,-1.860456 -1.67342,-7.603232 -3.08494,-8.817109 -0.84615,-0.727666 -2.1678,-0.531525 -3.2517,-0.797293 z"
           id="path18" />
        <path
           style="fill:#ffffff;fill-opacity:1;stroke-width:3.45413"
           d="m 129.59588,50.849529 c -8.15198,-0.633597 -15.94111,-4.194999 -24.13762,-4.314754 -0.50263,-0.0074 -6.523009,-0.0566 -6.545086,0.117245 -0.119593,0.941853 5.854666,1.662637 6.336646,1.75873 7.99611,1.594159 15.87275,5.3345 23.92918,6.050037"
           id="path19" />
        <path
           style="fill:#a84d00;fill-opacity:1;stroke-width:3.45413"
           d="m 153.76407,63.088572 c -9.21501,12.038299 -15.52672,26.122274 -23.72074,38.879688 -5.07516,7.90164 -9.01013,16.42566 -12.6316,25.06777 -3.297,7.86786 -5.59331,16.1825 -9.46328,23.80151 -1.4352,2.82557 -11.89164,16.31514 -11.130816,18.45496 0.160084,0.45025 2.132142,-1.24793 2.209489,-1.31317 1.521757,-1.284 2.867777,-2.73961 4.168847,-4.24441 7.90675,-9.14497 11.71937,-20.42263 17.13395,-31.02404 6.578,-12.8793 12.95291,-26.07655 20.09384,-38.645176 1.34719,-2.37116 16.09224,-25.078595 15.04953,-27.69417 -0.45687,-1.146041 -1.13947,-2.188643 -1.70922,-3.282962 z"
           id="path20" />
      </g>
    </g>
  </g>
</svg>
