<?xml version="1.0" encoding="UTF-8" standalone="no"?>
<!-- Created with Inkscape (http://www.inkscape.org/) -->

<svg
   width="512"
   height="512"
   viewBox="0 0 512 512"
   version="1.1"
   id="svg1"
   inkscape:version="1.3 (0e150ed6c4, 2023-07-21)"
   sodipodi:docname="bat.svg"
   inkscape:export-filename="bat.png"
   inkscape:export-xdpi="96"
   inkscape:export-ydpi="96"
   xmlns:inkscape="http://www.inkscape.org/namespaces/inkscape"
   xmlns:sodipodi="http://sodipodi.sourceforge.net/DTD/sodipodi-0.dtd"
   xmlns="http://www.w3.org/2000/svg"
   xmlns:svg="http://www.w3.org/2000/svg">
  <sodipodi:namedview
     id="namedview1"
     pagecolor="#ffffff"
     bordercolor="#000000"
     borderopacity="0.25"
     inkscape:showpageshadow="2"
     inkscape:pageopacity="0.0"
     inkscape:pagecheckerboard="0"
     inkscape:deskcolor="#d1d1d1"
     inkscape:document-units="mm"
     inkscape:zoom="0.70710678"
     inkscape:cx="296.98485"
     inkscape:cy="390.32294"
     inkscape:window-width="1920"
     inkscape:window-height="1028"
     inkscape:window-x="0"
     inkscape:window-y="30"
     inkscape:window-maximized="1"
     inkscape:current-layer="layer1" />
  <defs
     id="defs1" />
  <g
     inkscape:label="Layer 1"
     inkscape:groupmode="layer"
     id="layer1">
    <g
       id="g1"
       transform="matrix(2.399532,0,0,2.399532,2.4730405,-0.79161196)">
      <path
         style="fill:#2b1100;stroke-width:1.765"
         d="m 65.599168,14.775165 c -0.628065,-0.01985 -1.264923,-0.166125 -1.884196,-0.05954 -0.821716,0.141425 -1.438153,0.84516 -2.138246,1.298031 -3.691337,2.387835 -5.125614,4.403465 -8.171902,7.145123 -2.312927,2.081635 -5.195395,3.456422 -7.494439,5.525561 -3.514551,3.163094 -6.330813,7.142914 -9.315125,10.765319 -1.208399,1.466776 -2.650314,2.746888 -3.81072,4.251349 -10.740721,13.92528 -22.161462,32.252673 -23.5630273,50.254029 -0.2095513,2.691426 -0.3821136,5.754354 -0.084683,8.431233 0.4234581,3.81112 1.6197023,7.57353 2.4346343,11.31311 1.03505,4.74965 1.634615,9.6328 2.815708,14.34979 0.849466,3.39255 2.075646,6.65082 2.667512,10.11034 1.103844,6.45209 1.508678,13.15745 3.958928,19.31565 1.815658,4.56329 6.017352,7.93868 8.637659,12.02763 3.140079,4.90004 5.927111,10.39538 9.80204,14.75468 2.491793,2.80326 6.110298,5.80822 9.336293,7.75245 1.569525,0.94592 3.258812,1.68493 4.826926,2.6437 3.917426,2.39516 6.902024,5.15384 11.580392,6.32343 4.123881,1.03097 7.973171,1.01772 12.194344,1.19086 3.799901,0.15585 7.724349,1.19903 11.368685,2.20308 0.810475,0.22329 5.371592,1.9299 6.033659,1.61956 1.256623,-0.58904 -2.898759,-7.59431 -3.366148,-8.68133 -1.846466,-4.29436 -4.588012,-7.9701 -6.753463,-12.08716 -1.686653,-3.20675 -2.451595,-6.77992 -3.958929,-10.06272 -0.582869,-1.26942 -1.400299,-2.39893 -2.05356,-3.6321 -1.152007,-2.17466 -1.916142,-4.76522 -2.413463,-7.15703 -0.457859,-2.20202 -1.888271,-13.93516 -0.127024,-15.38583 0.715594,-0.58941 2.231496,-0.032 2.94273,0.35725 5.739437,3.14118 10.594186,10.95429 12.93532,16.86249 1.186156,2.99344 2.054286,6.10615 3.429659,9.02667 2.186334,4.64255 4.914238,8.74101 7.600298,13.0994 1.65687,2.68844 3.02005,5.53954 4.67873,8.2288 1.92904,3.12761 4.74191,8.91533 7.79082,10.69386 4.81503,2.80877 14.32874,0.73849 18.94781,-1.48856 6.02213,-2.90353 4.0774,-11.43498 2.94273,-16.54096 -0.87939,-3.95727 -1.66689,-7.97019 -2.8157,-11.86091 -0.73612,-2.49302 -1.714,-4.91343 -2.32879,-7.44283 -1.22191,-5.02732 -2.30077,-10.28238 -2.73102,-15.44538 -0.17895,-2.14739 -0.006,-4.28162 -0.0635,-6.43061 -0.0706,-2.61975 -0.68621,-8.91214 1.736,-10.69387 1.89111,-1.39105 4.23314,0.55218 5.25034,2.14354 1.29903,2.03227 2.45547,4.15763 3.76839,6.18053 3.02046,4.65381 6.55638,8.89708 9.06108,13.89727 1.3844,2.76373 2.11611,5.80234 3.1756,8.69323 1.15532,3.15232 2.22316,6.06851 2.70986,9.39584 0.34961,2.39013 1.02268,11.93738 3.70488,13.19466 3.85345,1.8063 8.91708,-5.43744 10.75473,-7.85964 0.81941,-1.08006 1.93151,-1.97721 2.64634,-3.13194 0.54083,-0.87364 0.89035,-1.76826 1.5243,-2.59607 0.73575,-0.96075 1.71312,-1.84038 2.34995,-2.88186 0.59657,-0.97565 0.87336,-2.07756 1.50312,-3.04859 1.44843,-2.23334 3.45591,-4.04808 4.89044,-6.28771 1.25981,-1.96685 2.52566,-3.95992 3.74722,-5.95426 1.81383,-2.9613 3.04537,-6.28031 4.6999,-9.32439 1.40059,-2.57687 3.02621,-5.07471 4.34,-7.69291 0.76654,-1.5276 1.10181,-3.22454 1.736,-4.81106 0.88977,-2.22588 2.0175,-4.34185 2.83688,-6.59733 1.23846,-3.40905 1.44202,-8.16503 1.86303,-11.75372 0.58044,-4.94774 1.44469,-9.86665 2.11707,-14.80231 0.48067,-3.52845 1.09948,-7.228676 0.7198,-10.801035 -0.15682,-1.475542 -0.74222,-2.880828 -0.97385,-4.346615 -0.37207,-2.354484 -0.57312,-4.59347 -1.35493,-6.871226 -1.49659,-4.360265 -4.34037,-8.054276 -6.62644,-12.015716 -5.97249,-10.349508 -13.67289,-19.55533 -22.54683,-27.52063 -4.78911,-4.298733 -10.58523,-7.205183 -15.51815,-11.348839 -1.98274,-1.665501 -3.40563,-3.744547 -5.25034,-5.513651 -0.70237,-0.673585 -1.56252,-1.109209 -2.28644,-1.750555 -0.98013,-0.868334 -1.65145,-1.941187 -2.75219,-2.703239 -4.44327,-3.076109 -8.03488,-4.38711 -12.74479,-6.228165 -2.41241,-0.942988 -4.73652,-2.272784 -7.09219,-3.358208 C 123.06576,9.6401199 118.31644,8.6692527 113.63556,7.737219 112.60042,7.5311065 111.6567,7.0045788 110.60814,6.8202618 108.26496,6.4083731 98.635209,6.4216253 96.571952,7.1179752 c -1.684613,0.5685565 -0.770195,1.4978486 0.105854,2.5007927 1.270669,1.4547301 2.484459,2.9495241 4.043604,4.1084461 2.10541,1.564953 4.25237,2.489124 5.99132,4.537153 3.56036,4.193158 5.43676,9.535235 8.48946,14.052075 4.99043,7.383939 10.18411,10.080254 9.06108,19.934893 -0.42604,3.738494 0.13358,13.30016 -6.45708,11.063031 -6.00967,-2.039919 -5.90374,-9.348621 -8.84936,-13.825812 -2.00422,-3.046312 -4.45742,-5.687362 -7.07102,-8.216892 -1.1164,-1.080479 -2.342315,-2.045542 -3.34498,-3.239122 -2.267937,-2.699766 -3.702198,-6.617541 -7.939027,-6.525879 -4.765476,0.1031 -10.367925,8.534831 -11.601561,12.587324 -0.453331,1.489192 -0.561184,3.155876 -0.677463,4.703874 -0.198644,2.644431 -0.222959,5.337812 -0.169367,7.990628 0.0045,0.225097 -0.115277,2.292612 -0.338731,2.250715 -0.665659,-0.124812 -0.721394,-0.251568 -1.164391,-0.66688 -1.449332,-1.358749 -3.008416,-2.815912 -3.831902,-4.656237 -1.77604,-3.969086 -1.509123,-8.983591 -1.545463,-13.19466 -0.06291,-7.289358 0.590388,-14.754831 -1.249074,-21.875985 -0.296371,-1.147347 -0.639427,-5.744127 -1.460781,-6.263891 -0.202911,-0.128404 -2.12599,1.614486 -2.963902,2.393616 z"
         id="path13" />
      <path
         style="fill:#000000;stroke-width:1.765"
         id="path2"
         d="m 70.21152,4.0689169 c -1.651334,0.6619494 -3.130026,1.6800425 -4.617011,2.640035 -4.52187,2.919303 1.38616,-0.9264502 -3.298854,2.1294008 -4.749038,1.8822273 -8.642906,4.8537563 -12.619969,7.9788483 -4.190746,3.54345 -8.563139,6.89377 -12.518305,10.707798 -0.847545,0.817303 -1.656644,1.673559 -2.484964,2.510338 -4.957565,4.928505 -9.275665,10.454915 -13.612357,15.925032 -3.348584,4.371065 -6.617245,8.809924 -9.394528,13.573101 -0.517941,0.888294 -0.983666,1.806022 -1.475499,2.709032 -2.941061,5.644893 -4.8881163,11.715705 -6.6439551,17.811242 -1.1382147,4.293565 -1.8373682,8.637614 -2.0095585,13.076311 -0.044894,1.157282 -0.105582,2.316451 -0.064231,3.473868 0.049091,1.374055 0.2234803,2.740769 0.3352204,4.111157 0.151996,1.40729 0.2634562,2.81954 0.4559877,4.22186 0.4306617,3.13676 1.1197608,6.67871 1.7604729,9.77146 0.9739445,4.70129 2.0733033,9.36935 3.2408871,14.02546 1.4119938,5.53237 3.2838405,10.94638 5.5030345,16.20626 0.756142,1.79219 2.509301,5.56057 3.338432,7.35998 2.886115,5.78685 5.812211,11.58773 9.343518,17.01699 0.691151,1.06262 1.440837,2.086 2.161255,3.129 4.489445,6.26991 10.157777,11.24983 16.121585,16.0513 3.049548,2.44364 6.26653,4.68456 9.656128,6.63305 4.503658,2.58891 11.526096,7.09319 17.350898,9.32566 1.294821,0.49626 2.632475,0.8726 3.948711,1.30891 6.684319,2.02534 13.530656,3.42151 20.346035,4.91618 2.682409,0.54303 5.326767,1.23 7.953457,1.9918 0.0151,0.005 0.65521,0.22624 0.74839,0.22966 0.64162,0.0236 0.97409,-1.05888 1.09166,-1.52484 -0.50833,-1.70363 -1.31538,-3.3029 -2.06932,-4.90837 -1.09181,-2.11921 -2.45616,-4.07579 -3.720991,-6.09077 -0.845659,-1.34721 -1.667868,-2.70901 -2.507996,-4.05967 -2.920778,-4.83509 -5.621878,-9.80437 -8.062434,-14.89842 -1.966944,-4.21731 -3.691808,-8.54093 -5.191405,-12.94491 -1.334582,-3.85469 -2.476998,-7.77912 -3.351668,-11.76364 -0.775004,-3.20749 -1.550508,-6.41692 -2.12853,-9.66652 -0.311045,-2.06029 -0.586902,-4.1288 -0.605386,-6.21489 0.0093,-0.95117 -0.08983,-2.01579 0.243462,-2.92802 0.008,-0.03 -0.0069,-0.0915 0.02413,-0.0899 5.29e-4,2e-5 -0.03418,0.2224 -0.08782,0.40261 -0.04431,0.14885 -0.01413,0.51273 -0.151644,0.44056 -15.200854,-7.97724 -18.895155,-8.49009 -13.441174,-7.68158 0.629266,0.48363 1.02884,1.17772 1.501219,1.79935 0.588275,0.77416 1.193795,1.53508 1.785525,2.3066 1.688886,2.31939 3.457194,4.58531 5.037629,6.98201 1.200238,1.82014 1.444874,2.31407 2.561048,4.24857 2.858894,5.58563 5.521558,11.26669 8.504613,16.78794 2.883284,5.3209 5.906495,10.56118 8.709533,15.9256 1.845191,3.449 3.316774,7.08185 5.107641,10.5566 0.993285,1.92723 1.793539,3.29105 2.861461,5.16961 1.380397,2.3851 2.764207,4.82486 4.582637,6.9149 0.68881,0.79168 1.10744,1.1382 1.85592,1.82021 4.93079,3.52236 9.94125,8.24663 16.07529,8.58706 1.12189,0.0623 2.19958,-0.13462 3.29912,-0.32196 3.13682,-0.6421 6.28125,-1.23054 9.43942,-1.76145 3.12756,-0.49588 6.27981,-0.8397 9.37194,-1.53712 2.38919,-0.7332 2.57678,-2.09762 2.788,-4.35456 0.23073,-3.72522 0.19509,-7.47595 -0.1754,-11.19244 -0.0886,-0.88828 -0.22768,-1.77079 -0.34152,-2.65619 -0.78532,-5.39351 -2.25399,-10.65588 -3.69909,-15.90161 -1.18934,-4.12299 -2.25294,-8.28165 -3.42683,-12.40862 -1.91994,-6.74979 0.16042,1.02337 -1.55265,-5.48461 -1.22354,-4.55848 -2.11701,-9.19607 -3.01774,-13.82671 -0.37872,-1.93829 -0.63809,-3.89789 -0.99642,-5.83959 -0.24015,-1.30127 -0.1237,-0.40902 -0.23993,-1.45978 -0.0623,-0.64467 0.0291,-0.46006 0.47486,-0.51291 0.56943,-0.072 0.7869,-0.67727 0.85321,-1.17588 -0.0799,0.35246 -0.42354,0.61785 -0.48685,0.97579 -0.0364,0.20589 0.6277,0.54467 0.44627,0.44076 -11.94766,-6.84281 -17.51806,-10.21915 -12.15849,-6.97924 4.02376,2.60526 7.08281,6.32751 10.03174,10.03989 3.55066,4.75688 6.785,9.7753 9.36753,15.12924 0.52262,1.08346 0.97538,2.19925 1.46307,3.29886 2.05207,4.83324 3.44026,9.91415 4.18082,15.11009 0.12554,0.88082 0.20531,1.76754 0.30796,2.65131 0.38025,4.16833 0.34635,8.35431 0.42325,12.5344 0.11996,2.22653 1.5e-4,4.46328 0.13377,6.68783 -0.008,0.58536 0.0966,1.14618 0.11222,1.72815 0.003,0.12945 0.0489,0.43686 0.007,0.58742 -0.0478,0.17186 -0.126,0.33379 -0.18901,0.50069 4.984,2.40933 9.8101,5.17711 14.95199,7.22799 0.37624,0.15007 0.46619,-0.66368 0.72543,-0.97493 0.36346,-0.43638 0.76229,-0.84205 1.14068,-1.26555 1.86243,-2.08443 3.81792,-4.06426 5.76605,-6.06932 0.83326,-0.84598 1.66218,-1.69624 2.49978,-2.53792 0.85521,-0.85938 1.74391,-1.68585 2.57859,-2.56519 0.77805,-0.81968 4.12175,-4.61865 4.83464,-5.48261 1.88694,-2.2868 2.79998,-3.61919 4.55437,-6.02863 0.72033,-1.10419 1.46509,-2.19283 2.16099,-3.31258 0.73493,-1.18253 1.42534,-2.39217 2.13053,-3.59267 1.02813,-1.75025 3.43527,-5.87739 4.39337,-7.66607 0.72207,-1.34803 3.37604,-6.68195 4.07396,-8.07836 2.28116,-5.11699 4.28168,-10.39769 5.61234,-15.84917 0.49842,-2.04194 1.17839,-5.73116 1.57292,-7.79016 0.74321,-4.14701 1.16385,-8.33603 1.63366,-12.51867 0.1606,-1.42989 0.39563,-2.85207 0.51043,-4.28636 0.23967,-2.99441 0.21904,-6.37383 0.24843,-9.37001 -0.30769,-1.91003 -0.62698,-3.81822 -0.92308,-5.73008 -0.29321,-1.893224 -0.52775,-3.795578 -0.84484,-5.684946 -0.95297,-5.678176 -2.24733,-11.334846 -4.16219,-16.773972 -0.61391,-1.743798 -1.36938,-3.43448 -2.05407,-5.151721 C 197.21405,66.498352 193.36347,60.62687 188.72705,55.379719 185.92618,52.2099 184.67979,51.141311 181.62877,48.22505 174.89435,42.036617 167.69471,36.386509 160.45191,30.812111 155.94183,27.378555 151.3628,24.029718 146.45837,21.175055 131.74182,12.609173 135.98308,14.868389 127.55818,10.5169 120.55221,7.0258463 113.09054,4.5874333 105.55177,2.5488923 101.78427,1.6257723 97.974791,0.83859695 94.122772,0.36567125 93.161375,0.31798689 91.870224,0.20233693 91.105361,0.96451535 90.780453,1.288285 90.6715,1.6867316 90.510048,2.0958582 c -0.274073,1.8712473 0.905667,3.3683053 2.005182,4.7445234 2.93869,3.1010033 5.958139,6.1197604 8.83961,9.2767194 3.70761,3.987079 6.98183,8.324548 10.06976,12.799236 1.91175,2.922556 3.80037,5.894144 5.29293,9.05987 0.87543,1.856767 1.20635,2.933023 1.88778,4.849149 1.43505,4.435604 1.52049,9.068395 1.12876,13.666536 -0.26648,2.048433 -0.3739,4.179509 -1.03865,6.152287 0.20328,-0.07671 -0.45882,0.970426 -0.45793,0.69905 0.002,-0.557281 0.18708,-0.13971 -0.0354,-0.523578 -1.4436,0.04225 -2.88073,0.0067 -4.31248,-0.194543 -0.2673,-0.0671 -0.54891,-0.09198 -0.80189,-0.201308 -0.2471,-0.106789 -0.91274,-0.570553 -0.67825,-0.438349 4.41473,2.489015 8.77585,5.073698 13.22019,7.50946 0.23904,0.131008 -0.43007,-0.350068 -0.57652,-0.579977 -0.43669,-0.685546 -0.6271,-1.666478 -0.82973,-2.418988 -0.81214,-4.119808 -2.88324,-7.462364 -5.0494,-10.976779 -1.81113,-2.730119 -3.29322,-5.652902 -4.89571,-8.504351 -0.87882,-1.56377 -1.56943,-2.705254 -2.48102,-4.238829 -2.05412,-3.363076 -4.52263,-6.285254 -7.48207,-8.872529 -5.257625,-4.141462 -11.32582,-6.929499 -17.196866,-10.22515 -0.856435,-0.480753 -1.8727,-0.628453 -2.829772,-0.709975 -1.342728,-0.07821 -2.198264,0.806693 -3.177444,1.580655 -1.118836,0.884347 -1.028698,0.804306 -2.235629,1.710898 -2.879423,2.148536 -5.866712,4.148815 -8.627954,6.451841 -1.261451,1.136009 -2.405507,2.452917 -3.1862,3.973814 -0.378163,0.736711 -0.490468,1.276225 -0.715079,2.064268 -0.583191,2.177331 -0.184483,4.420738 0.181857,6.598127 0.442915,2.883677 1.619205,5.546333 2.938142,8.120652 1.503275,2.628797 3.07014,5.218004 4.543769,7.863853 1.040894,1.88776 1.927931,3.852585 2.615499,5.895263 0.140361,0.637008 0.348329,1.269558 0.440399,1.917354 0.01672,0.117713 0.0096,0.237601 0.01529,0.356356 5.3e-4,0.01117 0.0034,0.04448 0.0035,0.03331 7.94e-4,-0.04998 -0.0011,-0.09997 -0.0019,-0.149958 -0.01066,-0.186994 -0.005,-0.391369 -0.087,-0.567343 -0.05489,-0.117793 -0.328139,-0.388488 -0.214413,-0.325604 26.016481,14.38552 17.062315,10.343313 12.534995,6.970305 -2.360425,-2.045748 -4.526142,-4.317439 -6.638351,-6.616536 -1.877554,-2.090145 -3.316284,-4.510934 -4.429738,-7.083679 -0.573681,-1.325547 -1.089361,-2.896463 -1.561463,-4.258744 -1.472888,-4.07887 -2.362189,-8.394322 -2.519783,-12.735092 -0.03347,-0.921993 -5.29e-4,-1.845198 -7.94e-4,-2.767798 0.157295,-6.042287 1.966733,-11.647098 3.923118,-17.294272 0.840515,-2.68977 2.167974,-5.235059 2.778498,-7.995668 0.0038,-0.73677 0.102949,-1.642533 -0.398473,-2.265787 -0.122989,-0.152872 -0.274135,-0.280776 -0.411203,-0.421164 -3.748794,-4.3370121 -0.817395,-1.033997 -13.989486,-8.2081835 -0.160023,-0.087157 -0.367088,0.027804 -0.539925,0.08552 -1.016404,0.3394083 -1.081495,0.7737102 -1.42671,1.7165318 0.188955,1.9805206 1.253556,4.9714767 -0.02704,6.7963427 -0.504045,0.718271 -1.430163,1.017119 -2.145244,1.525679 0,0 0.337513,0.214674 0.337513,0.214674 v 0 c 0.714981,-0.508403 1.317527,-1.233569 2.144945,-1.525208 1.124352,-0.3963 2.352974,-0.430368 3.544091,-0.480003 2.194145,-0.09143 4.61481,0.288655 6.79368,0.559591 0.196651,0.01601 2.024568,0.144897 2.488096,0.236771 0.199234,0.03949 0.394886,0.103 0.580208,0.186124 0.124031,0.05563 0.456906,0.294405 0.339262,0.226297 C 65.084159,7.7887911 60.461351,6.5698729 65.528718,7.9333435 c 0.350181,0.4918702 1.008599,0.6790209 1.065897,1.3604902 0.07845,0.9021703 -0.03724,1.6811593 -0.239358,2.5700623 -0.42582,1.872721 -0.984443,3.713131 -1.532826,5.552286 -1.733132,5.790583 -3.561683,11.612264 -4.19853,17.647116 -0.110384,2.580617 -0.216263,3.001415 0.0123,5.540994 0.314291,3.492096 1.238144,6.894304 1.994,10.306119 1.370267,4.130545 2.81001,8.320109 5.516841,11.794564 1.863071,2.284984 3.936306,4.371023 5.924497,6.544638 4.421129,4.824825 6.846276,4.616638 15.887311,9.58015 0.250298,0.137411 0.947147,-0.148 1.122307,-0.264332 0.18534,-0.123095 0.322447,-0.306663 0.483671,-0.459997 0.262057,-0.42437 0.452641,-0.619358 0.49984,-1.133081 0.01593,-0.173352 -0.04019,-0.345842 -0.06108,-0.518668 -0.09063,-0.749853 -0.227621,-1.489014 -0.469447,-2.207702 -0.701019,-2.251387 -1.798439,-4.32645 -2.938577,-6.385028 -1.47149,-2.696175 -3.072103,-5.317135 -4.695422,-7.924022 -1.369783,-2.360025 -2.494362,-4.811834 -2.917513,-7.533883 -0.346996,-1.941206 -0.694365,-3.921405 -0.391583,-5.892332 0.250322,-0.889285 0.552238,-1.796843 1.023286,-2.600002 0.597019,-1.01795 1.446244,-1.884656 2.209954,-2.771515 0.738793,-0.70715 1.486884,-1.455092 2.292114,-2.087669 1.967058,-1.545291 4.132252,-2.84631 6.251506,-4.164827 1.241338,-0.754748 2.629993,-1.853211 4.140825,-1.961161 0.327805,-0.02341 0.807217,0.06463 1.129561,0.112062 0.653987,0.198366 0.775335,0.215172 1.428885,0.50323 0.28837,0.127103 1.123403,0.569944 0.851932,0.4099 C 76.584798,20.194217 84.604538,24.8556 89.434554,27.917927 c 3.294309,2.495812 5.994231,5.192572 8.295389,8.658478 0.454628,0.685631 0.926737,1.359988 1.363885,2.056895 2.178752,3.473413 3.955082,7.1809 6.069222,10.691958 1.98593,3.258121 4.217,6.486578 4.90557,10.316107 0.12606,0.884359 0.20044,1.776526 0.35672,2.656049 0.0655,0.368704 -0.0521,0.886621 0.26047,1.092824 7.83807,5.170442 9.74465,7.91778 16.21045,8.917093 1.60596,0.152464 3.25042,0.298093 4.85168,0.03808 0.15811,-0.09317 0.34116,-0.153231 0.47432,-0.279514 0.54373,-0.515646 0.40674,-1.308227 0.54602,-1.970407 0.0432,-2.264905 0.15099,-4.529167 0.19103,-6.794942 0.005,-3.094456 -0.0325,-6.171539 -0.37856,-9.251 -0.099,-0.881232 -0.17764,-1.767255 -0.34862,-2.637393 -0.16809,-0.855472 -0.44437,-1.686084 -0.66655,-2.529126 -0.89836,-2.551239 -1.85078,-5.087694 -3.06729,-7.509526 -1.18247,-2.354061 -2.63396,-4.57069 -4.05481,-6.783228 -3.0989,-4.522261 -6.43483,-8.889517 -10.06138,-13.003093 -2.76179,-3.059766 -5.56757,-6.078809 -8.43182,-9.043084 -0.9282,-1.049442 -1.80344,-2.094527 -2.33613,-3.4039302 -0.44185,-0.325548 2.15942,-0.1249574 2.11426,-0.1592082 3.57661,0.2840757 7.08828,1.1081354 10.59705,1.8190894 2.74471,0.671213 3.56644,0.82738 6.35838,1.710695 5.35113,1.692996 10.51926,3.898656 15.47922,6.523722 4.24179,2.263435 9.69205,5.231961 -4.45361,-2.787708 -1.18445,-0.671507 2.34089,1.391997 3.49091,2.120891 2.49053,1.578515 4.44978,2.947872 6.83115,4.689676 1.15264,0.843074 2.28506,1.71345 3.42759,2.570175 7.24476,5.558116 14.43807,11.193149 21.24469,17.287482 2.91603,2.718019 4.48852,4.07824 7.19219,7.023732 4.68407,5.103027 8.67305,10.806483 11.6431,17.074647 0.72012,1.691389 1.51339,3.353467 2.16037,5.074163 1.98729,5.285396 3.22597,10.774574 3.92873,16.369916 0.22679,1.805734 0.45024,3.616955 0.50995,5.435894 0.0552,1.682742 -0.11052,3.365484 -0.16578,5.048226 -0.005,1.56067 0.0435,3.12244 -0.0151,4.68202 -0.0561,1.49314 -0.21312,2.98079 -0.32854,4.47051 -0.11209,1.4467 -0.20307,2.89553 -0.35398,4.3387 -0.43499,4.15958 -1.11085,8.29614 -1.60067,12.44922 -0.18523,1.31987 -0.33965,2.64444 -0.55569,3.95962 -1.11146,6.76601 -2.89036,13.43023 -5.6823,19.7053 -0.60681,1.34966 -1.17498,2.71737 -1.82043,4.04899 -0.65814,1.35779 -1.38137,2.68315 -2.08876,4.01595 -2.62828,4.9519 -5.45036,9.7946 -8.57216,14.45372 -0.70288,1.04479 -1.37997,2.10741 -2.10864,3.13438 -3.46876,4.88877 -7.55516,9.3096 -11.94911,13.37576 -1.13483,0.98346 -3.515,3.06349 -4.7339,4.05683 -0.62132,0.50634 -1.26802,0.98074 -1.89743,1.47699 -0.45922,0.36207 -0.89287,0.75748 -1.36836,1.0979 -0.30568,0.21886 -1.28671,0.37396 -0.96967,0.57602 4.53688,2.89152 9.41688,5.20569 14.12532,7.80854 -0.13597,0.10021 -0.23991,0.28324 -0.40793,0.30063 -0.10748,0.0111 -0.38355,-0.97713 -0.38931,-1.00703 -0.0749,-0.38917 0.009,-0.79985 -0.12802,-1.18202 -0.12273,-2.29995 -0.4619,-4.58478 -0.57916,-6.88597 -0.28133,-4.3278 -0.51207,-8.66156 -1.01678,-12.97081 -0.27215,-2.02472 -0.45159,-3.60577 -0.85888,-5.61689 -0.88764,-4.3829 -2.31307,-8.65517 -3.9954,-12.79106 -0.90922,-2.02372 -2.12819,-4.80668 -3.14086,-6.77983 -2.10874,-4.10881 -4.56569,-8.05095 -7.2356,-11.81514 -2.62288,-3.53889 -5.3158,-7.07663 -8.63655,-9.99922 -5.17946,-3.90073 -0.96894,-0.77846 -15.18087,-8.92341 -0.92949,-0.5327 -1.28257,-0.0443 -1.767,0.76984 -0.0606,-0.35761 0.088,-0.51057 -0.4306,-0.25276 -0.10792,0.0613 -0.62588,0.35153 -0.68425,0.40396 -0.60589,0.54433 -0.79572,1.3374 -0.78214,2.11816 0.45204,2.62597 1.43917,5.12255 1.94249,7.74038 0.9681,4.73408 1.88946,9.48421 3.30888,14.11053 0.57713,1.8581 1.11216,3.72928 1.70526,5.58234 0.31845,0.99494 0.689,1.97274 1.00531,2.96836 0.98286,3.09361 1.8283,6.23548 2.52558,9.40537 0.60978,2.72848 0.65769,3.05693 1.33188,5.66008 0.85868,3.3155 1.80481,6.61878 2.30765,10.01404 0.22762,1.76263 0.46237,3.31948 0.55887,5.09508 0.14553,2.67791 -0.013,5.39723 -0.50497,8.03237 -0.0941,0.44174 -0.25373,1.94093 -0.76906,2.27739 -0.32828,0.21432 -0.74592,0.26769 -1.07195,0.48398 -2.71068,0.96159 -5.57548,1.46706 -8.39494,1.98672 -3.24983,0.46951 -6.4949,0.95789 -9.73974,1.45994 -1.03211,0.047 -2.07825,0.10691 -3.09863,-0.11362 -0.27648,-0.0598 -1.05419,-0.39328 -0.81164,-0.24772 11.01954,6.6136 16.8554,9.22129 11.39145,6.74247 -0.35417,-0.2296 -0.72642,-0.43346 -1.0625,-0.6888 -2.73305,-2.07656 -4.61696,-5.09975 -6.51652,-7.88893 -0.47444,-0.82287 -0.96711,-1.6355 -1.42332,-2.46862 -2.3434,-4.27955 -4.26858,-8.77492 -6.43986,-13.14038 -2.77549,-5.46433 -5.87914,-10.74381 -8.932225,-16.05632 -1.557213,-2.8848 -3.131862,-5.76122 -4.541242,-8.72259 -2.740692,-5.75869 0.08964,0.007 -2.447454,-5.51368 -0.372914,-0.8114 -0.786836,-1.60332 -1.180256,-2.40499 -0.386781,-0.75878 -0.749924,-1.53008 -1.160349,-2.27634 -1.699249,-3.08967 -3.817469,-5.92844 -5.769779,-8.85666 -0.464092,-0.71061 -0.909185,-1.43366 -1.380895,-2.13924 -0.0031,-0.005 -0.7699,-1.07177 -0.820666,-1.15455 -0.01463,-0.0239 -0.295912,-0.61872 -0.319897,-0.6693 -1.003792,-5.98741 -12.531272,-12.8774 -15.181196,-6.80455 -0.07733,1.12539 -0.339971,2.24049 -0.225377,3.38096 0.219122,2.20725 0.562067,4.40148 0.934598,6.58746 0.604136,3.3289 1.381807,6.61458 2.297927,9.87215 1.15742,3.96039 2.066753,7.98947 3.365797,11.90923 1.601769,4.50949 3.273541,9.00549 5.461444,13.27067 2.558664,5.04083 5.21866,10.02647 7.959455,14.97073 1.86984,3.36572 3.984384,6.58313 5.919182,9.91127 0.736327,1.33995 1.439595,2.72702 1.745575,4.23764 0.381722,-0.21826 0.145732,-0.0449 0.546372,-0.60601 0.299652,-0.41967 0.07049,-0.25419 -0.279154,-0.28032 -2.17874,-0.1954 -4.347135,-0.44813 -6.497711,-0.86939 -6.440972,-1.079 -12.917043,-2.13566 -19.129893,-4.21146 -1.346044,-0.50038 -2.709392,-0.95647 -4.038129,-1.50114 -1.205709,-0.49425 -4.587415,-2.41603 -3.56062,-1.61372 2.007275,1.56844 4.364519,2.62823 6.544858,3.94553 1.133882,0.68506 -2.291136,-1.33241 -3.405482,-2.04881 -1.068006,-0.6866 -2.106654,-1.41849 -3.138558,-2.15825 -0.994045,-0.71261 -1.958716,-1.46534 -2.938077,-2.198 -6.002157,-4.71116 -11.889004,-9.65439 -16.464536,-15.82389 -1.975956,-2.77123 -2.493912,-3.39933 -4.287612,-6.31373 -2.728139,-4.43268 -5.083102,-9.08906 -7.447174,-13.72087 -3.756501,-7.61278 -7.118072,-15.42715 -9.43375,-23.6126 -1.003844,-3.51913 -1.645825,-5.62053 -2.492152,-9.19955 -1.44035,-6.09129 -2.480166,-12.28854 -2.90898,-18.53634 -0.07417,-2.46094 -0.190487,-4.88931 -0.108087,-7.351022 0.146016,-4.362199 0.738701,-8.707184 1.747129,-12.952212 0.677093,-2.643473 0.902415,-3.67489 1.731457,-6.292257 1.238987,-3.911605 2.77116,-7.735509 4.58363,-11.416112 0.917958,-1.768869 1.876111,-3.683598 2.906039,-5.39121 2.285286,-3.788992 4.934747,-7.360418 7.593283,-10.890094 1.326839,-1.742797 2.921153,-3.859088 4.289552,-5.566733 2.866195,-3.57677 5.92376,-6.995295 8.963521,-10.423578 2.101689,-2.099336 2.787499,-2.826662 4.962191,-4.832289 3.168772,-2.922421 6.518887,-5.641279 9.872054,-8.346911 1.958592,-1.563133 2.493336,-2.010088 4.462619,-3.504385 2.255438,-1.711435 4.561488,-3.374281 6.569575,-5.383687 2.469824,-1.630214 4.986493,-3.238926 7.236052,-5.1661042 z" />
      <path
         style="fill:#552200;stroke-width:1.765"
         d="m 49.008367,41.628037 c -4.607523,4.304371 -7.721497,10.002649 -10.670048,15.516825 -4.838697,9.048991 -8.560172,17.967232 -8.870539,28.34232 -0.195528,6.536251 -0.674216,13.224936 0.06351,19.732448 0.561031,4.94886 1.989119,10.01443 3.408488,14.77848 1.030581,3.4591 2.465944,6.57056 3.916586,9.86027 1.258739,2.85453 2.187657,5.82833 3.429659,8.69323 1.251167,2.88605 3.060713,5.50258 4.488196,8.30026 1.980028,3.88059 3.688061,7.90334 5.504391,11.8609 1.446977,3.15279 3.391998,5.86358 5.22917,8.7885 1.751068,2.78783 3.368341,5.2815 5.694928,7.63337 0.136462,0.13795 2.346468,2.4172 2.476976,2.20308 0.569421,-0.9342 -0.716766,-4.18431 -0.995023,-5.09685 -1.127498,-3.69761 -2.448708,-7.35761 -3.302635,-11.13448 -0.76173,-3.3691 -1.252424,-6.79088 -2.074733,-10.14608 -1.317694,-5.37648 -3.055914,-10.63777 -4.276487,-16.0408 -1.860457,-8.23555 -3.321934,-16.69214 -4.170635,-25.09129 -0.809604,-8.0122 -0.771043,-16.1908 -0.635122,-24.233861 0.06959,-4.117975 0.01627,-8.252179 0.338731,-12.361063 0.303138,-3.862832 1.107138,-7.718935 1.545463,-11.5751 0.278526,-2.45033 0.427217,-4.928714 0.762148,-7.371384 0.398198,-2.904112 1.428858,-5.654458 2.307608,-8.431244 0.316426,-0.999879 0.647465,-1.948196 0.656294,-3.000952 0.0039,-0.461798 -0.54429,-1.236319 -0.105855,-1.38139 2.20294,-0.728921 4.604507,-0.579289 6.90676,-0.868934"
         id="path3" />
      <path
         style="fill:#552200;stroke-width:1.765"
         d="m 131.5954,31.005619 c 12.26973,15.830026 18.64832,34.930458 23.01259,54.279117 2.06201,9.141785 3.25716,18.642074 4.21297,27.961234 1.03776,10.11812 0.73117,20.0908 -0.14819,30.20005 -0.23879,2.74512 -2.10835,13.54996 -0.69864,15.88599 0.1664,0.27574 1.53061,-1.32341 1.84186,-1.71483 1.31097,-1.64866 2.33684,-3.50517 3.51434,-5.25166 6.16401,-9.1426 12.23638,-18.36214 13.54925,-29.59272 0.73325,-6.27244 -0.0334,-12.65556 -0.67747,-18.89884 -0.77463,-7.5094 -1.80331,-14.546266 -3.74722,-21.911705 -0.54603,-2.068923 -2.91865,-7.06832 -3.66251,-8.609873 C 164.20854,63.85297 157.76976,53.547405 150.58555,45.772208 146.2941,41.127736 138.86258,31.818493 131.10847,33.030071"
         id="path4" />
      <path
         style="fill:#000000;stroke-width:1.765"
         d="m 94.461934,65.516565 c 4.179525,-0.20895 7.133146,-3.69469 10.902926,-4.942044 0.90177,-0.298381 0.37866,1.433444 0.29639,1.798188 -0.33452,1.483233 -0.89688,2.277567 -1.86302,3.489203 -0.35935,0.450659 -1.75915,1.402993 -1.20673,1.238488 1.75388,-0.522298 -0.59283,0.142915 0.63512,-0.202446"
         id="path7" />
      <path
         style="fill:#000000;stroke-width:1.765"
         d="m 86.332373,51.381129 c 0.501041,-0.269928 1.00208,-0.539854 1.503122,-0.809781 0.18348,-0.115115 0.362563,-0.237554 0.550439,-0.345348 1.247526,-0.715767 1.948061,-1.400167 2.582831,0.214355 1.06545,2.709952 -1.642687,6.335739 -4.340003,4.144171"
         id="path9" />
      <path
         style="fill:#000000;stroke-width:1.765"
         d="m 93.847984,47.010696 c 0.501039,-0.150841 1.013182,-0.268798 1.503122,-0.452525 0.390594,-0.146473 2.270977,-1.521081 2.773365,-1.238488 1.101815,0.619771 1.041725,4.094147 0.359902,4.906317 -0.761079,0.906582 -2.542553,1.178939 -2.836878,-0.178628"
         id="path10" />
      <path
         style="fill:#ffffff;stroke-width:1.765"
         d="m 98.28678,65.362635 c 0.0071,0.603367 -0.04643,1.210487 0.02117,1.810097 0.0241,0.213876 1.538716,2.701681 1.587805,2.643695 0.687745,-0.812403 0.248485,-2.936933 0.190535,-3.882183 -0.0304,-0.49589 -0.0243,-0.995664 -0.0847,-1.488567 -0.01172,-0.09559 0.003,-0.373812 0.0423,-0.285806 0.0491,0.11053 0.0423,0.238173 0.0635,0.357256"
         id="path11" />
      <path
         style="fill:#ffffff;stroke-width:1.765"
         d="m 102.30922,62.909477 c 2.25113,2.389849 0.88693,0.830482 1.88419,2.095902 0.45728,0.580239 0.54388,0.667065 0.99503,1.21467 0.48274,0.58596 1.34829,2.061874 0.95268,0.476343 -0.25949,-1.039998 -0.95654,-3.538707 -1.60897,-4.429977 -0.10766,-0.147074 -0.49191,0.167243 -0.5081,0.178628"
         id="path12" />
      <path
         style="fill:#2b1100;stroke:#000000;stroke-width:2.965;stroke-dasharray:none;stroke-opacity:1"
         d="m 89.126992,38.60732 c -0.936181,-0.799954 -1.889871,-1.548664 -2.476976,-2.643695 -2.991448,-5.579441 -1.059043,-16.388277 1.841852,-21.887892 1.471535,-2.789786 3.683314,-5.0202618 5.779611,-7.3237508 0.762068,-0.8373904 4.286435,-4.1478006 5.504391,-3.9060006 1.51156,0.3000886 3.24106,3.258625 4.00127,4.3704335 4.51736,6.6066539 5.46787,13.8995949 4.29766,21.6973549 -0.53755,3.581935 -1.79509,6.937701 -4.21298,9.657826 -0.78614,0.884407 -1.691,1.65608 -2.28644,2.691329 -0.16172,0.281178 -0.32965,0.903369 -0.48693,0.416798"
         id="path15" />
      <path
         style="fill:#2b1100;stroke:#000000;stroke-width:2.965;stroke-dasharray:none;stroke-opacity:1"
         d="m 80.167268,49.384645 c -1.170385,0.382832 -2.306134,0.807291 -3.546718,0.738462 -6.321071,-0.350689 -14.5435,-7.62783 -17.728758,-12.967782 -1.615783,-2.708794 -2.368649,-5.758414 -3.243975,-8.747449 -0.318209,-1.086606 -1.309755,-5.819133 -0.469219,-6.733126 1.043158,-1.134322 4.469534,-1.070685 5.814563,-1.140917 7.992518,-0.417342 14.714009,2.567957 20.76242,7.626733 2.778361,2.323774 4.988782,5.14452 6.0524,8.625036 0.34582,1.131636 0.53358,2.305943 1.107468,3.353293 0.155873,0.284461 0.599666,0.751762 0.102359,0.63272"
         id="path15-2" />
      <path
         style="fill:#803300;stroke:none;stroke-width:2.965;stroke-dasharray:none;stroke-opacity:1"
         d="m 77.805054,42.794536 c -3.923371,-2.371077 -8.781714,-7.13645 -11.115601,-11.135947 -0.172598,-0.295773 -2.318128,-3.570071 -1.5813,-3.915458 0.769135,-0.360532 3.538,1.260946 3.937746,1.430144 1.255863,0.531567 2.553321,0.965581 3.736205,1.656877 2.199322,1.285317 4.04922,3.294737 5.891114,5.031668 1.331542,1.255665 2.824509,3.147349 4.526854,3.985223"
         id="path17" />
      <path
         style="fill:#803300;stroke:none;stroke-width:2.965;stroke-dasharray:none;stroke-opacity:1"
         d="m 93.509519,33.65556 c -2.499524,-4.992369 -0.859372,-9.963613 1.286746,-14.763634 0.681193,-1.523568 1.467646,-3.620511 3.023071,-4.473564 2.644834,-1.450524 3.571494,4.038436 3.596684,5.450249 0.0289,1.62091 -0.1938,3.211498 -0.46509,4.804939 -0.3186,1.871281 -0.60634,3.74788 -1.069704,5.589774 -0.306065,1.216597 -1.201471,2.951965 -1.100709,4.255556"
         id="path18" />
    </g>
  </g>
</svg>
