<?xml version="1.0" encoding="UTF-8" standalone="no"?>
<!-- Created with Inkscape (http://www.inkscape.org/) -->

<svg
   width="512"
   height="512"
   viewBox="0 0 512 512"
   version="1.1"
   id="svg1"
   inkscape:version="1.3 (0e150ed6c4, 2023-07-21)"
   sodipodi:docname="candy_apple.svg"
   inkscape:export-filename="candy_apple.png"
   inkscape:export-xdpi="96"
   inkscape:export-ydpi="96"
   xmlns:inkscape="http://www.inkscape.org/namespaces/inkscape"
   xmlns:sodipodi="http://sodipodi.sourceforge.net/DTD/sodipodi-0.dtd"
   xmlns="http://www.w3.org/2000/svg"
   xmlns:svg="http://www.w3.org/2000/svg">
  <sodipodi:namedview
     id="namedview1"
     pagecolor="#ffffff"
     bordercolor="#000000"
     borderopacity="0.25"
     inkscape:showpageshadow="2"
     inkscape:pageopacity="0.0"
     inkscape:pagecheckerboard="0"
     inkscape:deskcolor="#d1d1d1"
     inkscape:document-units="mm"
     inkscape:zoom="0.58781078"
     inkscape:cx="304.51976"
     inkscape:cy="462.73394"
     inkscape:window-width="1920"
     inkscape:window-height="1028"
     inkscape:window-x="0"
     inkscape:window-y="30"
     inkscape:window-maximized="1"
     inkscape:current-layer="g1" />
  <defs
     id="defs1" />
  <g
     inkscape:label="Layer 1"
     inkscape:groupmode="layer"
     id="layer1">
    <g
       id="g1"
       transform="matrix(1.5668159,-1.5296912,1.5296912,1.5668159,-51.002711,261.94917)">
      <path
         style="fill:#c98758;fill-opacity:1;stroke-width:2.03023"
         d="m 86.498802,199.85201 c 0.202548,-0.86357 1.787563,-2.76386 0.607624,-2.59071 -1.179955,0.17324 -0.639485,1.77761 -0.607624,2.59071 0.05311,1.35533 0.645233,2.53438 0.859588,3.83962 0.614614,3.74235 0.15411,7.98235 -0.277417,12.00407 -0.501518,4.67421 -1.064449,9.36323 -1.361967,13.99274 -0.265769,4.13586 -0.134919,8.1693 -0.475183,12.3252 -0.109943,1.34289 -0.174281,2.67036 -0.223692,3.99796 -0.0043,0.1168 -0.22893,0.6811 -0.126828,0.72036 1.468281,0.56468 5.837321,-1.21793 7.637423,-1.66501 2.584035,-0.64176 5.019756,-0.66365 7.573014,-1.13877 3.97899,-0.74045 12.51142,-1.85933 16.31194,-3.92599 2.20759,-1.20045 1.48789,-3.21163 1.40871,-4.4715 -0.43656,-6.94543 -0.61984,-14.01028 -0.61067,-21.07849 0.007,-5.11309 1.66412,-10.40814 2.65072,-15.69733 0.57788,-3.09819 0.70837,-6.10965 0.86986,-9.112 0.0713,-1.32596 0.0881,-2.76777 0.85061,-4.18936 0.0397,-0.074 0.25761,-0.35703 0.1602,-0.42884 -0.55606,-0.41017 -3.62478,0.22631 -4.601,0.30217 -1.39384,0.10828 -2.76853,0.10755 -4.22813,0.43043 -2.43416,0.53847 -4.79647,1.34624 -7.22281,2.03754 -5.39882,1.53822 -11.379129,2.88837 -16.582231,5.4612 -2.088211,1.03259 -0.148723,3.21349 -0.829701,4.39158 -0.43695,0.75592 -1.793674,1.50033 -1.782493,2.20443 0.0082,0.51859 6.495667,6.56676 0,0"
         id="path3" />
      <ellipse
         style="fill:#803300;stroke-width:1.79764"
         id="path1"
         cx="122.27911"
         cy="83.123894"
         rx="106.31384"
         ry="107.57445"
         transform="matrix(0.97955562,0.20117354,-0.23558297,0.97185424,0,0)" />
      <path
         style="fill:#000000;stroke-width:1.765"
         id="path2"
         d="m -3.3146349,86.054955 c -1.0270191,2.14407 -1.581718,4.517181 -1.9943489,6.849761 -0.5250043,3.773919 -0.3614619,7.585754 -0.1111385,11.372484 0.4133776,4.9306 1.0669738,9.83455 1.7876943,14.72798 0.8453535,5.27995 1.6455082,10.56821 2.66770037,15.81767 0.71350218,3.46051 1.34156245,6.94877 2.23407973,10.36996 0.6994746,2.68122 0.9052618,3.14992 1.7904647,5.81034 1.709235,4.85959 3.7228467,9.61082 6.2006328,14.13169 0.4826643,0.88065 1.0039524,1.73958 1.5059284,2.60936 3.404632,5.88709 8.16729,10.8262 12.889729,15.66292 4.716645,4.77477 10.10484,8.79273 15.472876,12.79111 3.0827,2.27675 6.188839,4.53555 9.504494,6.46697 13.493684,7.86025 9.386033,5.71931 16.36308,9.26639 3.17556,1.482 6.435587,2.91132 9.860187,3.72002 0.568944,0.13435 1.146278,0.23031 1.719416,0.34546 3.51256,0.74404 7.01962,0.3432 10.504813,-0.30137 3.974441,-1.07151 7.862532,-2.49838 11.554237,-4.32078 3.10304,-1.47747 5.94788,-3.37886 8.67911,-5.44823 1.89368,-1.53409 3.76291,-3.10988 5.85032,-4.37973 0.17947,-0.0867 0.34496,-0.21208 0.53841,-0.26 0.34871,-0.0864 0.50687,-0.004 0.68664,0.26861 0.0734,0.11124 0.2798,0.42895 0.16288,0.36505 -9.83062,-5.37337 -18.431544,-10.66558 -13.31756,-7.52346 1.2678,1.08502 2.43879,2.27816 3.65474,3.42051 5.82705,4.81479 12.45737,8.92107 19.61796,11.38505 0.43015,0.11325 0.85047,0.27444 1.29046,0.33976 0.54567,0.081 1.10081,0.0771 1.65209,0.0971 3.38954,0.1231 6.69852,-0.30278 10.05397,-0.7335 4.17225,-0.58068 8.31187,-1.52511 12.30633,-2.87109 2.34077,-0.78874 3.55953,-1.32948 5.83403,-2.26096 5.67487,-2.22773 10.56144,-5.84519 15.29828,-9.60185 0.78701,-0.65746 1.61153,-1.27248 2.36104,-1.97239 0.88442,-0.8259 1.68017,-1.74207 2.53442,-2.59912 1.18046,-1.18433 4.46635,-4.34573 5.58495,-5.54895 0.36088,-0.38818 5.42083,-6.23524 5.7362,-6.59922 3.54818,-4.17435 7.0868,-8.36268 10.41023,-12.72035 1.92976,-2.53028 2.50113,-3.40488 4.31926,-6.006 2.67717,-4.0401 5.1678,-8.22907 7.29062,-12.59023 0.47877,-0.9836 0.99965,-1.9531 1.36733,-2.9834 0.42819,-1.19985 0.67501,-2.45689 1.01251,-3.68533 1.49665,-5.06517 2.38853,-10.2859 2.72136,-15.55624 0.16042,-2.54019 0.12609,-5.5243 0.12969,-8.07028 -0.068,-1.31971 -0.13061,-2.6397 -0.20391,-3.95912 -0.0686,-1.2348 -0.11654,-2.47127 -0.22183,-3.70349 -0.41766,-4.88793 -1.30165,-9.717012 -2.18705,-14.53603 -1.03093,-4.998577 -1.66496,-10.085334 -2.86244,-15.050325 -0.60885,-2.52439 -1.80552,-6.520762 -2.52455,-8.989431 -2.5052,-8.827124 -6.07347,-17.293737 -10.01341,-25.563282 -2.53,-4.893008 -5.24127,-9.705689 -8.43334,-14.201915 -2.13351,-3.005185 -2.5666,-3.429801 -4.89277,-6.256073 -4.22875,-4.872591 -9.21407,-9.023265 -14.64839,-12.487821 -1.0981,-0.70008 -2.23219,-1.3420578 -3.34829,-2.0130869 -5.95714,-3.3644694 -13.99217,-8.66620983 -21.29956,-11.6028326 -3.42761,-1.3774557 -7.00167,-2.4647075 -10.60115,-3.2874055 -1.10408,-0.2523485 -2.22014,-0.4491141 -3.3302,-0.673671 -5.32392,-0.9477621 -10.76612,-1.1073114 -16.14209,-0.5315765 -1.05308,0.1127787 -2.09884,0.2857468 -3.14827,0.42862 -4.63221,0.8940951 -9.20552,2.1760492 -13.551422,4.0276933 -0.703297,0.2996509 -1.386914,0.6435328 -2.080369,0.9652992 C 91.46969,0.2102626 88.251153,2.4200806 84.934421,4.4566194 83.271875,5.428068 81.595583,6.4807684 79.650663,6.74361 79.305758,6.7902211 78.954454,6.8350529 78.60811,6.8007454 78.292496,6.7694817 77.996316,6.6332057 77.690418,6.549436 71.722281,2.9557316 78.704849,7.1711504 92.397013,14.774011 92.731634,14.959817 91.737332,14.38152 91.436255,14.1452 91.098274,13.879916 90.79845,13.569219 90.486136,13.274149 89.635287,12.470275 88.803048,11.646931 87.961694,10.833126 80.647618,3.7377044 72.881314,0.61972012 63.401392,-4.7539039 c -1.451235,-0.506975 -2.939638,-1.0511927 -4.485288,-1.1903742 -1.718892,-0.1547812 -3.430093,0.089031 -5.119939,0.3567962 -4.668303,1.1537789 -8.882684,3.5523024 -13.142743,5.70026901 -2.472643,1.40112149 -5.096767,2.55613899 -7.493114,4.09352319 -2.585868,1.6589738 -4.92828,3.68936 -7.290818,5.6413762 -0.505931,0.4798415 -3.8673,3.6490515 -4.341006,4.1733055 -0.747482,0.827246 -1.403592,1.732723 -2.097457,2.60543 -0.719546,0.905006 -1.459056,1.795192 -2.1427,2.727617 -1.169326,1.594849 -3.144009,4.649062 -4.216153,6.281373 -2.780053,4.368139 -5.7382358,8.660565 -8.1084455,13.274898 -0.8815914,1.716286 -3.1603268,6.720919 -3.9430943,8.42229 -2.6339076,5.531197 -4.7624812,11.282638 -6.5748241,17.130779 -0.9267788,2.990564 -1.4929135,5.224502 -2.2975691,8.235786 -0.853612,3.803546 -1.0025647,4.240289 -1.6616638,8.086616 -0.23104,1.348288 -0.6774342,2.687603 -0.6323792,4.054801 0.03824,1.160369 1.7064743,9.014457 2.1626101,10.119457 0.7938961,1.923233 2.0497485,3.62145 3.0746226,5.432181 2.5197755,5.28812 1.5550521,2.76686 3.0634239,7.4968 0,0 0.360428,0.17347 0.360428,0.17347 v 0 c -0.5123772,-3.86139 -0.7868334,-2.01465 0.8029768,-5.54321 0.893109,-0.81655 2.000314,-1.44798 2.679327,-2.44964 C 2.7117209,99.01616 2.8988512,97.688595 3.389082,96.514083 3.9032804,95.282151 4.6407699,94.134844 5.0101555,92.85203 5.3843874,91.552386 5.3793016,90.17211 5.5994913,88.837705 6.1260767,85.646457 6.510285,83.988462 7.1749864,80.8239 7.4875114,79.472818 7.7747767,78.115643 8.1125617,76.770652 9.940238,69.493224 12.427533,62.396327 15.54245,55.569185 c 0.697644,-1.397143 1.354505,-2.815407 2.092932,-4.191431 0.703235,-1.310444 1.477409,-2.581629 2.230088,-3.864314 2.603622,-4.436983 5.281191,-8.831979 8.135805,-13.112789 2.242489,-3.193518 2.044231,-2.99489 4.399727,-6.025957 0.692766,-0.891452 1.370012,-1.796666 2.108737,-2.650421 0.712583,-0.823544 1.489093,-1.589577 2.241359,-2.377041 2.467639,-2.583098 1.528953,-1.654823 4.253267,-4.028731 0.774266,-0.642871 1.525315,-1.314781 2.322801,-1.928613 3.803404,-2.927514 8.099621,-5.18072 12.349051,-7.374252 3.474183,-1.6492508 1.674924,-0.8518585 5.210112,-2.3051417 2.638205,-1.0845419 5.31941,-2.1448432 8.182165,-2.4459634 1.406493,-0.071976 1.963142,-0.1591405 3.359404,-0.00212 1.987209,0.223475 3.904999,0.8784256 5.698313,1.7409982 -4.890606,-2.8481779 -9.79075,-5.6800452 -14.671823,-8.5445333 -0.487199,-0.2859155 1.004154,0.5192758 1.489464,0.80838365 2.114954,1.25991377 4.012977,2.83898505 5.833975,4.48533095 1.162896,1.1161567 1.221827,1.1333351 2.259957,2.2715776 0.29084,0.318888 0.572008,0.6464958 0.853882,0.9733356 0.261318,0.3030027 0.431485,0.7120083 0.775628,0.916119 16.540078,9.8098304 10.675919,9.0965004 18.208109,9.8315514 0.977485,-0.0938 1.369348,-0.08097 2.329844,-0.388917 1.948813,-0.624817 3.705691,-1.75257 5.447273,-2.7919 3.14001,-2.084414 6.14712,-4.384241 9.51967,-6.0966514 1.36419,-0.6918293 2.57841,-1.3397087 3.99841,-1.9243188 3.43922,-1.4159198 7.04576,-2.402669 10.71094,-3.0162843 0.99133,-0.1377606 1.97826,-0.3120314 2.97398,-0.4132816 5.25222,-0.5340782 10.55427,-0.082808 15.73668,0.8315582 1.07438,0.2328442 2.15503,0.4384156 3.22313,0.6985322 3.5162,0.8563068 6.95183,1.9809264 10.28047,3.4035833 1.12616,0.4813197 4.36282,2.2075614 3.3352,1.5413003 -3.59275,-2.3293702 -7.36859,-4.3633897 -11.05288,-6.5450846 1.13048,0.6445599 2.27866,1.2590235 3.39144,1.93368 5.51843,3.3457166 10.5747,7.4244947 15.00119,12.1201897 0.87171,0.994057 1.77564,1.960765 2.61514,2.982172 4.34956,5.29205 7.89644,11.207707 11.13389,17.224838 1.546,2.980277 2.62919,4.982585 4.03682,8.05245 2.60618,5.683735 4.81016,11.552222 6.68156,17.516052 0.42382,1.499198 0.88027,2.989556 1.27148,4.497596 1.65067,6.363002 2.77146,12.854416 3.99874,19.306847 0.84331,4.830855 1.7068,9.65798 2.4126,14.511365 0.18415,1.26633 0.39146,2.52997 0.53309,3.80175 0.14603,1.31131 0.21972,2.62967 0.32958,3.94451 0.0605,1.33278 0.17002,2.66425 0.18138,3.99836 0.0554,6.50713 -0.87967,12.98013 -2.70276,19.22295 -0.78733,2.06897 -1.60794,4.31443 -2.506,6.34654 -1.93582,4.38035 -4.36885,8.50671 -7.00936,12.49545 -4.41761,6.50932 -9.04373,12.88999 -14.22504,18.81943 -3.79077,4.23466 -1.99947,2.3382 -5.96579,6.35493 -2.02114,2.04682 -3.44563,3.5559 -5.61933,5.43635 -0.93349,0.80756 -1.93518,1.53314 -2.88391,2.32275 -0.77229,0.64276 -1.51887,1.31579 -2.27831,1.97368 -1.84326,1.50402 -2.78399,2.32717 -4.72677,3.69305 -3.16237,2.22332 -6.59879,4.03282 -10.07275,5.71245 -0.91631,0.38713 -1.82293,0.79807 -2.74894,1.1614 -4.79572,1.88165 -9.80487,3.2056 -14.9328,3.7535 -3.46537,0.27727 -7.02768,0.54716 -10.47917,-0.079 -1.24905,-0.22662 -1.84767,-0.48893 -2.97795,-0.89966 -5.11365,-2.29362 -12.648096,-7.13319 10.65807,6.38466 0.29586,0.1716 -0.59537,-0.33743 -0.88371,-0.52138 -0.27041,-0.17251 -0.53087,-0.36027 -0.79144,-0.54731 -0.26923,-0.19325 -0.53182,-0.39558 -0.79773,-0.59337 -1.26008,-1.03398 -2.44094,-2.1555 -3.52658,-3.37293 -3.96655,-4.71442 -0.87182,-1.14243 -14.96075,-8.81284 -0.21418,-0.11661 -0.96035,0.31119 -1.08684,0.40164 -0.0597,0.0427 -0.89334,0.84236 -0.907262,0.85565 -1.500532,1.76851 -3.064531,3.47608 -4.909198,4.89706 -2.542995,2.04665 -5.228048,3.92911 -8.131456,5.43392 -3.59052,1.72774 -7.238933,3.38225 -11.197407,4.07006 -0.597379,0.096 -1.191506,0.21513 -1.792134,0.28815 -2.781604,0.33814 -5.607185,0.11064 -8.349787,-0.41193 -3.762142,-0.90328 -7.416866,-2.17561 -10.859407,-3.96167 -5.140582,-2.66693 -3.942884,-2.09276 6.866726,4.15217 0.839009,0.48471 -1.672813,-0.97897 -2.493936,-1.4934 -2.44117,-1.52938 -4.75741,-3.24022 -7.112619,-4.89558 -5.637348,-4.0004 -11.248618,-8.0746 -16.240294,-12.87967 -4.838523,-4.75262 -9.439543,-9.66418 -13.095192,-15.41256 -0.527887,-0.86105 -1.075397,-1.71037 -1.583661,-2.58314 -2.592481,-4.45172 -4.705794,-9.18368 -6.465586,-14.01999 -0.757616,-2.28145 -1.162828,-3.41108 -1.81006,-5.71387 -0.962194,-3.4234 -1.667989,-6.91143 -2.4111953,-10.38641 C 8.9278792,134.85331 7.8622783,129.5877 7.0850058,124.27216 6.3864034,119.42074 5.7522255,114.55781 5.3620177,109.67049 5.0525473,105.93143 4.7915488,102.17242 5.1719,98.426948 5.3159329,96.967864 5.4212127,95.486631 5.6734074,94.040702 5.7932459,93.353624 5.991371,92.681937 6.1164858,91.995798 c 0.041081,-0.22529 0.065224,-0.453342 0.097835,-0.680016 z" />
      <path
         style="fill:#ffffff;fill-opacity:1;stroke-width:1.765"
         d="m 62.029551,19.933817 c -4.493726,2.402248 -7.898948,6.623891 -11.541847,10.12999 -2.514232,2.419819 -4.546338,4.181108 -6.781395,6.812272 -5.868091,6.908059 -11.274986,14.430097 -15.269361,22.584071 -3.868012,7.896016 -6.836152,16.176821 -8.996953,24.697637 -0.478026,1.885027 -0.779836,3.271216 -1.092808,5.229196 -0.120635,0.754705 -0.06634,1.630082 -0.04491,1.633598 0.294589,0.04833 0.516235,-0.328874 0.688619,-0.5726 1.883011,-2.662299 3.3327,-5.849665 4.88021,-8.698489 C 31.555764,67.602737 39.852769,55.324025 50.263154,43.039966 53.433982,39.298451 60.315755,31.623759 64.873845,30.274323"
         id="path4" />
      <path
         style="fill:#ffffff;fill-opacity:1;stroke-width:1.765"
         d="m 60.132364,49.279952 c -1.057878,1.518515 -2.163019,3.005172 -3.173632,4.555543 -1.917356,2.941394 -3.645958,6.002359 -5.538891,8.959527 -4.209634,6.576362 -8.309858,13.022085 -10.598737,20.563126 -0.306681,1.010406 -1.326044,5.983065 -0.958077,6.307036 0.366352,0.322551 0.579379,-0.789926 0.808376,-1.220988 0.461555,-0.86882 0.860205,-1.773396 1.377238,-2.61039 4.236712,-6.858553 5.451025,-8.408141 10.179579,-14.82027 4.27141,-5.792216 8.915379,-11.14271 14.101712,-16.142306 1.738741,-1.676135 6.457527,-5.302877 4.640691,-3.654538"
         id="path5" />
      <path
         style="fill:#ffffff;fill-opacity:1;stroke-width:1.765"
         d="m 173.82528,127.85276 c -0.95054,6.8037 -5.05277,12.85588 -8.9221,18.37376 -3.06883,4.37634 -6.70719,8.2588 -10.22449,12.26883 -2.54739,2.90425 -5.04779,5.84868 -7.58977,8.75743 -2.01769,2.30881 -3.97473,4.73562 -6.28739,6.76175 -0.19387,0.16985 -2.17848,1.47617 -1.96107,2.02095 0.32881,0.82386 2.83093,-1.18606 3.12873,-1.37256 3.11033,-1.94785 6.20725,-3.91348 9.20653,-6.02916 4.12846,-2.91218 8.4375,-5.66949 11.96101,-9.33845 1.81721,-1.89223 3.21907,-4.08157 4.71554,-6.22283 1.81922,-2.60308 3.6174,-5.21654 5.35925,-7.87327 0.98695,-1.50533 4.79852,-7.47699 5.04488,-9.1953"
         id="path6" />
      <path
         style="fill:#ffffff;fill-opacity:1;stroke-width:1.765"
         d="m 157.01401,127.20437 c -3.4811,6.42815 -8.28998,11.85818 -13.1137,17.26225 -0.0855,0.0958 -2.7122,3.08665 -2.64968,3.17457 0.16589,0.23328 6.84373,-4.34688 7.64966,-4.95132 2.21635,-1.66227 3.84147,-4.00482 6.09277,-5.61655"
         id="path7" />
      <path
         style="fill:#2b1100;fill-opacity:1;stroke-width:1.765"
         d="m 79.05344,6.8436031 c 1.992284,-8.3974717 1.026555,-7.32038766 4.931939,-14.0491073 2.251552,-3.8792678 4.80423,-7.7792378 8.070451,-10.9040058 2.291768,-2.19252 5.562915,-3.55824 7.648464,-5.904483 0.209475,-0.23566 2.588486,3.078322 2.848396,3.397303 0.34052,0.417909 0.6343,0.962679 1.00221,1.335185 0.0625,0.06332 0.27315,0.201914 0.18462,0.192859 -3.14821,-0.321975 -9.567971,9.9163357 -10.918846,11.8089651 -1.57548,2.2073153 -10.281925,12.2883545 -8.993537,15.4287977"
         id="path8" />
    </g>
  </g>
</svg>
