<?xml version="1.0" encoding="UTF-8" standalone="no"?>
<!-- Created with Inkscape (http://www.inkscape.org/) -->

<svg
   width="512"
   height="512"
   viewBox="0 0 512 512"
   version="1.1"
   id="svg1"
   inkscape:version="1.3 (0e150ed6c4, 2023-07-21)"
   sodipodi:docname="ghost.svg"
   inkscape:export-filename="ghost.png"
   inkscape:export-xdpi="96"
   inkscape:export-ydpi="96"
   xmlns:inkscape="http://www.inkscape.org/namespaces/inkscape"
   xmlns:sodipodi="http://sodipodi.sourceforge.net/DTD/sodipodi-0.dtd"
   xmlns="http://www.w3.org/2000/svg"
   xmlns:svg="http://www.w3.org/2000/svg">
  <sodipodi:namedview
     id="namedview1"
     pagecolor="#ffffff"
     bordercolor="#000000"
     borderopacity="0.25"
     inkscape:showpageshadow="2"
     inkscape:pageopacity="0.0"
     inkscape:pagecheckerboard="0"
     inkscape:deskcolor="#d1d1d1"
     inkscape:document-units="mm"
     inkscape:zoom="1.0356019"
     inkscape:cx="373.69572"
     inkscape:cy="347.62393"
     inkscape:window-width="1920"
     inkscape:window-height="1028"
     inkscape:window-x="0"
     inkscape:window-y="30"
     inkscape:window-maximized="1"
     inkscape:current-layer="layer1" />
  <defs
     id="defs1" />
  <g
     inkscape:label="Layer 1"
     inkscape:groupmode="layer"
     id="layer1">
    <g
       id="g1"
       transform="matrix(2.3288603,0,0,2.3288603,12.168656,0.12480764)">
      <path
         style="fill:#ffffff;fill-opacity:1;stroke:none;stroke-width:1.765"
         d="M 84.56416,6.3251892 C -32.476748,24.979244 9.5941101,136.73212 11.600129,149.14436 c 0.415667,2.57194 0.591668,5.39113 1.397268,7.88345 0.868046,2.68552 2.581435,5.0822 3.853074,7.58574 0.764359,1.50483 1.047267,3.4227 2.244098,4.66815 3.019591,3.14226 10.180807,-0.91426 11.601563,1.08368 0.358252,0.50379 0.374553,1.20524 0.592781,1.77437 0.644893,1.68185 1.420722,3.29225 1.926534,5.03731 0.906121,3.12611 1.56327,5.955 4.699905,7.38329 3.193952,1.45439 6.340726,1.72596 9.759709,2.23881 2.232269,0.33484 4.439124,0.91303 6.668781,1.22658 2.348777,0.33029 7.048947,-0.1094 9.145756,1.42902 1.536782,1.12753 1.15823,4.07988 1.820683,5.66847 0.86618,2.07711 2.276631,3.86737 3.19678,5.91854 1.197121,2.66857 3.184822,8.99643 5.991318,10.50333 1.060844,0.5696 4.019005,1.03186 5.229172,1.10749 4.704469,0.29403 4.949105,-2.41877 8.404783,-4.70387 3.84791,-2.54447 8.026204,-4.54773 11.707416,-7.37138 1.213,-0.93043 2.37943,-2.23795 3.472,-3.32249 1.24024,-1.23112 5.63753,-5.9184 7.74849,-5.87091 3.5504,0.0799 6.78833,5.58551 9.16693,8.05018 1.31064,1.35807 3.19145,1.82253 4.57287,3.03667 0.91755,0.80644 1.37978,1.96543 2.73103,2.15545 3.97986,0.55967 7.29949,-1.71335 10.416,-3.81073 3.59368,-2.41851 7.04184,-4.89714 9.95025,-8.13354 2.40499,-2.67621 4.37434,-5.73343 6.81697,-8.39551 1.38205,-1.50622 3.06046,-5.12474 4.86927,-5.97809 1.06253,-0.50127 3.622,2.83227 4.63639,3.47729 1.49761,0.95229 3.7742,1.55954 5.41971,2.03636 0.90985,0.26365 0.6329,1.0646 1.84186,0.96459 3.12576,-0.25856 99.39462,-161.078084 -67.54229,-182.6005074"
         id="path7"
         sodipodi:nodetypes="csssssssssssssssssssssssssssssc" />
      <g
         id="g6"
         transform="matrix(1.0018505,0.05831296,0.00756632,0.97894071,-6.7331162,0.37281902)">
        <path
           style="fill:#000000;fill-opacity:1;stroke:none;stroke-width:1.765"
           id="path2"
           d="M 99.50425,-3.1531446 C 93.424578,-1.9739056 87.454694,-0.33019653 81.507321,1.3824169 73.847374,3.4954046 78.382568,2.1021077 70.483554,4.8953956 64.695659,6.9421395 64.477283,6.882607 58.856728,9.1992793 53.826372,11.272684 53.160704,11.680524 48.309675,14.022193 c -4.735674,2.277343 -9.210344,5.030213 -13.532935,8.006723 -3.053913,2.102906 -4.872749,3.430418 -7.691895,5.837156 -1.174936,1.003057 -2.291483,2.072558 -3.437224,3.108839 -4.114199,4.157485 -7.639745,8.911621 -10.351284,14.100735 -1.60333,3.06832 -2.064485,4.481846 -3.330387,7.687567 -1.7294789,4.866325 -2.9781127,9.932749 -3.5834836,15.067343 -0.2447128,2.07559 -0.4406807,5.592726 -0.5736955,7.682577 -0.284644,8.34272 0.1679093,16.696139 0.6960923,25.021177 0.3251523,5.92553 0.067294,2.15923 0.5921065,8.02797 0.3502464,3.91664 0.230714,3.72727 0.887549,7.66826 0.4835917,2.90155 1.0640933,5.78616 1.5745712,8.68309 0.2424885,1.4066 0.4640411,2.81698 0.7274651,4.21981 1.282647,6.83059 0.61546,2.44865 1.807121,9.3298 0.734874,4.24347 1.305994,8.50929 1.854245,12.77978 0.755536,6.16691 1.29064,12.35528 1.927666,18.53516 0.402721,1.67103 0.640628,3.4213 1.401217,4.98499 1.972343,4.05495 11.79811,6.80851 12.058701,6.91327 0.453263,0.18223 0.672047,-0.7092 1.00807,-1.0638 0.354081,-0.64595 0.7425,-1.27424 1.062241,-1.93786 0.410165,-0.8513 0.74974,-1.73484 1.12513,-2.60203 0.448302,-1.03562 0.897298,-2.07094 1.345946,-3.10641 0.479036,-1.13985 0.947603,-2.28415 1.437109,-3.41954 5.302186,-12.29826 -2.19043,5.29045 2.823972,-6.50947 0.365871,-0.95734 0.746159,-1.90929 1.09761,-2.87201 0.936054,-2.56411 0.766284,-2.18515 1.465974,-4.63262 0.332389,-1.16267 0.572516,-2.40075 1.095084,-3.49426 0.06884,0.0189 0.137682,0.0378 0.206521,0.0567 -3.914222,-1.85805 -7.65815,-4.1284 -11.742669,-5.57415 -0.462539,-0.16372 0.109236,0.97576 0.135581,1.46571 0.03923,0.72964 0.03988,1.46085 0.06106,2.19123 0.05498,1.89637 0.127145,4.2078 0.184626,6.07459 0.366313,6.45197 0.698574,12.93934 1.791052,19.32047 0.193347,1.12934 0.455295,2.24586 0.682945,3.36879 0.635381,2.14656 0.816046,3.37139 2.028214,5.24231 3.055199,4.71553 12.471926,7.7531 15.133738,8.84562 1.170638,0.48047 5.341791,-0.84114 6.289444,-1.09337 3.846148,-1.31255 7.469119,-3.30535 10.540558,-5.98412 0.450295,-0.39272 2.58657,-2.58583 3.096969,-3.10631 0.925119,0.0856 1.089734,-1.7596 1.987291,-1.82869 0.251971,-0.0194 0.652182,0.73953 0.425746,0.62732 -4.043516,-2.00377 -7.788708,-4.62197 -11.960296,-6.3433 -0.565973,-0.23354 0.518091,1.11341 0.701469,1.69756 0.250949,0.79942 0.398568,1.62767 0.597852,2.44151 1.355823,6.23784 2.507459,12.50658 4.65192,18.54119 0.464198,1.30628 1.02235,2.57724 1.533525,3.86585 1.1601,2.46592 1.806692,4.07293 3.26621,6.33361 0.514906,0.79755 0.907116,1.76001 1.696265,2.28771 4.460629,2.98276 9.058492,5.80299 13.891109,8.13534 0.945552,0.45635 2.106705,0.21875 3.148502,0.0885 1.098148,-0.13735 2.133777,-0.58835 3.200667,-0.88253 3.739168,-1.77389 6.79002,-4.47855 9.40878,-7.65455 1.00868,-1.22332 1.88795,-2.5479 2.81931,-3.83107 3.46102,-4.76841 2.21185,-2.94258 5.27671,-8.02656 1.46689,-2.41284 2.84754,-4.78222 4.46631,-7.09418 0.6114,-0.87321 2.26828,-3.12705 3.27949,-3.9226 1.18546,-0.93263 1.03978,-0.61826 1.65699,0.24103 -14.78851,-7.85509 -14.06132,-9.77296 -10.50873,-4.35508 1.97674,3.01463 2.0339,3.45679 4.20255,6.52617 2.4169,3.42073 2.53845,3.36867 5.31473,6.41863 6.36372,4.45701 8.71447,6.33334 18.329,10.04944 1.34221,0.51877 2.89736,0.0388 4.31071,-0.23151 2.68559,-0.51363 6.31235,-2.08325 8.34074,-3.94617 1.40973,-1.29474 2.39673,-2.98503 3.5951,-4.47754 1.1152,-1.71806 2.28811,-3.40003 3.34561,-5.1542 1.86985,-3.10169 4.03526,-7.33797 5.70252,-10.56853 1.90319,-3.6877 3.77898,-7.38804 5.70879,-11.06196 0.80615,-3e-5 1.02453,-2.6031 2.16786,-2.66441 0.29008,-0.0155 0.72973,0.86197 0.46853,0.73483 -4.42331,-2.15305 -8.53815,-4.93798 -13.06417,-6.86578 -0.60197,-0.2564 0.68482,1.11831 0.96198,1.711 0.35036,0.74923 0.61095,1.53724 0.91642,2.30586 1.32855,3.23544 2.17338,6.7547 4.17635,9.67875 0.37645,0.54956 0.71629,1.18368 1.28506,1.53041 4.75752,2.90022 9.72944,5.43312 14.59415,8.14968 0.74059,-0.22201 1.52447,-0.33206 2.22175,-0.66605 2.09188,-1.00196 3.15052,-2.25821 4.56449,-4.124 1.3457,-1.77569 3.75312,-5.68454 4.60891,-7.61345 0.82265,-1.85418 1.38391,-3.81362 2.07586,-5.72044 0.6285,-1.71711 4.19327,-11.42916 4.74877,-13.05894 0.82582,-2.42287 1.56241,-4.87528 2.35481,-7.30929 1.59378,-5.0802 3.38052,-10.09664 5.029,-15.15869 0.80987,-2.48693 1.57841,-4.98712 2.36762,-7.48068 2.49902,-7.13168 4.08751,-14.51946 5.35243,-21.95488 0.92318,-5.426614 1.44956,-9.055263 1.81899,-14.545976 0.1621,-2.409131 0.18527,-4.825603 0.2779,-7.238404 -0.0869,-2.404645 -0.0215,-4.819642 -0.26081,-7.213928 -0.78257,-7.830828 -2.93361,-15.547197 -5.84483,-22.837323 -0.92234,-2.309656 -1.91468,-4.596219 -3.04728,-6.810361 -1.11322,-2.176248 -2.45393,-4.228415 -3.6809,-6.342621 -3.88118,-5.271185 -4.63335,-6.771206 -9.42048,-11.331025 C 185.42699,18.428823 175.06161,12.535773 165.63215,7.7008343 163.0115,6.3571 160.16865,5.4999487 157.43691,4.3995059 c -9.53027,-3.3600194 -19.24077,-6.244701 -29.15248,-8.2499765 -3.29349,-0.6663166 -6.57476,-1.6404341 -9.9342,-1.711924 -2.67922,-0.057014 -5.25601,1.1321671 -7.92838,1.3318042 -3.4794,0.2599249 -6.97812,0.028279 -10.467185,0.042419 -3.250361,0.350139 -6.500725,0.700278 -9.751086,1.050417 0,0 0.326107,0.2316331 0.326107,0.2316331 v 0 c 3.24956,-0.3490211 6.499119,-0.6980422 9.748674,-1.0470631 3.48842,-0.013256 7.00315,-0.4676955 10.46525,-0.039768 4.64076,0.5736148 9.12053,2.0706012 13.69788,3.02641855 3.38775,0.70741304 6.81443,1.2229485 10.19525,1.96281974 10.18051,2.22794571 20.20205,5.19298611 29.90086,9.01373611 2.97442,1.337579 5.8908,2.812545 8.92326,4.012739 0.68659,0.271741 -2.46063,-1.633536 -1.85273,-1.214352 2.08178,1.435525 4.25559,2.741273 6.27475,4.263623 5.90635,4.45311 11.04725,9.740169 15.18239,15.882378 3.35348,5.579155 4.47737,7.000293 7.02185,13.071221 3.92383,9.361974 5.95557,19.363957 5.91396,29.516048 -0.0634,2.404007 -0.052,4.811155 -0.19025,7.212023 -0.71593,12.436232 -3.36355,24.512198 -6.77571,36.459868 -1.88726,6.03327 -2.75632,9.01037 -4.87528,14.98174 -2.23594,6.30102 -3.11713,8.35594 -5.63939,14.46387 -3.32795,8.05904 -1.87424,4.78982 -5.63443,12.44412 -1.05788,1.65115 -2.0997,3.31271 -3.17364,4.95347 -1.84433,2.81776 -2.85603,4.519 -5.19142,6.87013 -1.1963,1.20437 -2.80085,2.6128 -4.54671,3.04368 -0.58528,0.14445 -1.20569,5.3e-4 -1.80853,7.9e-4 3.71497,2.29384 7.42994,4.58768 11.14492,6.88152 -0.53505,-0.433 -1.13832,-0.79319 -1.60515,-1.29898 -2.2624,-2.45126 -3.24486,-6.20345 -4.217,-9.29858 -0.20109,-0.74709 -0.41512,-1.49081 -0.60327,-2.24126 -0.15145,-0.60411 0.0906,-1.45848 -0.41535,-1.82166 -0.30965,-0.22228 -12.37957,-12.84211 -15.05844,-7.91745 -0.30517,0.56102 -0.93875,3.42998 -0.99196,3.6502 -0.6522,2.29482 -1.37722,4.93698 -2.13764,7.16645 -2.47713,7.26265 -5.77328,14.23466 -10.57718,20.2695 -1.32433,1.27444 -2.51691,2.70177 -3.973,3.82332 -2.32201,1.78851 -5.17303,3.00414 -8.10784,3.27235 -1.4151,0.12933 -5.01273,-1.46692 -4.25476,-0.26495 1.55344,2.46343 4.90258,3.15864 7.20453,4.94265 1.08334,0.83959 -2.35704,-1.39946 -3.53556,-2.09919 -0.93225,-0.9678 -1.91802,-1.88675 -2.79676,-2.90338 -1.94245,-2.24727 -3.01728,-3.82652 -4.37072,-6.42789 -0.46202,-0.88803 -0.84536,-1.81555 -1.22732,-2.74084 -0.26431,-0.64031 -0.15069,-1.54469 -0.71027,-1.95301 -4.32627,-3.15683 -9.08544,-5.67305 -13.62816,-8.50958 -0.38406,0.14488 -0.83142,0.17848 -1.15218,0.43462 -0.56071,0.44776 -1.60743,2.67334 -1.77874,3.03408 -0.43554,0.91714 -0.81218,1.86148 -1.24777,2.77859 -1.73295,3.64862 -1.8316,3.66568 -3.91141,7.36475 -0.860115,1.34769 -4.182369,6.61569 -5.173041,7.92256 -2.427536,3.20236 -5.802741,6.73717 -9.318841,8.76401 -1.026653,0.5918 -2.163289,0.96807 -3.244935,1.45211 -1.04222,0.14629 -2.074265,0.44796 -3.126663,0.43887 -0.953154,-0.008 -3.550814,-1.09884 -2.817239,-0.4902 2.659071,2.20618 5.690698,3.97513 8.809567,5.46193 0.945658,0.45081 -1.499764,-1.47045 -2.153616,-2.28897 -1.789731,-2.24044 -2.513647,-3.844 -3.898892,-6.37844 -0.530093,-1.26539 -1.105453,-2.51274 -1.590278,-3.79615 -2.167292,-5.73719 -3.40986,-11.79407 -3.802073,-17.90851 -0.05272,-0.77255 -0.116115,-1.54445 -0.158176,-2.31766 -0.03206,-0.58942 0.404654,-1.41104 -0.06417,-1.76972 -3.494032,-2.67318 -9.746533,-11.91224 -13.481801,-7.44698 -0.296934,0.35497 -1.271178,1.91963 -1.439627,2.18418 -0.381892,0.50159 -0.736116,1.0255 -1.145675,1.50477 -3.102295,3.63027 -6.607641,6.08952 -11.24126,7.4123 -1.074832,0.1842 -2.136015,0.48627 -3.224498,0.55262 -1.001773,0.0611 -3.713715,-0.88443 -3.005928,-0.17287 2.391619,2.40436 5.577678,3.86401 8.458057,5.65403 0.682918,0.42441 -1.31734,-0.9455 -1.850242,-1.54758 -1.501558,-1.6965 -1.866186,-3.08758 -2.741203,-5.16924 -0.307512,-1.13177 -0.660005,-2.25227 -0.922536,-3.39532 -0.886314,-3.85901 -1.33732,-7.80848 -1.678529,-11.74657 -0.112676,-1.30045 -0.23258,-2.60104 -0.294492,-3.9049 -0.0567,-1.19416 -0.0408,-2.39066 -0.0612,-3.58599 0.0333,-3.04278 -0.039,-2.98829 0.233479,-5.78819 0.06502,-0.66816 0.128598,-1.33784 0.244838,-1.99902 0.072,-0.40956 0.659378,-0.96777 0.318645,-1.20614 -14.672701,-10.26513 -14.470099,-10.07376 -11.465377,-6.50431 0.167889,1.14859 0.150662,0.70497 0.08291,2.13698 -0.154426,3.26376 -0.809892,6.48267 -1.768149,9.60349 -0.367649,1.08703 -0.692809,2.18936 -1.102948,3.26108 -0.943821,2.46626 -1.825024,4.25769 -3.098929,6.57054 -1.267225,2.30072 -2.643586,4.56447 -4.527347,6.4203 -4.466676,1.34353 -0.992499,0.10025 9.278329,6.26277 0.301512,0.18091 -0.643527,-0.31564 -0.889703,-0.5667 -1.250212,-1.27504 -1.580849,-3.20977 -2.038622,-4.842 -0.175828,-0.81824 -0.37213,-1.63235 -0.527485,-2.45472 -0.342828,-1.81476 -0.654908,-4.14507 -0.952075,-5.94926 -0.594096,-3.60692 -1.204618,-7.21183 -1.844929,-10.81085 -0.798768,-4.35552 -1.621347,-8.70739 -2.394051,-13.06763 -0.544073,-3.07011 -1.004519,-6.15488 -1.568212,-9.22145 -0.262714,-1.4292 -0.572619,-2.84933 -0.858929,-4.27399 -0.258952,-1.45185 -0.547506,-2.89874 -0.776858,-4.35556 -0.170541,-1.08327 -0.906953,-6.81872 -1.076622,-8.02661 -0.181409,-1.29147 -0.410354,-2.57627 -0.574126,-3.87009 -0.342175,-2.70324 -0.511663,-5.42649 -0.861194,-8.12891 -0.593758,-8.275096 -0.986739,-16.564939 -0.634231,-24.86264 0.05317,-1.275426 0.07515,-2.552533 0.159501,-3.826277 0.424364,-6.407769 1.449671,-12.789135 3.426349,-18.909032 0.459513,-1.297416 0.87621,-2.6108 1.37854,-3.892246 2.610966,-6.660589 6.276305,-12.852455 10.994672,-18.23921 2.808566,-3.003085 3.340516,-3.73701 6.505456,-6.440781 5.10572,-4.361759 10.844501,-7.922693 16.695534,-11.181957 1.668547,-0.844965 3.318309,-1.728102 5.005644,-2.534895 3.757279,-1.796527 7.015932,-3.158419 10.920156,-4.630833 C 71.27841,9.4785316 73.224942,8.7370485 75.210246,8.1146003 77.2548,7.4735758 79.33937,6.9673321 81.412314,6.4250977 83.218098,5.9527463 85.034606,5.5223801 86.845753,5.0710213 93.389502,3.7709938 99.958526,2.4680563 106.6143,1.8964289 Z" />
        <path
           style="fill:#000000;fill-opacity:1;stroke:none;stroke-width:1.765"
           id="path3"
           d="m 87.901991,2.178522 c 2.35586,-0.9129726 4.783563,-1.63248921 7.182916,-2.42228364 3.404335,-1.01036216 6.916313,-1.67802686 10.431013,-2.17865146 2.79718,-0.389569 5.61941,-0.4147981 8.43475,-0.2727576 3.05609,0.2517507 6.07574,0.8077241 9.08803,1.3636596 5.4477,0.89412538 -2.32194,-0.3894192 3.41195,0.58665902 0.60018,0.10216843 1.24431,0.53268664 1.8031,0.29101888 0.34882,-0.150858 0.0935,-0.754317 0.14023,-1.1314755 0.63657,0.058085 1.27314,0.1161698 1.90971,0.1742547 0,0 -0.31867,-0.2417719 -0.31867,-0.2417719 v 0 c -7.2706,-2.1314748 3.07216,1.04695844 -6.99378,-2.7682179 -0.60725,-0.2301615 -1.27379,-0.2540293 -1.91245,-0.3716708 -5.42854,-0.9999286 1.94409,0.4080569 -3.4635,-0.6328992 -3.05155,-0.5668248 -6.10347,-1.2387217 -9.21755,-1.3335169 -1.23396,-0.023434 -1.5267,-0.060364 -2.73342,0.03473 -1.68636,0.1328918 -3.34384,0.5315617 -4.9805,0.9396791 -0.780263,0.2190499 -1.977405,0.5460743 -2.733428,0.7973459 -1.603793,0.533036 -3.14964,1.2096692 -4.7297,1.8027359 -0.540491,0.2028701 -1.091808,0.3756372 -1.637712,0.5634557 -2.355612,0.7806963 -4.690314,1.6187689 -6.96772,2.60752744 z" />
      </g>
      <path
         style="fill:#000000;fill-opacity:1;stroke:none;stroke-width:1.765"
         id="path4"
         d="m 62.983215,37.075258 c -0.09979,0.215299 -0.24779,0.414268 -0.29936,0.645895 -0.120081,0.539348 -0.291415,3.286152 -0.306898,3.510643 -0.224383,3.253523 -0.381937,6.499632 -0.490866,9.759267 -0.251023,5.360575 -0.167222,10.756617 1.401398,15.947525 0.625689,2.070536 1.857303,3.934682 2.402779,6.027782 0.45103,1.730693 0.178419,5.116952 0.08384,7.018435 0,0 0.355494,0.183367 0.355494,0.183367 v 0 c 0.05241,-1.049991 0.249105,-6.010912 0.530608,-6.705653 0.541126,-1.335479 1.913374,-2.197033 2.55379,-3.487843 2.152716,-4.338963 1.951538,-9.357736 2.273279,-14.039924 0.169643,-3.265559 0.319606,-6.529633 0.407403,-9.798568 0.01498,-0.557501 0.0952,-2.948541 -0.0048,-3.710382 -0.04421,-0.336764 -0.186547,-0.653193 -0.279818,-0.979789 z" />
      <path
         style="fill:#000000;fill-opacity:1;stroke:none;stroke-width:1.765"
         id="path5"
         d="m 129.14762,39.868247 c -0.0369,0.24625 -0.10598,0.489802 -0.11058,0.738754 -0.023,1.243711 0.15303,2.48349 0.19305,3.72677 0.1123,3.488115 -0.0364,6.78662 -0.24937,10.269114 -0.37839,3.065078 -1.01464,6.141855 -0.27843,9.245322 0.47113,1.986042 1.7456,3.716477 2.25567,5.692875 0.659,2.55347 0.19439,4.936662 -0.0865,7.459808 0,0 0.35436,0.185539 0.35436,0.185539 v 0 c 0.20102,-1.805178 0.36303,-5.169127 1.43929,-6.751799 0.80078,-1.177565 2.4224,-1.639977 3.19464,-2.836455 1.45746,-2.258113 1.45106,-6.077005 1.65942,-8.563268 0.30506,-3.385307 0.59021,-6.752955 0.68392,-10.151536 0.0203,-0.734695 0.0775,-2.787512 -0.0153,-3.675494 -0.0317,-0.302882 -0.13207,-0.594571 -0.19811,-0.891857 z" />
      <path
         style="fill:#000000;fill-opacity:1;stroke:none;stroke-width:1.765"
         d="m 79.059968,112.64257 c 0.68452,-0.42871 1.430163,-0.77257 2.053561,-1.28612 3.128825,-2.5775 8.24665,-12.536038 14.057368,-9.02667 2.065128,1.24723 3.787021,4.20385 6.245373,4.78723 4.13194,0.98053 8.12384,-2.94588 12.6601,-1.73865 2.85741,0.76044 3.94589,4.01547 6.26653,4.66815 2.2216,0.62482 4.26772,-1.1519 6.52059,-0.70261 1.80956,0.36089 2.22424,2.62289 3.66253,3.4773 2.0706,1.23002 4.87307,1.03606 6.13952,3.42966 0.44737,0.84553 1.64384,10.59708 1.03736,11.77754 -0.34987,0.681 -0.73502,1.35522 -1.2279,1.94109 -2.14067,2.54457 -4.36767,3.89073 -7.79083,4.15608 -1.67326,0.12971 -3.81441,-1.17544 -5.46205,-1.52429 -2.363,-0.50031 -4.70102,-0.76982 -7.04985,-1.38139 -2.08274,-0.54229 -4.01885,-1.48065 -6.16069,-1.82201 -3.76877,-0.60064 -7.50159,0.97668 -11.326342,0.46444 -2.322981,-0.31112 -4.379756,-0.8186 -6.774635,-0.9765 -2.290532,-0.15103 -4.400936,-0.0293 -6.66878,-0.58352 -4.402246,-1.07581 -8.191614,-2.23456 -12.660101,-2.66752 -0.87268,-0.0846 -2.538492,-0.16883 -3.387317,-0.71451 -0.650344,-0.41807 -6.485189,-4.70285 -6.372389,-6.07335 0.296156,-3.59832 2.05714,-3.9379 4.445852,-5.59701 1.547066,-1.07454 2.95783,-2.22229 4.636391,-3.10813 0.953492,-0.5032 2.145713,-0.90235 3.090929,-1.48857 0.962824,-0.59714 1.744234,-1.34937 2.794534,-1.82201 2.224252,-1.00091 4.852048,-1.42241 7.176881,-2.10781 0.825156,-0.24327 6.105935,-2.418 7.579122,-1.73865 1.386808,0.63953 0.995024,1.79323 0.995024,2.95603"
         id="path6" />
    </g>
  </g>
</svg>
