<?xml version="1.0" encoding="UTF-8" standalone="no"?>
<!-- Created with Inkscape (http://www.inkscape.org/) -->

<svg
   width="512"
   height="512"
   viewBox="0 0 512 512"
   version="1.1"
   id="svg1"
   inkscape:version="1.3 (0e150ed6c4, 2023-07-21)"
   sodipodi:docname="mummy.svg"
   inkscape:export-filename="mummy.png"
   inkscape:export-xdpi="96"
   inkscape:export-ydpi="96"
   xmlns:inkscape="http://www.inkscape.org/namespaces/inkscape"
   xmlns:sodipodi="http://sodipodi.sourceforge.net/DTD/sodipodi-0.dtd"
   xmlns="http://www.w3.org/2000/svg"
   xmlns:svg="http://www.w3.org/2000/svg">
  <sodipodi:namedview
     id="namedview1"
     pagecolor="#ffffff"
     bordercolor="#000000"
     borderopacity="0.25"
     inkscape:showpageshadow="2"
     inkscape:pageopacity="0.0"
     inkscape:pagecheckerboard="0"
     inkscape:deskcolor="#d1d1d1"
     inkscape:document-units="mm"
     inkscape:zoom="1.4514587"
     inkscape:cx="119.8794"
     inkscape:cy="268.00625"
     inkscape:window-width="1920"
     inkscape:window-height="1028"
     inkscape:window-x="0"
     inkscape:window-y="30"
     inkscape:window-maximized="1"
     inkscape:current-layer="g1" />
  <defs
     id="defs1" />
  <g
     inkscape:label="Layer 1"
     inkscape:groupmode="layer"
     id="layer1">
    <g
       id="g1"
       transform="matrix(2.3242894,0,0,2.3270281,13.975342,15.681939)">
      <circle
         style="fill:#ffeeaa;stroke-width:1.765"
         id="path1"
         cx="105"
         cy="105"
         r="105" />
      <path
         style="fill:none;stroke:#a49554;stroke-width:1.765;stroke-opacity:1"
         d="m 68.965762,11.085956 c 13.544113,7.215666 29.314713,9.169874 44.204488,12.146709 20.2297,4.044416 40.64542,7.324693 61.31045,5.549379"
         id="path3" />
      <path
         style="fill:none;stroke:#a49554;stroke-width:1.765;stroke-opacity:1"
         d="m 55.310637,20.66042 c 2.206009,1.843298 4.896982,2.924246 7.409757,4.287074 6.182706,3.353249 12.275253,6.868207 18.968979,9.121941 8.022076,2.70098 16.371617,4.546931 24.642737,6.287706 12.87132,2.708955 25.83527,5.010484 38.76361,7.430929 14.12362,2.644225 28.33563,5.263907 42.6802,6.35916 4.65931,0.355751 9.69544,0.927314 14.37493,0.571608"
         id="path4" />
      <path
         style="fill:none;stroke:#a49554;stroke-width:1.765;stroke-opacity:1"
         d="m 37.357857,37.737264 c 1.569926,0.986983 2.770367,2.435217 4.255317,3.524927 2.572017,1.88744 6.442792,3.134955 9.209267,4.322799 5.924034,2.543609 11.94281,4.869265 17.846932,7.454744 8.862972,3.881197 17.44029,7.980053 26.759807,10.741501 8.78039,2.601704 17.83163,4.310658 26.75981,6.311527 17.42026,3.904004 34.99675,7.838983 52.90566,8.597964 8.36084,0.354332 16.69945,-0.437314 24.98147,-1.512385 1.23252,-0.159988 3.54858,-0.04246 4.14946,-1.309939"
         id="path5" />
      <path
         style="fill:none;stroke:#a49554;stroke-width:1.765;stroke-opacity:1"
         d="m 16.716401,63.554974 c 0.557496,0.710544 1.001415,1.527199 1.672488,2.131629 3.031548,2.730484 14.835848,5.896883 18.820772,7.133214 10.127231,3.141991 20.348178,5.979009 30.528199,8.943311 5.243758,1.526921 10.418878,3.246303 15.687513,4.691965 9.761783,2.678538 19.669817,4.663424 29.575517,6.728325 17.12513,3.569832 34.12326,6.10971 51.63542,6.918852 9.90599,0.4577 25.50149,1.14188 35.18576,-1.750548 0.99624,-0.29755 5.47428,-1.194173 5.27151,-2.619877"
         id="path6" />
      <path
         style="fill:none;stroke:#a49554;stroke-width:1.765;stroke-opacity:1"
         d="m 3.8445942,92.83807 c 9.4733128,5.612281 20.0826788,8.59682 30.5493578,11.70608 11.965545,3.55452 23.935922,6.61796 36.096103,9.44347 9.641615,2.24031 19.237952,4.58843 28.961564,6.46634 12.533271,2.42053 25.208551,3.92964 37.874441,5.4422 11.26399,1.34514 22.50237,2.57848 33.85201,2.91759 5.36953,0.16044 10.74272,0.16413 16.11093,0.36917 4.10475,0.15678 8.21097,0.45248 12.32136,0.38107 2.84795,-0.0495 5.87396,-0.016 8.70115,-0.45252 0.49076,-0.0758 1.55176,-0.16335 1.35493,-0.61925 -0.41386,-0.95857 -1.27972,-0.85621 -2.22293,-1.13131"
         id="path7" />
      <path
         style="fill:none;stroke:#a49554;stroke-width:1.765;stroke-opacity:1"
         d="m 1.2829355,123.26437 c 11.9744435,7.3315 25.3993675,11.64327 38.8906275,15.36202 38.940557,10.73361 78.845017,11.26038 118.894847,11.49174 11.44515,0.0661 22.92675,0.18839 34.31776,-1.1075 0.37611,-0.0428 6.49008,-0.81569 6.60527,-1.09558 0.14377,-0.34937 -0.4093,-0.63513 -0.61395,-0.95269"
         id="path8" />
      <path
         style="fill:none;stroke:#a49554;stroke-width:1.765;stroke-opacity:1"
         d="m 17.56323,159.77595 c 0.733919,0.0556 1.475423,0.0477 2.201756,0.16672 2.459499,0.40301 4.882144,1.37171 7.26155,2.06018 4.986867,1.44291 10.131571,2.59987 15.264101,3.38202 17.131797,2.61072 34.492226,4.29841 51.804786,5.03731 8.828747,0.37681 17.664057,0.98805 26.505757,0.85742 10.03403,-0.14825 19.94807,-0.9364 29.91425,-2.084 8.36979,-0.96377 16.72826,-1.89439 24.93912,-3.83455 1.06437,-0.2515 4.00371,-0.67719 4.34001,-1.77437"
         id="path9" />
      <path
         style="fill:#ffeeaa;fill-opacity:1;stroke:none;stroke-width:1.765;stroke-opacity:1"
         d="m 128.90011,195.02522 c 6.31094,0.64411 28.59828,2.84502 34.65649,4.85869 1.1383,0.37835 2.07305,1.14251 3.17561,1.60765 2.3575,0.99457 4.6429,1.74932 6.45708,3.62019 1.02726,1.05937 1.92929,4.38284 1.02606,5.91758 -2.06495,3.5087 -1.74728,6.32465 -7.35611,8.05114 -1.07523,0.25466 -8.91738,2.58076 -9.06108,2.54843 -0.0722,-0.0162 -0.56131,-1.75973 -0.84683,-2.00064 -1.46122,-1.2329 -2.97282,-2.2585 -4.53053,-3.32248 -1.2232,-0.83548 -1.96212,-2.07003 -3.32381,-2.75087 -1.35525,-0.67763 -2.70901,-1.44653 -4.10712,-2.03636 -1.0502,-0.44305 -2.2423,-0.53494 -3.2603,-1.07177 -2.59551,-1.36873 -4.74099,-2.99465 -7.68497,-3.82264 -1.16945,-0.32891 -2.37178,-0.42877 -3.57786,-0.53588 -0.66247,-0.0588 -1.33342,-0.12367 -1.99004,-0.22627 -0.14213,-0.0222 -0.43838,-0.22642 -0.42342,-0.0834 0.0332,0.31773 0.0699,0.72091 -0.55044,0.53589 -0.32584,-0.0972 -13.9374,-0.78597 -14.22673,-0.9646"
         id="path11"
         sodipodi:nodetypes="cssssssssssssssssc" />
      <path
         style="fill:none;stroke:#a49554;stroke-width:1.765;stroke-opacity:1"
         d="m 36.34814,182.31127 c 5.322006,1.67264 6.115246,2.19981 10.155473,2.99659 3.033615,0.59826 6.099958,0.96445 9.124585,1.60765 3.230004,0.68687 6.407769,1.60185 9.653857,2.21499 11.126161,2.10155 23.106346,3.49205 34.402442,4.25134 10.954563,0.73634 21.942653,0.78992 32.899323,1.48857 10.46796,0.66749 19.89064,3.20681 32.98282,6.37057 5.82529,1.4077 6.79463,0.36806 7.76909,5.37096 0.1587,0.81478 0.0932,1.76794 0.33583,2.84688 0.36434,1.62026 2.44769,3.24649 -4.79816,3.34235 -16.50319,0.21833 -18.95763,-0.48557 -30.72168,-4.20022 -1.59994,-0.59997 -7.18584,-1.66422 -8.76225,-2.30975 -9.50505,-3.89227 -38.727168,6.60687 -71.62824,-8.39762"
         id="path10"
         sodipodi:nodetypes="csssssssssssc" />
      <path
         style="fill:#000000;stroke-width:1.94618"
         id="path2"
         d="m 110.72573,-6.2528544 c -0.26774,-0.037179 -0.53592,-0.071108 -0.8032,-0.1115352 -1.06641,-0.1612945 -1.94875,-0.3490441 -3.04745,-0.3703477 -3.259,-0.063192 -6.45577,0.5814842 -9.651725,1.136637 -5.216505,1.006333 -10.345699,2.4100166 -15.366392,4.1752943 -1.89767,0.66722088 -3.801707,1.32670819 -5.64847,2.13040968 C 71.643025,2.6944692 68.098175,4.8254971 63.724522,7.2672078 57.936503,10.735067 55.843605,11.853264 50.248691,15.766196 c -2.223349,1.554951 -4.483924,3.071587 -6.552,4.837846 -2.381984,2.03435 -4.576089,4.292843 -6.769483,6.539475 -6.267052,6.419166 -7.890763,8.643787 -13.686542,15.588489 C 14.74783,53.245017 7.4109045,64.761919 2.4297081,77.471958 c -2.9567443,7.544433 -3.5159657,10.722298 -5.496803,18.49774 -0.4462573,3.06384 -1.0898479,6.104202 -1.3387724,9.191542 -0.4107661,5.09459 -0.2195007,13.37735 0.5953103,18.45839 0.5010211,3.1243 1.2823863,6.20266 2.1844572,9.23062 2.28093095,7.65634 3.8093042,10.10959 7.2408368,17.24506 3.6407275,5.93822 5.934412,10.08716 10.243384,15.52767 3.311752,4.18142 8.794838,9.96217 12.729007,13.57926 5.828766,5.35898 7.870245,6.55903 14.246518,11.18832 9.214449,5.84593 12.108568,7.86331 23.649264,13.82126 2.545637,1.31421 5.233234,2.32402 7.908071,3.33235 2.618465,0.98708 5.263659,1.91728 7.960375,2.6496 6.692211,1.81733 9.779786,1.94262 16.619789,2.77365 2.800895,0.0414 5.603115,0.22168 8.402685,0.12399 8.75873,-0.30563 17.51057,-1.96445 25.57902,-5.57681 5.72207,-2.56183 14.50105,-8.02307 19.80177,-11.18561 10.20041,-6.39432 19.66061,-13.90397 28.41524,-22.24378 2.783,-2.65111 5.53392,-5.34604 8.11783,-8.20153 6.54925,-7.23767 7.60257,-9.38106 13.02729,-17.38528 3.82315,-7.48993 5.74995,-10.46868 8.27236,-18.4879 1.94164,-6.17286 3.18876,-12.9613 3.53705,-19.43851 0.18191,-3.38305 0.23837,-6.79389 -0.10177,-10.16405 -0.38586,-3.823484 -1.37864,-7.556564 -2.06794,-11.334842 -3.45799,-11.422872 -3.24081,-12.224844 -8.4264,-23.121577 -1.77995,-3.740344 -3.59486,-7.483436 -5.79289,-10.98182 -2.4329,-3.872243 -5.18065,-7.539283 -8.06315,-11.071605 C 181.7344,34.170791 179.56351,33.014044 170.16964,24.914123 157.63366,16.530892 156.46012,15.255953 141.05714,7.7203527 134.40265,4.4647714 127.0182,1.97953 119.76476,0.5478354 c -2.99506,-0.59116977 -6.05927,-0.7252455 -9.08075,-1.15193412 -3.38852,-0.47851968 -6.76507,-1.04230738 -10.14761,-1.56346108 -3.278319,-0.173383 -6.556637,-0.3467659 -9.834958,-0.5201487 0,0 0.350904,0.2644958 0.350904,0.2644958 v 0 c 3.277476,0.1745489 6.554949,0.3490978 9.832434,0.5236466 3.3819,0.5220229 6.81513,0.7689058 10.14568,1.56606931 6.0566,1.44963769 18.79846,5.99440989 24.62606,8.24732889 3.81213,1.4737529 7.55931,3.1187469 11.33751,4.6818649 1.65683,0.685467 3.41438,1.158151 4.96753,2.063887 3.82767,2.232128 7.41196,4.877656 11.11794,7.316481 8.87203,7.564287 11.86961,9.340645 19.11493,18.596961 7.46911,9.542241 12.8292,20.614717 16.56989,32.187003 1.19392,3.693531 2.04657,7.494167 3.06984,11.24125 0.55008,3.639335 1.32412,7.250386 1.65025,10.918005 0.29701,3.340265 0.32003,6.707586 0.21513,10.059996 -0.31278,9.99581 -2.28295,19.56811 -6.06429,28.7949 -1.29809,3.16747 -2.94766,6.17083 -4.4215,9.25624 -1.8342,3.00399 -3.50733,6.11813 -5.50258,9.01198 -2.07306,3.00666 -4.34416,5.86987 -6.68393,8.66281 -10.22545,12.20598 -22.37593,22.27957 -35.76127,30.62194 -3.43468,1.929 -6.77846,4.03923 -10.30406,5.78697 -8.82903,4.37681 -18.21552,7.56624 -27.95058,8.9046 -7.146385,0.98247 -9.2891,0.6488 -16.485068,0.49152 -7.354018,-0.92885 -9.252714,-0.89577 -16.46321,-2.91539 -18.734115,-5.24728 3.307088,0.26982 -15.608244,-5.98804 -0.493946,-0.16341 1.544221,1.39453 1.085481,1.14545 -2.605254,-1.41445 -5.053535,-3.11441 -7.580302,-4.67162 -6.410254,-4.57169 -8.517789,-5.80543 -14.417391,-11.09523 -9.195007,-8.24455 -17.059824,-17.946 -23.145953,-28.81478 C 10.713808,146.78439 9.4694868,145.0793 7.0726906,137.13142 5.2087136,130.95041 4.1933746,125.41921 3.8737728,118.95894 3.4853284,111.10714 4.1345689,108.21952 5.0183543,100.44595 6.8318613,91.869231 6.889825,90.132425 9.9229319,81.802358 14.558828,69.070416 21.519313,57.368178 29.699236,46.727543 c 5.818376,-6.854518 7.442494,-9.20221 14.021668,-15.247851 2.337535,-2.147972 4.810548,-4.13825 7.296145,-6.10336 3.642517,-2.879765 9.299583,-6.848607 13.232331,-9.294598 2.211665,-1.375554 4.507871,-2.602563 6.761806,-3.903841 2.26598,-1.116284 4.498295,-2.3075962 6.797941,-3.3488491 8.856388,-4.0100731 18.204546,-6.8350301 27.761933,-8.38905526 1.37811,-0.17124766 2.75312,-0.37115118 4.13433,-0.51374333 2.81894,-0.29102483 5.65963,-0.37644387 8.48607,-0.53955712 z" />
      <path
         style="fill:#000000;fill-opacity:1;stroke:none;stroke-width:1.765;stroke-opacity:1"
         d="M 104.95252,78.634428 C 97.342689,77.257541 89.429155,75.468236 82.734445,71.409025 75.801478,67.205351 69.031217,60.338128 63.69038,54.262175 c -2.502231,-2.846638 -4.781915,-5.87679 -7.626149,-8.399679 -1.294976,-1.14867 -1.150141,0.843912 -1.491144,2.180802 -1.162833,4.558829 -0.724183,8.90996 0.191717,13.480227 1.308505,6.529326 3.57024,16.207525 8.861669,20.789495 1.476351,1.278405 3.720364,2.469761 5.538544,3.235256 6.630122,2.791431 13.55903,4.635576 20.194378,0.647049 1.793391,-1.078013 4.335214,-2.85487 5.985888,-4.625216 0.69028,-0.740325 0.998863,-1.792954 1.768073,-2.456397 0.442193,-0.381391 1.557853,-0.675621 1.001197,0.239649"
         id="path12" />
      <path
         style="fill:#000000;fill-opacity:1;stroke:none;stroke-width:1.765;stroke-opacity:1"
         d="m 124.61435,81.630022 c 6.82147,-1.61752 13.73336,-3.542287 20.17308,-6.386621 1.0453,-0.461698 6.69791,-3.404524 7.92437,-4.050059 3.95876,-2.083652 8.58337,-4.090834 12.05699,-7.021701 1.1711,-0.988121 2.02662,-2.270453 3.1314,-3.319131 2.19484,-2.083377 2.44041,-0.0083 3.13141,2.87578 1.00992,4.215164 0.57002,8.765233 0.0213,13.012914 -1.55741,12.055965 -8.9403,21.091583 -20.91865,24.480076 -4.94399,1.39859 -9.08233,-1.818201 -13.2286,-3.93023 -5.80622,-2.957573 -10.38183,-4.583536 -15.69964,-8.663291 -1.13309,-0.8693 -1.04615,-2.244895 -2.32193,-2.983625"
         id="path13" />
      <path
         style="fill:#f9f9f9;fill-opacity:1;stroke:none;stroke-width:1.765;stroke-opacity:1"
         d="m 54.168346,140.18813 c 0.908889,0.79084 1.755963,1.65891 2.726669,2.37252 0.637553,0.4687 3.197759,1.46414 3.749167,1.65357 8.498993,2.91975 17.48686,3.88991 26.457193,3.67861 6.737111,-0.1587 13.670615,-0.53346 20.343495,-1.52177 9.35529,-1.3856 18.43136,-4.06849 27.37318,-7.08161 3.79589,-1.2791 7.86997,-2.55046 11.1836,-4.88883 0.92098,-0.64993 3.15608,-3.25228 3.30182,-3.21129 0.9939,0.27953 0.43925,2.41689 0.27693,3.03155 -1.21481,4.59996 -3.51888,8.78134 -6.81667,12.23406 -13.70494,14.3488 -28.50898,20.66874 -48.334437,19.088 -7.422835,-0.59184 -17.746734,-3.26994 -23.837037,-7.7047 -4.902809,-3.57007 -8.762505,-8.36079 -13.462918,-12.18612 -0.649682,-0.52873 -2.919719,-2.07753 -3.067502,-3.0675 -0.118058,-0.79086 0.715234,-1.87799 0.10651,-2.39649 -1.599718,-1.36262 -2.975827,-0.21512 -4.132604,0.51524"
         id="path14" />
      <path
         style="fill:#ff6600;fill-opacity:1;stroke:none;stroke-width:1.765;stroke-opacity:1"
         d="m 68.200743,63.085678 c -1.207392,5.417634 -1.264756,13.182459 4.878178,15.625071 1.807737,0.718807 3.825857,0.935726 5.70896,0.25163 1.522177,-0.55298 3.171957,-2.068338 3.834373,-3.558781 0.034,-0.0765 0.688033,-1.521767 0.255627,-1.521767 -0.341339,0 -0.175128,0.334182 -0.639064,0.2037"
         id="path15" />
      <path
         style="fill:#ff6600;fill-opacity:1;stroke:none;stroke-width:1.765;stroke-opacity:1"
         d="m 141.99117,81.490671 c 1.98489,0.04261 3.64251,-0.96116 5.45334,-1.629611 1.8915,-0.698228 3.69145,-1.578258 5.36812,-2.696044 0.62468,-0.416451 1.31772,-1.246711 1.9811,-1.533752 0.18304,-0.0792 0.48281,-0.0642 0.66036,0 0.62298,0.225274 0.8268,1.259178 0.9586,1.809348 0.81029,3.38242 0.39165,6.250291 -1.83198,8.95087 -0.6032,0.732575 -1.43726,1.614453 -2.38584,1.88124 -3.00809,0.846026 -7.65066,-0.231219 -10.16109,-2.156836 -0.93701,-0.718727 -1.06756,-2.935695 -2.23672,-2.935695"
         id="path16" />
      <path
         style="fill:#000000;fill-opacity:1;stroke:none;stroke-width:1.765;stroke-opacity:1"
         d="m 66.138699,144.32073 c -0.07781,0.57655 1.164209,5.7237 1.618959,5.5958 0.312852,-0.088 0.203243,-1.6464 0.213022,-1.7734 0.05515,-0.71635 0.12356,-1.43198 0.213021,-2.14486 0.259363,-2.06679 0.777589,-2.41709 -0.149117,-1.47384"
         id="path17" />
      <path
         style="fill:#000000;fill-opacity:1;stroke:none;stroke-width:1.765;stroke-opacity:1"
         d="m 71.464222,146.1181 c 0.872178,2.90637 1.805554,5.80973 2.939688,8.62734 0.08695,0.21602 0.47658,1.26122 0.809479,1.27014 0.82741,0.0222 1.054055,-2.85551 1.363334,-4.51737 0.299652,-1.61014 0.532551,-3.0541 0.532551,-4.68513"
         id="path18" />
      <path
         style="fill:#000000;fill-opacity:1;stroke:none;stroke-width:1.765;stroke-opacity:1"
         d="m 81.646619,147.77167 c 1.890916,4.09594 2.596713,8.54958 4.132606,12.76128 0.04938,0.13543 0.756592,2.61217 0.979895,2.61217 0.19499,0 0.575297,-1.61248 0.681667,-2.03701 1.068242,-4.26343 0.730568,-8.58951 1.320729,-12.90507"
         id="path19" />
      <path
         style="fill:#000000;fill-opacity:1;stroke:none;stroke-width:1.765;stroke-opacity:1"
         d="m 93.39468,147.42437 c 0.655566,4.13025 2.453404,8.00854 4.006717,11.87047 0.118473,0.29455 0.235434,0.5898 0.361508,0.88118 0.605208,1.39872 1.252194,2.8238 1.973234,4.16864 0.03298,0.0615 0.649331,1.08782 0.798331,0.96591 0.86538,-0.70805 0.67267,-3.26522 0.76821,-4.29574 0.22273,-2.4026 0.40318,-4.80696 0.49707,-7.21887 0.0601,-1.54282 0.2412,-3.07533 0.31632,-4.61771 0.0187,-0.38284 0.0348,-0.80045 0.10544,-1.17773 0.0358,-0.19108 0.22698,-0.71446 0.0904,-0.57615 -0.15263,0.15454 -0.0413,0.0656 -0.30126,0.21182"
         id="path20" />
      <path
         style="fill:#000000;fill-opacity:1;stroke:none;stroke-width:1.765;stroke-opacity:1"
         d="m 106.80062,146.01788 c 0.75672,3.0269 0.26662,1.23923 1.08452,3.91446 0.99636,3.2589 2.17071,6.41065 3.29877,9.61669 0.36463,1.03632 0.70517,2.08101 1.11465,3.10106 0.14545,0.36233 0.30608,0.71683 0.43682,1.08453 0.0316,0.0889 0.0906,0.35582 0.10544,0.26265 0.19399,-1.21591 0.0211,-2.47317 0.1205,-3.70263 0.16562,-2.04957 0.44043,-4.11844 0.46695,-6.17671 0.0152,-1.17926 -0.14608,-2.36119 -0.16569,-3.54166 -0.0198,-1.19231 0.0669,-2.39358 0.1205,-3.58401 0.03,-0.66614 0.0662,-1.33265 0.0904,-1.9996 0.002,-0.0583 -0.0177,-0.55608 -0.0452,-0.54226 -0.4025,0.20257 -0.50712,0.50499 -0.79833,0.89812"
         id="path21" />
      <path
         style="fill:#000000;fill-opacity:1;stroke:none;stroke-width:1.765;stroke-opacity:1"
         d="m 119.13709,143.43366 c -0.0999,1.55023 0.60966,2.94978 1.18997,4.34657 1.19978,2.88785 2.67379,5.67957 4.20253,8.40507 0.33431,0.59602 0.69314,1.18298 1.06946,1.75388 0.18421,0.27946 0.36842,0.56253 0.55733,0.83882 0.0378,0.0553 0.0851,0.21789 0.1205,0.16098 0.42993,-0.69096 -0.0408,-2.57086 -0.0753,-3.30441 -0.12408,-2.63477 -0.28129,-5.27504 -0.63264,-7.88823 -0.12674,-0.94259 -0.30893,-5.79026 -0.58745,-6.17671 -0.13255,-0.18391 -0.37959,0.24904 -0.55733,0.38975"
         id="path22" />
      <path
         style="fill:#000000;fill-opacity:1;stroke:none;stroke-width:1.765;stroke-opacity:1"
         d="m 130.01247,140.91722 c 1.14676,3.42683 3.11574,6.50928 4.69961,9.75225 0.21876,0.44793 0.76658,2.15326 1.34059,2.34699 0.581,0.19608 0.0829,-2.44706 0.0753,-2.51644 -0.2925,-2.69421 -1.07956,-5.1981 -1.73223,-7.82045 -0.25867,-1.0393 -0.23922,-2.5325 -0.75314,-3.48234 -0.10553,-0.19503 -0.23432,0.17251 -0.69289,1.00827"
         id="path23" />
      <path
         style="fill:#000000;fill-opacity:1;stroke:none;stroke-width:1.765;stroke-opacity:1"
         d="m 139.92383,137.84158 c 0.10691,1.10066 0.48041,2.08786 0.81339,3.118 0.50596,1.56531 1.02559,3.15698 1.71716,4.6516 0.0161,0.0348 0.56875,1.06984 0.57239,1.06758 0.81395,-0.50363 -0.40192,-6.70938 -0.48201,-8.00685 -0.028,-0.45295 0.067,-3.65364 -0.66276,-3.27052"
         id="path24" />
    </g>
  </g>
</svg>
